<?xml version="1.0" standalone="no"?>
 <!DOCTYPE svg PUBLIC "-//W3C//DTD SVG 1.1//EN" 
 "http://www.w3.org/Graphics/SVG/1.1/DTD/svg11.dtd"> 
<svg
  xmlns:svg="http://www.w3.org/2000/svg"
  xmlns="http://www.w3.org/2000/svg"
  xmlns:xlink="http://www.w3.org/1999/xlink"
  version="1.1"
  width="297.0022mm" height="210.0072mm" viewBox="0.0000 0.0000 297.0022 210.0072">
<title>SVG Image created as xl4015_voltageControl.svg date 2024/02/04 18:01:41 </title>
  <desc>Image generated by Eeschema-SVG </desc>
<g style="fill:#000000; fill-opacity:1.0000;stroke:#000000; stroke-opacity:1.0000;
stroke-linecap:round; stroke-linejoin:round;"
 transform="translate(0 0) scale(1 1)">
</g>
<g style="fill:#000000; fill-opacity:0.0; 
stroke:#000000; stroke-width:0.1524; stroke-opacity:1; 
stroke-linecap:round; stroke-linejoin:round;">
<g >
</g>
<g style="fill:#840000; fill-opacity:0.0; 
stroke:#840000; stroke-width:0.1524; stroke-opacity:1; 
stroke-linecap:round; stroke-linejoin:round;">
<path style="fill:#840000; fill-opacity:0.0; 
stroke:#840000; stroke-width:0.1524; stroke-opacity:1; 
stroke-linecap:round; stroke-linejoin:round;fill:none"
d="M 71.1200,73.6600
70.1040,73.6600
" /> 
</g>
<g style="fill:#840000; fill-opacity:1.0000; 
stroke:#840000; stroke-width:0.1524; stroke-opacity:1; 
stroke-linecap:round; stroke-linejoin:round;">
<path style="fill:#840000; fill-opacity:1.0000; 
stroke:#840000; stroke-width:0.1524; stroke-opacity:1; 
stroke-linecap:round; stroke-linejoin:round;fill-rule:evenodd;"
d="M 69.7230,73.6600
70.8660,73.1520
70.8660,74.1680
Z" /> 
</g>
<g style="fill:#840000; fill-opacity:0.0; 
stroke:#840000; stroke-width:0.2540; stroke-opacity:1; 
stroke-linecap:round; stroke-linejoin:round;">
<rect x="67.564000" y="71.120000" width="2.032000" height="5.080000" rx="0.000000" />
</g>
<g style="fill:#840000; fill-opacity:0.0; 
stroke:#840000; stroke-width:0.1524; stroke-opacity:1; 
stroke-linecap:round; stroke-linejoin:round;">
<path d="M68.5800 71.1200
L68.5800 69.8500
" />
</g>
<g style="fill:#A90000; fill-opacity:0.0; 
stroke:#A90000; stroke-width:0.1524; stroke-opacity:1; 
stroke-linecap:round; stroke-linejoin:round;">
<g transform="rotate(-90.000000 68.3260 70.4850)">
<text x="68.3260" y="70.4850"
textLength="1.4127" font-size="1.6933" lengthAdjust="spacingAndGlyphs"
text-anchor="middle" opacity="0">1</text>
</g>
<g class="stroked-text"><desc>1</desc>
<path d="M68.1625 70.1220
L68.1625 70.8477
" />
<path d="M68.1625 70.4849
L66.8925 70.4849
" />
<path d="M66.8925 70.4849
L67.0740 70.6058
" />
<path d="M67.0740 70.6058
L67.1949 70.7268
" />
<path d="M67.1949 70.7268
L67.2554 70.8477
" />
</g></g>
<g style="fill:#840000; fill-opacity:0.0; 
stroke:#840000; stroke-width:0.1524; stroke-opacity:1; 
stroke-linecap:round; stroke-linejoin:round;">
<path d="M71.1200 73.6600
L72.3900 73.6600
" />
</g>
<g style="fill:#A90000; fill-opacity:0.0; 
stroke:#A90000; stroke-width:0.1524; stroke-opacity:1; 
stroke-linecap:round; stroke-linejoin:round;">
<text x="71.7550" y="73.4060"
textLength="1.4127" font-size="1.6933" lengthAdjust="spacingAndGlyphs"
text-anchor="middle" opacity="0">2</text>
<g class="stroked-text"><desc>2</desc>
<path d="M71.3922 72.0935
L71.4526 72.0330
" />
<path d="M71.4526 72.0330
L71.5736 71.9725
" />
<path d="M71.5736 71.9725
L71.8760 71.9725
" />
<path d="M71.8760 71.9725
L71.9969 72.0330
" />
<path d="M71.9969 72.0330
L72.0574 72.0935
" />
<path d="M72.0574 72.0935
L72.1179 72.2144
" />
<path d="M72.1179 72.2144
L72.1179 72.3354
" />
<path d="M72.1179 72.3354
L72.0574 72.5168
" />
<path d="M72.0574 72.5168
L71.3317 73.2425
" />
<path d="M71.3317 73.2425
L72.1179 73.2425
" />
</g></g>
<g style="fill:#840000; fill-opacity:0.0; 
stroke:#840000; stroke-width:0.1524; stroke-opacity:1; 
stroke-linecap:round; stroke-linejoin:round;">
<path d="M68.5800 76.2000
L68.5800 77.4700
" />
</g>
<g style="fill:#A90000; fill-opacity:0.0; 
stroke:#A90000; stroke-width:0.1524; stroke-opacity:1; 
stroke-linecap:round; stroke-linejoin:round;">
<g transform="rotate(-90.000000 68.3260 76.8350)">
<text x="68.3260" y="76.8350"
textLength="1.4127" font-size="1.6933" lengthAdjust="spacingAndGlyphs"
text-anchor="middle" opacity="0">3</text>
</g>
<g class="stroked-text"><desc>3</desc>
<path d="M66.8925 77.2582
L66.8925 76.4720
" />
<path d="M66.8925 76.4720
L67.3763 76.8954
" />
<path d="M67.3763 76.8954
L67.3763 76.7139
" />
<path d="M67.3763 76.7139
L67.4368 76.5930
" />
<path d="M67.4368 76.5930
L67.4973 76.5325
" />
<path d="M67.4973 76.5325
L67.6182 76.4720
" />
<path d="M67.6182 76.4720
L67.9206 76.4720
" />
<path d="M67.9206 76.4720
L68.0416 76.5325
" />
<path d="M68.0416 76.5325
L68.1021 76.5930
" />
<path d="M68.1021 76.5930
L68.1625 76.7139
" />
<path d="M68.1625 76.7139
L68.1625 77.0768
" />
<path d="M68.1625 77.0768
L68.1021 77.1977
" />
<path d="M68.1021 77.1977
L68.0416 77.2582
" />
</g></g>
<g style="fill:#006464; fill-opacity:0.0; 
stroke:#006464; stroke-width:0.1524; stroke-opacity:1; 
stroke-linecap:round; stroke-linejoin:round;">
<text x="64.1447" y="73.0250"
textLength="3.7713" font-size="1.6933" lengthAdjust="spacingAndGlyphs"
text-anchor="middle" opacity="0">RV1</text>
<g class="stroked-text"><desc>RV1</desc>
<path d="M63.3887 72.9695
L62.9654 72.3648
" />
<path d="M62.6630 72.9695
L62.6630 71.6995
" />
<path d="M62.6630 71.6995
L63.1468 71.6995
" />
<path d="M63.1468 71.6995
L63.2678 71.7600
" />
<path d="M63.2678 71.7600
L63.3283 71.8205
" />
<path d="M63.3283 71.8205
L63.3887 71.9414
" />
<path d="M63.3887 71.9414
L63.3887 72.1229
" />
<path d="M63.3887 72.1229
L63.3283 72.2438
" />
<path d="M63.3283 72.2438
L63.2678 72.3043
" />
<path d="M63.2678 72.3043
L63.1468 72.3648
" />
<path d="M63.1468 72.3648
L62.6630 72.3648
" />
<path d="M63.7516 71.6995
L64.1749 72.9695
" />
<path d="M64.1749 72.9695
L64.5983 71.6995
" />
<path d="M65.6869 72.9695
L64.9612 72.9695
" />
<path d="M65.3240 72.9695
L65.3240 71.6995
" />
<path d="M65.3240 71.6995
L65.2031 71.8810
" />
<path d="M65.2031 71.8810
L65.0821 72.0019
" />
<path d="M65.0821 72.0019
L64.9612 72.0624
" />
</g><text x="62.4212" y="75.5650"
textLength="7.2183" font-size="1.6933" lengthAdjust="spacingAndGlyphs"
text-anchor="middle" opacity="0">Voltage</text>
<g class="stroked-text"><desc>Voltage</desc>
<path d="M59.0346 74.2395
L59.4579 75.5095
" />
<path d="M59.4579 75.5095
L59.8813 74.2395
" />
<path d="M60.4861 75.5095
L60.3651 75.4491
" />
<path d="M60.3651 75.4491
L60.3046 75.3886
" />
<path d="M60.3046 75.3886
L60.2442 75.2676
" />
<path d="M60.2442 75.2676
L60.2442 74.9048
" />
<path d="M60.2442 74.9048
L60.3046 74.7838
" />
<path d="M60.3046 74.7838
L60.3651 74.7233
" />
<path d="M60.3651 74.7233
L60.4861 74.6629
" />
<path d="M60.4861 74.6629
L60.6675 74.6629
" />
<path d="M60.6675 74.6629
L60.7884 74.7233
" />
<path d="M60.7884 74.7233
L60.8489 74.7838
" />
<path d="M60.8489 74.7838
L60.9094 74.9048
" />
<path d="M60.9094 74.9048
L60.9094 75.2676
" />
<path d="M60.9094 75.2676
L60.8489 75.3886
" />
<path d="M60.8489 75.3886
L60.7884 75.4491
" />
<path d="M60.7884 75.4491
L60.6675 75.5095
" />
<path d="M60.6675 75.5095
L60.4861 75.5095
" />
<path d="M61.6351 75.5095
L61.5141 75.4491
" />
<path d="M61.5141 75.4491
L61.4536 75.3281
" />
<path d="M61.4536 75.3281
L61.4536 74.2395
" />
<path d="M61.9374 74.6629
L62.4212 74.6629
" />
<path d="M62.1188 74.2395
L62.1188 75.3281
" />
<path d="M62.1188 75.3281
L62.1793 75.4491
" />
<path d="M62.1793 75.4491
L62.3003 75.5095
" />
<path d="M62.3003 75.5095
L62.4212 75.5095
" />
<path d="M63.3888 75.5095
L63.3888 74.8443
" />
<path d="M63.3888 74.8443
L63.3283 74.7233
" />
<path d="M63.3283 74.7233
L63.2074 74.6629
" />
<path d="M63.2074 74.6629
L62.9655 74.6629
" />
<path d="M62.9655 74.6629
L62.8445 74.7233
" />
<path d="M63.3888 75.4491
L63.2679 75.5095
" />
<path d="M63.2679 75.5095
L62.9655 75.5095
" />
<path d="M62.9655 75.5095
L62.8445 75.4491
" />
<path d="M62.8445 75.4491
L62.7841 75.3281
" />
<path d="M62.7841 75.3281
L62.7841 75.2071
" />
<path d="M62.7841 75.2071
L62.8445 75.0862
" />
<path d="M62.8445 75.0862
L62.9655 75.0257
" />
<path d="M62.9655 75.0257
L63.2679 75.0257
" />
<path d="M63.2679 75.0257
L63.3888 74.9652
" />
<path d="M64.5378 74.6629
L64.5378 75.6910
" />
<path d="M64.5378 75.6910
L64.4773 75.8119
" />
<path d="M64.4773 75.8119
L64.4169 75.8724
" />
<path d="M64.4169 75.8724
L64.2959 75.9329
" />
<path d="M64.2959 75.9329
L64.1145 75.9329
" />
<path d="M64.1145 75.9329
L63.9935 75.8724
" />
<path d="M64.5378 75.4491
L64.4169 75.5095
" />
<path d="M64.4169 75.5095
L64.1750 75.5095
" />
<path d="M64.1750 75.5095
L64.0540 75.4491
" />
<path d="M64.0540 75.4491
L63.9935 75.3886
" />
<path d="M63.9935 75.3886
L63.9331 75.2676
" />
<path d="M63.9331 75.2676
L63.9331 74.9048
" />
<path d="M63.9331 74.9048
L63.9935 74.7838
" />
<path d="M63.9935 74.7838
L64.0540 74.7233
" />
<path d="M64.0540 74.7233
L64.1750 74.6629
" />
<path d="M64.1750 74.6629
L64.4169 74.6629
" />
<path d="M64.4169 74.6629
L64.5378 74.7233
" />
<path d="M65.6263 75.4491
L65.5054 75.5095
" />
<path d="M65.5054 75.5095
L65.2635 75.5095
" />
<path d="M65.2635 75.5095
L65.1425 75.4491
" />
<path d="M65.1425 75.4491
L65.0821 75.3281
" />
<path d="M65.0821 75.3281
L65.0821 74.8443
" />
<path d="M65.0821 74.8443
L65.1425 74.7233
" />
<path d="M65.1425 74.7233
L65.2635 74.6629
" />
<path d="M65.2635 74.6629
L65.5054 74.6629
" />
<path d="M65.5054 74.6629
L65.6263 74.7233
" />
<path d="M65.6263 74.7233
L65.6868 74.8443
" />
<path d="M65.6868 74.8443
L65.6868 74.9652
" />
<path d="M65.6868 74.9652
L65.0821 75.0862
" />
</g></g>
</g>
<g style="fill:#006464; fill-opacity:0.0; 
stroke:#006464; stroke-width:0.1524; stroke-opacity:1; 
stroke-linecap:round; stroke-linejoin:round;">
<g >
</g>
<g style="fill:#840000; fill-opacity:0.0; 
stroke:#840000; stroke-width:0.1524; stroke-opacity:1; 
stroke-linecap:round; stroke-linejoin:round;">
</g>
<g style="fill:#FFFFC2; fill-opacity:0.0; 
stroke:#FFFFC2; stroke-width:0.1524; stroke-opacity:1; 
stroke-linecap:round; stroke-linejoin:round;">
</g>
<g style="fill:#FFFFC2; fill-opacity:1.0000; 
stroke:#FFFFC2; stroke-width:0.0000; stroke-opacity:1; 
stroke-linecap:round; stroke-linejoin:round;">
<rect x="36.830000" y="86.360000" width="2.540000" height="5.080000" rx="0.000000" />
</g>
<g style="fill:#840000; fill-opacity:1.0000; 
stroke:#840000; stroke-width:0.0000; stroke-opacity:1; 
stroke-linecap:round; stroke-linejoin:round;">
</g>
<g style="fill:#840000; fill-opacity:0.0; 
stroke:#840000; stroke-width:0.2540; stroke-opacity:1; 
stroke-linecap:round; stroke-linejoin:round;">
<rect x="36.830000" y="86.360000" width="2.540000" height="5.080000" rx="0.000000" />
</g>
<g style="fill:#840000; fill-opacity:0.0; 
stroke:#840000; stroke-width:0.1524; stroke-opacity:1; 
stroke-linecap:round; stroke-linejoin:round;">
<circle cx="38.1000" cy="90.1700" r="0.6350" /> 
<path style="fill:#840000; fill-opacity:0.0; 
stroke:#840000; stroke-width:0.1524; stroke-opacity:1; 
stroke-linecap:round; stroke-linejoin:round;fill:none"
d="M 38.6334,89.8398
37.7698,90.6780
" /> 
<path style="fill:#840000; fill-opacity:0.0; 
stroke:#840000; stroke-width:0.1524; stroke-opacity:1; 
stroke-linecap:round; stroke-linejoin:round;fill:none"
d="M 38.6334,87.2998
37.7698,88.1380
" /> 
<path style="fill:#840000; fill-opacity:0.0; 
stroke:#840000; stroke-width:0.1524; stroke-opacity:1; 
stroke-linecap:round; stroke-linejoin:round;fill:none"
d="M 38.4556,89.6620
37.5920,90.5002
" /> 
<path style="fill:#840000; fill-opacity:0.0; 
stroke:#840000; stroke-width:0.1524; stroke-opacity:1; 
stroke-linecap:round; stroke-linejoin:round;fill:none"
d="M 38.4556,87.1220
37.5920,87.9602
" /> 
<circle cx="38.1000" cy="87.6300" r="0.6350" /> 
<path d="M39.3700 87.6300
L43.1800 87.6300
" />
</g>
<g style="fill:#A90000; fill-opacity:0.0; 
stroke:#A90000; stroke-width:0.1524; stroke-opacity:1; 
stroke-linecap:round; stroke-linejoin:round;">
<text x="41.2750" y="87.3760"
textLength="1.4127" font-size="1.6933" lengthAdjust="spacingAndGlyphs"
text-anchor="middle" opacity="0">1</text>
<g class="stroked-text"><desc>1</desc>
<path d="M41.6379 87.2125
L40.9122 87.2125
" />
<path d="M41.2750 87.2125
L41.2750 85.9425
" />
<path d="M41.2750 85.9425
L41.1541 86.1240
" />
<path d="M41.1541 86.1240
L41.0331 86.2449
" />
<path d="M41.0331 86.2449
L40.9122 86.3054
" />
</g></g>
<g style="fill:#840000; fill-opacity:0.0; 
stroke:#840000; stroke-width:0.1524; stroke-opacity:1; 
stroke-linecap:round; stroke-linejoin:round;">
<path d="M39.3700 90.1700
L43.1800 90.1700
" />
</g>
<g style="fill:#A90000; fill-opacity:0.0; 
stroke:#A90000; stroke-width:0.1524; stroke-opacity:1; 
stroke-linecap:round; stroke-linejoin:round;">
<text x="41.2750" y="89.9160"
textLength="1.4127" font-size="1.6933" lengthAdjust="spacingAndGlyphs"
text-anchor="middle" opacity="0">2</text>
<g class="stroked-text"><desc>2</desc>
<path d="M40.9122 88.6035
L40.9726 88.5430
" />
<path d="M40.9726 88.5430
L41.0936 88.4825
" />
<path d="M41.0936 88.4825
L41.3960 88.4825
" />
<path d="M41.3960 88.4825
L41.5169 88.5430
" />
<path d="M41.5169 88.5430
L41.5774 88.6035
" />
<path d="M41.5774 88.6035
L41.6379 88.7244
" />
<path d="M41.6379 88.7244
L41.6379 88.8454
" />
<path d="M41.6379 88.8454
L41.5774 89.0268
" />
<path d="M41.5774 89.0268
L40.8517 89.7525
" />
<path d="M40.8517 89.7525
L41.6379 89.7525
" />
</g></g>
<g style="fill:#006464; fill-opacity:0.0; 
stroke:#006464; stroke-width:0.1524; stroke-opacity:1; 
stroke-linecap:round; stroke-linejoin:round;">
<text x="34.3602" y="88.2650"
textLength="2.3803" font-size="1.6933" lengthAdjust="spacingAndGlyphs"
text-anchor="middle" opacity="0">J1</text>
<g class="stroked-text"><desc>J1</desc>
<path d="M33.9369 86.9395
L33.9369 87.8467
" />
<path d="M33.9369 87.8467
L33.8764 88.0281
" />
<path d="M33.8764 88.0281
L33.7555 88.1491
" />
<path d="M33.7555 88.1491
L33.5740 88.2095
" />
<path d="M33.5740 88.2095
L33.4531 88.2095
" />
<path d="M35.2069 88.2095
L34.4812 88.2095
" />
<path d="M34.8440 88.2095
L34.8440 86.9395
" />
<path d="M34.8440 86.9395
L34.7231 87.1210
" />
<path d="M34.7231 87.1210
L34.6021 87.2419
" />
<path d="M34.6021 87.2419
L34.4812 87.3024
" />
</g><text x="29.0687" y="90.8050"
textLength="12.9634" font-size="1.6933" lengthAdjust="spacingAndGlyphs"
text-anchor="middle" opacity="0">Input Voltage</text>
<g class="stroked-text"><desc>Input Voltage</desc>
<path d="M22.9909 90.7495
L22.9909 89.4795
" />
<path d="M23.5957 89.9029
L23.5957 90.7495
" />
<path d="M23.5957 90.0238
L23.6562 89.9633
" />
<path d="M23.6562 89.9633
L23.7772 89.9029
" />
<path d="M23.7772 89.9029
L23.9586 89.9029
" />
<path d="M23.9586 89.9029
L24.0795 89.9633
" />
<path d="M24.0795 89.9633
L24.1400 90.0843
" />
<path d="M24.1400 90.0843
L24.1400 90.7495
" />
<path d="M24.7447 89.9029
L24.7447 91.1729
" />
<path d="M24.7447 89.9633
L24.8657 89.9029
" />
<path d="M24.8657 89.9029
L25.1076 89.9029
" />
<path d="M25.1076 89.9029
L25.2285 89.9633
" />
<path d="M25.2285 89.9633
L25.2890 90.0238
" />
<path d="M25.2890 90.0238
L25.3495 90.1448
" />
<path d="M25.3495 90.1448
L25.3495 90.5076
" />
<path d="M25.3495 90.5076
L25.2890 90.6286
" />
<path d="M25.2890 90.6286
L25.2285 90.6891
" />
<path d="M25.2285 90.6891
L25.1076 90.7495
" />
<path d="M25.1076 90.7495
L24.8657 90.7495
" />
<path d="M24.8657 90.7495
L24.7447 90.6891
" />
<path d="M26.4380 89.9029
L26.4380 90.7495
" />
<path d="M25.8937 89.9029
L25.8937 90.5681
" />
<path d="M25.8937 90.5681
L25.9542 90.6891
" />
<path d="M25.9542 90.6891
L26.0752 90.7495
" />
<path d="M26.0752 90.7495
L26.2566 90.7495
" />
<path d="M26.2566 90.7495
L26.3775 90.6891
" />
<path d="M26.3775 90.6891
L26.4380 90.6286
" />
<path d="M26.8613 89.9029
L27.3451 89.9029
" />
<path d="M27.0427 89.4795
L27.0427 90.5681
" />
<path d="M27.0427 90.5681
L27.1032 90.6891
" />
<path d="M27.1032 90.6891
L27.2242 90.7495
" />
<path d="M27.2242 90.7495
L27.3451 90.7495
" />
<path d="M28.5546 89.4795
L28.9779 90.7495
" />
<path d="M28.9779 90.7495
L29.4013 89.4795
" />
<path d="M30.0061 90.7495
L29.8851 90.6891
" />
<path d="M29.8851 90.6891
L29.8246 90.6286
" />
<path d="M29.8246 90.6286
L29.7642 90.5076
" />
<path d="M29.7642 90.5076
L29.7642 90.1448
" />
<path d="M29.7642 90.1448
L29.8246 90.0238
" />
<path d="M29.8246 90.0238
L29.8851 89.9633
" />
<path d="M29.8851 89.9633
L30.0061 89.9029
" />
<path d="M30.0061 89.9029
L30.1875 89.9029
" />
<path d="M30.1875 89.9029
L30.3084 89.9633
" />
<path d="M30.3084 89.9633
L30.3689 90.0238
" />
<path d="M30.3689 90.0238
L30.4294 90.1448
" />
<path d="M30.4294 90.1448
L30.4294 90.5076
" />
<path d="M30.4294 90.5076
L30.3689 90.6286
" />
<path d="M30.3689 90.6286
L30.3084 90.6891
" />
<path d="M30.3084 90.6891
L30.1875 90.7495
" />
<path d="M30.1875 90.7495
L30.0061 90.7495
" />
<path d="M31.1551 90.7495
L31.0341 90.6891
" />
<path d="M31.0341 90.6891
L30.9736 90.5681
" />
<path d="M30.9736 90.5681
L30.9736 89.4795
" />
<path d="M31.4574 89.9029
L31.9412 89.9029
" />
<path d="M31.6388 89.4795
L31.6388 90.5681
" />
<path d="M31.6388 90.5681
L31.6993 90.6891
" />
<path d="M31.6993 90.6891
L31.8203 90.7495
" />
<path d="M31.8203 90.7495
L31.9412 90.7495
" />
<path d="M32.9088 90.7495
L32.9088 90.0843
" />
<path d="M32.9088 90.0843
L32.8483 89.9633
" />
<path d="M32.8483 89.9633
L32.7274 89.9029
" />
<path d="M32.7274 89.9029
L32.4855 89.9029
" />
<path d="M32.4855 89.9029
L32.3645 89.9633
" />
<path d="M32.9088 90.6891
L32.7879 90.7495
" />
<path d="M32.7879 90.7495
L32.4855 90.7495
" />
<path d="M32.4855 90.7495
L32.3645 90.6891
" />
<path d="M32.3645 90.6891
L32.3041 90.5681
" />
<path d="M32.3041 90.5681
L32.3041 90.4471
" />
<path d="M32.3041 90.4471
L32.3645 90.3262
" />
<path d="M32.3645 90.3262
L32.4855 90.2657
" />
<path d="M32.4855 90.2657
L32.7879 90.2657
" />
<path d="M32.7879 90.2657
L32.9088 90.2052
" />
<path d="M34.0578 89.9029
L34.0578 90.9310
" />
<path d="M34.0578 90.9310
L33.9973 91.0519
" />
<path d="M33.9973 91.0519
L33.9369 91.1124
" />
<path d="M33.9369 91.1124
L33.8159 91.1729
" />
<path d="M33.8159 91.1729
L33.6345 91.1729
" />
<path d="M33.6345 91.1729
L33.5135 91.1124
" />
<path d="M34.0578 90.6891
L33.9369 90.7495
" />
<path d="M33.9369 90.7495
L33.6950 90.7495
" />
<path d="M33.6950 90.7495
L33.5740 90.6891
" />
<path d="M33.5740 90.6891
L33.5135 90.6286
" />
<path d="M33.5135 90.6286
L33.4531 90.5076
" />
<path d="M33.4531 90.5076
L33.4531 90.1448
" />
<path d="M33.4531 90.1448
L33.5135 90.0238
" />
<path d="M33.5135 90.0238
L33.5740 89.9633
" />
<path d="M33.5740 89.9633
L33.6950 89.9029
" />
<path d="M33.6950 89.9029
L33.9369 89.9029
" />
<path d="M33.9369 89.9029
L34.0578 89.9633
" />
<path d="M35.1463 90.6891
L35.0254 90.7495
" />
<path d="M35.0254 90.7495
L34.7835 90.7495
" />
<path d="M34.7835 90.7495
L34.6625 90.6891
" />
<path d="M34.6625 90.6891
L34.6021 90.5681
" />
<path d="M34.6021 90.5681
L34.6021 90.0843
" />
<path d="M34.6021 90.0843
L34.6625 89.9633
" />
<path d="M34.6625 89.9633
L34.7835 89.9029
" />
<path d="M34.7835 89.9029
L35.0254 89.9029
" />
<path d="M35.0254 89.9029
L35.1463 89.9633
" />
<path d="M35.1463 89.9633
L35.2068 90.0843
" />
<path d="M35.2068 90.0843
L35.2068 90.2052
" />
<path d="M35.2068 90.2052
L34.6021 90.3262
" />
</g></g>
</g>
<g style="fill:#006464; fill-opacity:0.0; 
stroke:#006464; stroke-width:0.1524; stroke-opacity:1; 
stroke-linecap:round; stroke-linejoin:round;">
<g >
</g>
<g style="fill:#840000; fill-opacity:0.0; 
stroke:#840000; stroke-width:0.1524; stroke-opacity:1; 
stroke-linecap:round; stroke-linejoin:round;">
</g>
<g style="fill:#840000; fill-opacity:0.0; 
stroke:#840000; stroke-width:0.2540; stroke-opacity:1; 
stroke-linecap:round; stroke-linejoin:round;">
<rect x="67.564000" y="81.280000" width="2.032000" height="5.080000" rx="0.000000" />
</g>
<g style="fill:#840000; fill-opacity:0.0; 
stroke:#840000; stroke-width:0.1524; stroke-opacity:1; 
stroke-linecap:round; stroke-linejoin:round;">
<path d="M68.5800 81.2800
L68.5800 80.0100
" />
<path d="M68.5800 86.3600
L68.5800 87.6300
" />
</g>
<g style="fill:#006464; fill-opacity:0.0; 
stroke:#006464; stroke-width:0.1524; stroke-opacity:1; 
stroke-linecap:round; stroke-linejoin:round;">
<text x="72.4709" y="83.1850"
textLength="2.6827" font-size="1.6933" lengthAdjust="spacingAndGlyphs"
text-anchor="middle" opacity="0">R3</text>
<g class="stroked-text"><desc>R3</desc>
<path d="M72.2592 83.1295
L71.8359 82.5248
" />
<path d="M71.5335 83.1295
L71.5335 81.8595
" />
<path d="M71.5335 81.8595
L72.0173 81.8595
" />
<path d="M72.0173 81.8595
L72.1383 81.9200
" />
<path d="M72.1383 81.9200
L72.1988 81.9805
" />
<path d="M72.1988 81.9805
L72.2592 82.1014
" />
<path d="M72.2592 82.1014
L72.2592 82.2829
" />
<path d="M72.2592 82.2829
L72.1988 82.4038
" />
<path d="M72.1988 82.4038
L72.1383 82.4643
" />
<path d="M72.1383 82.4643
L72.0173 82.5248
" />
<path d="M72.0173 82.5248
L71.5335 82.5248
" />
<path d="M72.6826 81.8595
L73.4688 81.8595
" />
<path d="M73.4688 81.8595
L73.0454 82.3433
" />
<path d="M73.0454 82.3433
L73.2269 82.3433
" />
<path d="M73.2269 82.3433
L73.3478 82.4038
" />
<path d="M73.3478 82.4038
L73.4083 82.4643
" />
<path d="M73.4083 82.4643
L73.4688 82.5852
" />
<path d="M73.4688 82.5852
L73.4688 82.8876
" />
<path d="M73.4688 82.8876
L73.4083 83.0086
" />
<path d="M73.4083 83.0086
L73.3478 83.0691
" />
<path d="M73.3478 83.0691
L73.2269 83.1295
" />
<path d="M73.2269 83.1295
L72.8640 83.1295
" />
<path d="M72.8640 83.1295
L72.7431 83.0691
" />
<path d="M72.7431 83.0691
L72.6826 83.0086
" />
</g><text x="73.6804" y="85.7250"
textLength="5.1017" font-size="1.6933" lengthAdjust="spacingAndGlyphs"
text-anchor="middle" opacity="0">270R</text>
<g class="stroked-text"><desc>270R</desc>
<path d="M71.4731 84.5205
L71.5335 84.4600
" />
<path d="M71.5335 84.4600
L71.6545 84.3995
" />
<path d="M71.6545 84.3995
L71.9569 84.3995
" />
<path d="M71.9569 84.3995
L72.0778 84.4600
" />
<path d="M72.0778 84.4600
L72.1383 84.5205
" />
<path d="M72.1383 84.5205
L72.1988 84.6414
" />
<path d="M72.1988 84.6414
L72.1988 84.7624
" />
<path d="M72.1988 84.7624
L72.1383 84.9438
" />
<path d="M72.1383 84.9438
L71.4126 85.6695
" />
<path d="M71.4126 85.6695
L72.1988 85.6695
" />
<path d="M72.6221 84.3995
L73.4687 84.3995
" />
<path d="M73.4687 84.3995
L72.9245 85.6695
" />
<path d="M74.1944 84.3995
L74.3154 84.3995
" />
<path d="M74.3154 84.3995
L74.4363 84.4600
" />
<path d="M74.4363 84.4600
L74.4968 84.5205
" />
<path d="M74.4968 84.5205
L74.5573 84.6414
" />
<path d="M74.5573 84.6414
L74.6178 84.8833
" />
<path d="M74.6178 84.8833
L74.6178 85.1857
" />
<path d="M74.6178 85.1857
L74.5573 85.4276
" />
<path d="M74.5573 85.4276
L74.4968 85.5486
" />
<path d="M74.4968 85.5486
L74.4363 85.6091
" />
<path d="M74.4363 85.6091
L74.3154 85.6695
" />
<path d="M74.3154 85.6695
L74.1944 85.6695
" />
<path d="M74.1944 85.6695
L74.0735 85.6091
" />
<path d="M74.0735 85.6091
L74.0130 85.5486
" />
<path d="M74.0130 85.5486
L73.9525 85.4276
" />
<path d="M73.9525 85.4276
L73.8921 85.1857
" />
<path d="M73.8921 85.1857
L73.8921 84.8833
" />
<path d="M73.8921 84.8833
L73.9525 84.6414
" />
<path d="M73.9525 84.6414
L74.0130 84.5205
" />
<path d="M74.0130 84.5205
L74.0735 84.4600
" />
<path d="M74.0735 84.4600
L74.1944 84.3995
" />
<path d="M75.8877 85.6695
L75.4644 85.0648
" />
<path d="M75.1620 85.6695
L75.1620 84.3995
" />
<path d="M75.1620 84.3995
L75.6458 84.3995
" />
<path d="M75.6458 84.3995
L75.7668 84.4600
" />
<path d="M75.7668 84.4600
L75.8273 84.5205
" />
<path d="M75.8273 84.5205
L75.8877 84.6414
" />
<path d="M75.8877 84.6414
L75.8877 84.8229
" />
<path d="M75.8877 84.8229
L75.8273 84.9438
" />
<path d="M75.8273 84.9438
L75.7668 85.0043
" />
<path d="M75.7668 85.0043
L75.6458 85.0648
" />
<path d="M75.6458 85.0648
L75.1620 85.0648
" />
</g></g>
</g>
<g style="fill:#006464; fill-opacity:0.0; 
stroke:#006464; stroke-width:0.1524; stroke-opacity:1; 
stroke-linecap:round; stroke-linejoin:round;">
<g >
</g>
<g style="fill:#840000; fill-opacity:0.0; 
stroke:#840000; stroke-width:0.1524; stroke-opacity:1; 
stroke-linecap:round; stroke-linejoin:round;">
</g>
<g style="fill:#FFFFC2; fill-opacity:0.0; 
stroke:#FFFFC2; stroke-width:0.1524; stroke-opacity:1; 
stroke-linecap:round; stroke-linejoin:round;">
</g>
<g style="fill:#FFFFC2; fill-opacity:1.0000; 
stroke:#FFFFC2; stroke-width:0.0000; stroke-opacity:1; 
stroke-linecap:round; stroke-linejoin:round;">
<rect x="96.520000" y="86.360000" width="2.540000" height="5.080000" rx="0.000000" />
</g>
<g style="fill:#840000; fill-opacity:1.0000; 
stroke:#840000; stroke-width:0.0000; stroke-opacity:1; 
stroke-linecap:round; stroke-linejoin:round;">
</g>
<g style="fill:#840000; fill-opacity:0.0; 
stroke:#840000; stroke-width:0.2540; stroke-opacity:1; 
stroke-linecap:round; stroke-linejoin:round;">
<rect x="96.520000" y="86.360000" width="2.540000" height="5.080000" rx="0.000000" />
</g>
<g style="fill:#840000; fill-opacity:0.0; 
stroke:#840000; stroke-width:0.1524; stroke-opacity:1; 
stroke-linecap:round; stroke-linejoin:round;">
<circle cx="97.7900" cy="90.1700" r="0.6350" /> 
<path style="fill:#840000; fill-opacity:0.0; 
stroke:#840000; stroke-width:0.1524; stroke-opacity:1; 
stroke-linecap:round; stroke-linejoin:round;fill:none"
d="M 97.2566,89.8398
98.1202,90.6780
" /> 
<path style="fill:#840000; fill-opacity:0.0; 
stroke:#840000; stroke-width:0.1524; stroke-opacity:1; 
stroke-linecap:round; stroke-linejoin:round;fill:none"
d="M 97.2566,87.2998
98.1202,88.1380
" /> 
<path style="fill:#840000; fill-opacity:0.0; 
stroke:#840000; stroke-width:0.1524; stroke-opacity:1; 
stroke-linecap:round; stroke-linejoin:round;fill:none"
d="M 97.4344,89.6620
98.2980,90.5002
" /> 
<path style="fill:#840000; fill-opacity:0.0; 
stroke:#840000; stroke-width:0.1524; stroke-opacity:1; 
stroke-linecap:round; stroke-linejoin:round;fill:none"
d="M 97.4344,87.1220
98.2980,87.9602
" /> 
<circle cx="97.7900" cy="87.6300" r="0.6350" /> 
<path d="M96.5200 87.6300
L92.7100 87.6300
" />
</g>
<g style="fill:#A90000; fill-opacity:0.0; 
stroke:#A90000; stroke-width:0.1524; stroke-opacity:1; 
stroke-linecap:round; stroke-linejoin:round;">
<text x="94.6150" y="87.3760"
textLength="1.4127" font-size="1.6933" lengthAdjust="spacingAndGlyphs"
text-anchor="middle" opacity="0">1</text>
<g class="stroked-text"><desc>1</desc>
<path d="M94.9779 87.2125
L94.2522 87.2125
" />
<path d="M94.6150 87.2125
L94.6150 85.9425
" />
<path d="M94.6150 85.9425
L94.4941 86.1240
" />
<path d="M94.4941 86.1240
L94.3731 86.2449
" />
<path d="M94.3731 86.2449
L94.2522 86.3054
" />
</g></g>
<g style="fill:#840000; fill-opacity:0.0; 
stroke:#840000; stroke-width:0.1524; stroke-opacity:1; 
stroke-linecap:round; stroke-linejoin:round;">
<path d="M96.5200 90.1700
L92.7100 90.1700
" />
</g>
<g style="fill:#A90000; fill-opacity:0.0; 
stroke:#A90000; stroke-width:0.1524; stroke-opacity:1; 
stroke-linecap:round; stroke-linejoin:round;">
<text x="94.6150" y="89.9160"
textLength="1.4127" font-size="1.6933" lengthAdjust="spacingAndGlyphs"
text-anchor="middle" opacity="0">2</text>
<g class="stroked-text"><desc>2</desc>
<path d="M94.2522 88.6035
L94.3126 88.5430
" />
<path d="M94.3126 88.5430
L94.4336 88.4825
" />
<path d="M94.4336 88.4825
L94.7360 88.4825
" />
<path d="M94.7360 88.4825
L94.8569 88.5430
" />
<path d="M94.8569 88.5430
L94.9174 88.6035
" />
<path d="M94.9174 88.6035
L94.9779 88.7244
" />
<path d="M94.9779 88.7244
L94.9779 88.8454
" />
<path d="M94.9779 88.8454
L94.9174 89.0268
" />
<path d="M94.9174 89.0268
L94.1917 89.7525
" />
<path d="M94.1917 89.7525
L94.9779 89.7525
" />
</g></g>
<g style="fill:#006464; fill-opacity:0.0; 
stroke:#006464; stroke-width:0.1524; stroke-opacity:1; 
stroke-linecap:round; stroke-linejoin:round;">
<text x="101.5297" y="88.2650"
textLength="2.3803" font-size="1.6933" lengthAdjust="spacingAndGlyphs"
text-anchor="middle" opacity="0">J2</text>
<g class="stroked-text"><desc>J2</desc>
<path d="M101.1064 86.9395
L101.1064 87.8467
" />
<path d="M101.1064 87.8467
L101.0459 88.0281
" />
<path d="M101.0459 88.0281
L100.9250 88.1491
" />
<path d="M100.9250 88.1491
L100.7435 88.2095
" />
<path d="M100.7435 88.2095
L100.6226 88.2095
" />
<path d="M101.6507 87.0605
L101.7111 87.0000
" />
<path d="M101.7111 87.0000
L101.8321 86.9395
" />
<path d="M101.8321 86.9395
L102.1345 86.9395
" />
<path d="M102.1345 86.9395
L102.2554 87.0000
" />
<path d="M102.2554 87.0000
L102.3159 87.0605
" />
<path d="M102.3159 87.0605
L102.3764 87.1814
" />
<path d="M102.3764 87.1814
L102.3764 87.3024
" />
<path d="M102.3764 87.3024
L102.3159 87.4838
" />
<path d="M102.3159 87.4838
L101.5902 88.2095
" />
<path d="M101.5902 88.2095
L102.3764 88.2095
" />
</g><text x="107.5470" y="90.8050"
textLength="14.4148" font-size="1.6933" lengthAdjust="spacingAndGlyphs"
text-anchor="middle" opacity="0">Output Voltage</text>
<g class="stroked-text"><desc>Output Voltage</desc>
<path d="M100.9854 89.4795
L101.2273 89.4795
" />
<path d="M101.2273 89.4795
L101.3483 89.5400
" />
<path d="M101.3483 89.5400
L101.4692 89.6610
" />
<path d="M101.4692 89.6610
L101.5297 89.9029
" />
<path d="M101.5297 89.9029
L101.5297 90.3262
" />
<path d="M101.5297 90.3262
L101.4692 90.5681
" />
<path d="M101.4692 90.5681
L101.3483 90.6891
" />
<path d="M101.3483 90.6891
L101.2273 90.7495
" />
<path d="M101.2273 90.7495
L100.9854 90.7495
" />
<path d="M100.9854 90.7495
L100.8645 90.6891
" />
<path d="M100.8645 90.6891
L100.7435 90.5681
" />
<path d="M100.7435 90.5681
L100.6831 90.3262
" />
<path d="M100.6831 90.3262
L100.6831 89.9029
" />
<path d="M100.6831 89.9029
L100.7435 89.6610
" />
<path d="M100.7435 89.6610
L100.8645 89.5400
" />
<path d="M100.8645 89.5400
L100.9854 89.4795
" />
<path d="M102.6183 89.9029
L102.6183 90.7495
" />
<path d="M102.0740 89.9029
L102.0740 90.5681
" />
<path d="M102.0740 90.5681
L102.1345 90.6891
" />
<path d="M102.1345 90.6891
L102.2555 90.7495
" />
<path d="M102.2555 90.7495
L102.4369 90.7495
" />
<path d="M102.4369 90.7495
L102.5578 90.6891
" />
<path d="M102.5578 90.6891
L102.6183 90.6286
" />
<path d="M103.0416 89.9029
L103.5254 89.9029
" />
<path d="M103.2230 89.4795
L103.2230 90.5681
" />
<path d="M103.2230 90.5681
L103.2835 90.6891
" />
<path d="M103.2835 90.6891
L103.4045 90.7495
" />
<path d="M103.4045 90.7495
L103.5254 90.7495
" />
<path d="M103.9487 89.9029
L103.9487 91.1729
" />
<path d="M103.9487 89.9633
L104.0697 89.9029
" />
<path d="M104.0697 89.9029
L104.3116 89.9029
" />
<path d="M104.3116 89.9029
L104.4325 89.9633
" />
<path d="M104.4325 89.9633
L104.4930 90.0238
" />
<path d="M104.4930 90.0238
L104.5535 90.1448
" />
<path d="M104.5535 90.1448
L104.5535 90.5076
" />
<path d="M104.5535 90.5076
L104.4930 90.6286
" />
<path d="M104.4930 90.6286
L104.4325 90.6891
" />
<path d="M104.4325 90.6891
L104.3116 90.7495
" />
<path d="M104.3116 90.7495
L104.0697 90.7495
" />
<path d="M104.0697 90.7495
L103.9487 90.6891
" />
<path d="M105.6420 89.9029
L105.6420 90.7495
" />
<path d="M105.0977 89.9029
L105.0977 90.5681
" />
<path d="M105.0977 90.5681
L105.1582 90.6891
" />
<path d="M105.1582 90.6891
L105.2792 90.7495
" />
<path d="M105.2792 90.7495
L105.4606 90.7495
" />
<path d="M105.4606 90.7495
L105.5815 90.6891
" />
<path d="M105.5815 90.6891
L105.6420 90.6286
" />
<path d="M106.0653 89.9029
L106.5491 89.9029
" />
<path d="M106.2467 89.4795
L106.2467 90.5681
" />
<path d="M106.2467 90.5681
L106.3072 90.6891
" />
<path d="M106.3072 90.6891
L106.4282 90.7495
" />
<path d="M106.4282 90.7495
L106.5491 90.7495
" />
<path d="M107.7586 89.4795
L108.1819 90.7495
" />
<path d="M108.1819 90.7495
L108.6053 89.4795
" />
<path d="M109.2101 90.7495
L109.0891 90.6891
" />
<path d="M109.0891 90.6891
L109.0286 90.6286
" />
<path d="M109.0286 90.6286
L108.9682 90.5076
" />
<path d="M108.9682 90.5076
L108.9682 90.1448
" />
<path d="M108.9682 90.1448
L109.0286 90.0238
" />
<path d="M109.0286 90.0238
L109.0891 89.9633
" />
<path d="M109.0891 89.9633
L109.2101 89.9029
" />
<path d="M109.2101 89.9029
L109.3915 89.9029
" />
<path d="M109.3915 89.9029
L109.5124 89.9633
" />
<path d="M109.5124 89.9633
L109.5729 90.0238
" />
<path d="M109.5729 90.0238
L109.6334 90.1448
" />
<path d="M109.6334 90.1448
L109.6334 90.5076
" />
<path d="M109.6334 90.5076
L109.5729 90.6286
" />
<path d="M109.5729 90.6286
L109.5124 90.6891
" />
<path d="M109.5124 90.6891
L109.3915 90.7495
" />
<path d="M109.3915 90.7495
L109.2101 90.7495
" />
<path d="M110.3591 90.7495
L110.2381 90.6891
" />
<path d="M110.2381 90.6891
L110.1776 90.5681
" />
<path d="M110.1776 90.5681
L110.1776 89.4795
" />
<path d="M110.6614 89.9029
L111.1452 89.9029
" />
<path d="M110.8428 89.4795
L110.8428 90.5681
" />
<path d="M110.8428 90.5681
L110.9033 90.6891
" />
<path d="M110.9033 90.6891
L111.0243 90.7495
" />
<path d="M111.0243 90.7495
L111.1452 90.7495
" />
<path d="M112.1128 90.7495
L112.1128 90.0843
" />
<path d="M112.1128 90.0843
L112.0523 89.9633
" />
<path d="M112.0523 89.9633
L111.9314 89.9029
" />
<path d="M111.9314 89.9029
L111.6895 89.9029
" />
<path d="M111.6895 89.9029
L111.5685 89.9633
" />
<path d="M112.1128 90.6891
L111.9919 90.7495
" />
<path d="M111.9919 90.7495
L111.6895 90.7495
" />
<path d="M111.6895 90.7495
L111.5685 90.6891
" />
<path d="M111.5685 90.6891
L111.5081 90.5681
" />
<path d="M111.5081 90.5681
L111.5081 90.4471
" />
<path d="M111.5081 90.4471
L111.5685 90.3262
" />
<path d="M111.5685 90.3262
L111.6895 90.2657
" />
<path d="M111.6895 90.2657
L111.9919 90.2657
" />
<path d="M111.9919 90.2657
L112.1128 90.2052
" />
<path d="M113.2618 89.9029
L113.2618 90.9310
" />
<path d="M113.2618 90.9310
L113.2013 91.0519
" />
<path d="M113.2013 91.0519
L113.1409 91.1124
" />
<path d="M113.1409 91.1124
L113.0199 91.1729
" />
<path d="M113.0199 91.1729
L112.8385 91.1729
" />
<path d="M112.8385 91.1729
L112.7175 91.1124
" />
<path d="M113.2618 90.6891
L113.1409 90.7495
" />
<path d="M113.1409 90.7495
L112.8990 90.7495
" />
<path d="M112.8990 90.7495
L112.7780 90.6891
" />
<path d="M112.7780 90.6891
L112.7175 90.6286
" />
<path d="M112.7175 90.6286
L112.6571 90.5076
" />
<path d="M112.6571 90.5076
L112.6571 90.1448
" />
<path d="M112.6571 90.1448
L112.7175 90.0238
" />
<path d="M112.7175 90.0238
L112.7780 89.9633
" />
<path d="M112.7780 89.9633
L112.8990 89.9029
" />
<path d="M112.8990 89.9029
L113.1409 89.9029
" />
<path d="M113.1409 89.9029
L113.2618 89.9633
" />
<path d="M114.3503 90.6891
L114.2294 90.7495
" />
<path d="M114.2294 90.7495
L113.9875 90.7495
" />
<path d="M113.9875 90.7495
L113.8665 90.6891
" />
<path d="M113.8665 90.6891
L113.8061 90.5681
" />
<path d="M113.8061 90.5681
L113.8061 90.0843
" />
<path d="M113.8061 90.0843
L113.8665 89.9633
" />
<path d="M113.8665 89.9633
L113.9875 89.9029
" />
<path d="M113.9875 89.9029
L114.2294 89.9029
" />
<path d="M114.2294 89.9029
L114.3503 89.9633
" />
<path d="M114.3503 89.9633
L114.4108 90.0843
" />
<path d="M114.4108 90.0843
L114.4108 90.2052
" />
<path d="M114.4108 90.2052
L113.8061 90.3262
" />
</g></g>
</g>
<g style="fill:#006464; fill-opacity:0.0; 
stroke:#006464; stroke-width:0.1524; stroke-opacity:1; 
stroke-linecap:round; stroke-linejoin:round;">
<g >
</g>
<g style="fill:#840000; fill-opacity:0.0; 
stroke:#840000; stroke-width:0.1524; stroke-opacity:1; 
stroke-linecap:round; stroke-linejoin:round;">
</g>
<g style="fill:#840000; fill-opacity:0.0; 
stroke:#840000; stroke-width:0.2540; stroke-opacity:1; 
stroke-linecap:round; stroke-linejoin:round;">
<rect x="80.010000" y="89.154000" width="5.080000" height="2.032000" rx="0.000000" />
</g>
<g style="fill:#840000; fill-opacity:0.0; 
stroke:#840000; stroke-width:0.1524; stroke-opacity:1; 
stroke-linecap:round; stroke-linejoin:round;">
<path d="M85.0900 90.1700
L86.3600 90.1700
" />
<path d="M80.0100 90.1700
L78.7400 90.1700
" />
</g>
<g style="fill:#006464; fill-opacity:0.0; 
stroke:#006464; stroke-width:0.1524; stroke-opacity:1; 
stroke-linecap:round; stroke-linejoin:round;">
<text x="82.5500" y="84.4550"
textLength="2.6827" font-size="1.6933" lengthAdjust="spacingAndGlyphs"
text-anchor="middle" opacity="0">R1</text>
<g class="stroked-text"><desc>R1</desc>
<path d="M82.3383 84.3995
L81.9150 83.7948
" />
<path d="M81.6126 84.3995
L81.6126 83.1295
" />
<path d="M81.6126 83.1295
L82.0964 83.1295
" />
<path d="M82.0964 83.1295
L82.2174 83.1900
" />
<path d="M82.2174 83.1900
L82.2779 83.2505
" />
<path d="M82.2779 83.2505
L82.3383 83.3714
" />
<path d="M82.3383 83.3714
L82.3383 83.5529
" />
<path d="M82.3383 83.5529
L82.2779 83.6738
" />
<path d="M82.2779 83.6738
L82.2174 83.7343
" />
<path d="M82.2174 83.7343
L82.0964 83.7948
" />
<path d="M82.0964 83.7948
L81.6126 83.7948
" />
<path d="M83.5479 84.3995
L82.8222 84.3995
" />
<path d="M83.1850 84.3995
L83.1850 83.1295
" />
<path d="M83.1850 83.1295
L83.0641 83.3110
" />
<path d="M83.0641 83.3110
L82.9431 83.4319
" />
<path d="M82.9431 83.4319
L82.8222 83.4924
" />
</g><text x="82.5500" y="86.9950"
textLength="5.1017" font-size="1.6933" lengthAdjust="spacingAndGlyphs"
text-anchor="middle" opacity="0">R050</text>
<g class="stroked-text"><desc>R050</desc>
<path d="M81.1288 86.9395
L80.7055 86.3348
" />
<path d="M80.4031 86.9395
L80.4031 85.6695
" />
<path d="M80.4031 85.6695
L80.8869 85.6695
" />
<path d="M80.8869 85.6695
L81.0079 85.7300
" />
<path d="M81.0079 85.7300
L81.0684 85.7905
" />
<path d="M81.0684 85.7905
L81.1288 85.9114
" />
<path d="M81.1288 85.9114
L81.1288 86.0929
" />
<path d="M81.1288 86.0929
L81.0684 86.2138
" />
<path d="M81.0684 86.2138
L81.0079 86.2743
" />
<path d="M81.0079 86.2743
L80.8869 86.3348
" />
<path d="M80.8869 86.3348
L80.4031 86.3348
" />
<path d="M81.9150 85.6695
L82.0360 85.6695
" />
<path d="M82.0360 85.6695
L82.1569 85.7300
" />
<path d="M82.1569 85.7300
L82.2174 85.7905
" />
<path d="M82.2174 85.7905
L82.2779 85.9114
" />
<path d="M82.2779 85.9114
L82.3384 86.1533
" />
<path d="M82.3384 86.1533
L82.3384 86.4557
" />
<path d="M82.3384 86.4557
L82.2779 86.6976
" />
<path d="M82.2779 86.6976
L82.2174 86.8186
" />
<path d="M82.2174 86.8186
L82.1569 86.8791
" />
<path d="M82.1569 86.8791
L82.0360 86.9395
" />
<path d="M82.0360 86.9395
L81.9150 86.9395
" />
<path d="M81.9150 86.9395
L81.7941 86.8791
" />
<path d="M81.7941 86.8791
L81.7336 86.8186
" />
<path d="M81.7336 86.8186
L81.6731 86.6976
" />
<path d="M81.6731 86.6976
L81.6127 86.4557
" />
<path d="M81.6127 86.4557
L81.6127 86.1533
" />
<path d="M81.6127 86.1533
L81.6731 85.9114
" />
<path d="M81.6731 85.9114
L81.7336 85.7905
" />
<path d="M81.7336 85.7905
L81.7941 85.7300
" />
<path d="M81.7941 85.7300
L81.9150 85.6695
" />
<path d="M83.4874 85.6695
L82.8826 85.6695
" />
<path d="M82.8826 85.6695
L82.8222 86.2743
" />
<path d="M82.8222 86.2743
L82.8826 86.2138
" />
<path d="M82.8826 86.2138
L83.0036 86.1533
" />
<path d="M83.0036 86.1533
L83.3060 86.1533
" />
<path d="M83.3060 86.1533
L83.4269 86.2138
" />
<path d="M83.4269 86.2138
L83.4874 86.2743
" />
<path d="M83.4874 86.2743
L83.5479 86.3952
" />
<path d="M83.5479 86.3952
L83.5479 86.6976
" />
<path d="M83.5479 86.6976
L83.4874 86.8186
" />
<path d="M83.4874 86.8186
L83.4269 86.8791
" />
<path d="M83.4269 86.8791
L83.3060 86.9395
" />
<path d="M83.3060 86.9395
L83.0036 86.9395
" />
<path d="M83.0036 86.9395
L82.8826 86.8791
" />
<path d="M82.8826 86.8791
L82.8222 86.8186
" />
<path d="M84.3340 85.6695
L84.4550 85.6695
" />
<path d="M84.4550 85.6695
L84.5759 85.7300
" />
<path d="M84.5759 85.7300
L84.6364 85.7905
" />
<path d="M84.6364 85.7905
L84.6969 85.9114
" />
<path d="M84.6969 85.9114
L84.7574 86.1533
" />
<path d="M84.7574 86.1533
L84.7574 86.4557
" />
<path d="M84.7574 86.4557
L84.6969 86.6976
" />
<path d="M84.6969 86.6976
L84.6364 86.8186
" />
<path d="M84.6364 86.8186
L84.5759 86.8791
" />
<path d="M84.5759 86.8791
L84.4550 86.9395
" />
<path d="M84.4550 86.9395
L84.3340 86.9395
" />
<path d="M84.3340 86.9395
L84.2131 86.8791
" />
<path d="M84.2131 86.8791
L84.1526 86.8186
" />
<path d="M84.1526 86.8186
L84.0921 86.6976
" />
<path d="M84.0921 86.6976
L84.0317 86.4557
" />
<path d="M84.0317 86.4557
L84.0317 86.1533
" />
<path d="M84.0317 86.1533
L84.0921 85.9114
" />
<path d="M84.0921 85.9114
L84.1526 85.7905
" />
<path d="M84.1526 85.7905
L84.2131 85.7300
" />
<path d="M84.2131 85.7300
L84.3340 85.6695
" />
</g></g>
</g>
<g style="fill:#006464; fill-opacity:0.0; 
stroke:#006464; stroke-width:0.1524; stroke-opacity:1; 
stroke-linecap:round; stroke-linejoin:round;">
<g >
</g>
<g style="fill:#840000; fill-opacity:0.0; 
stroke:#840000; stroke-width:0.1524; stroke-opacity:1; 
stroke-linecap:round; stroke-linejoin:round;">
</g>
<g style="fill:#FFFFC2; fill-opacity:0.0; 
stroke:#FFFFC2; stroke-width:0.1524; stroke-opacity:1; 
stroke-linecap:round; stroke-linejoin:round;">
</g>
<g style="fill:#FFFFC2; fill-opacity:1.0000; 
stroke:#FFFFC2; stroke-width:0.0000; stroke-opacity:1; 
stroke-linecap:round; stroke-linejoin:round;">
<rect x="46.990000" y="55.880000" width="15.240000" height="10.160000" rx="0.000000" />
</g>
<g style="fill:#840000; fill-opacity:1.0000; 
stroke:#840000; stroke-width:0.0000; stroke-opacity:1; 
stroke-linecap:round; stroke-linejoin:round;">
</g>
<g style="fill:#840000; fill-opacity:0.0; 
stroke:#840000; stroke-width:0.2540; stroke-opacity:1; 
stroke-linecap:round; stroke-linejoin:round;">
<rect x="46.990000" y="55.880000" width="15.240000" height="10.160000" rx="0.000000" />
</g>
<g style="fill:#840000; fill-opacity:0.0; 
stroke:#840000; stroke-width:0.1524; stroke-opacity:1; 
stroke-linecap:round; stroke-linejoin:round;">
<path d="M54.6100 66.0400
L54.6100 68.5800
" />
</g>
<g style="fill:#006464; fill-opacity:0.0; 
stroke:#006464; stroke-width:0.1524; stroke-opacity:1; 
stroke-linecap:round; stroke-linejoin:round;">
<g transform="rotate(-90.000000 54.6100 65.5320)">
<text x="54.6100" y="66.1670"
textLength="4.0737" font-size="1.6933" lengthAdjust="spacingAndGlyphs"
text-anchor="start" opacity="0">GND</text>
</g>
<g class="stroked-text"><desc>GND</desc>
<path d="M53.9800 64.4641
L53.9195 64.5851
" />
<path d="M53.9195 64.5851
L53.9195 64.7665
" />
<path d="M53.9195 64.7665
L53.9800 64.9479
" />
<path d="M53.9800 64.9479
L54.1010 65.0689
" />
<path d="M54.1010 65.0689
L54.2219 65.1294
" />
<path d="M54.2219 65.1294
L54.4638 65.1898
" />
<path d="M54.4638 65.1898
L54.6452 65.1898
" />
<path d="M54.6452 65.1898
L54.8871 65.1294
" />
<path d="M54.8871 65.1294
L55.0081 65.0689
" />
<path d="M55.0081 65.0689
L55.1291 64.9479
" />
<path d="M55.1291 64.9479
L55.1895 64.7665
" />
<path d="M55.1895 64.7665
L55.1895 64.6456
" />
<path d="M55.1895 64.6456
L55.1291 64.4641
" />
<path d="M55.1291 64.4641
L55.0686 64.4037
" />
<path d="M55.0686 64.4037
L54.6452 64.4037
" />
<path d="M54.6452 64.4037
L54.6452 64.6456
" />
<path d="M55.1895 63.8594
L53.9195 63.8594
" />
<path d="M53.9195 63.8594
L55.1895 63.1337
" />
<path d="M55.1895 63.1337
L53.9195 63.1337
" />
<path d="M55.1895 62.5289
L53.9195 62.5289
" />
<path d="M53.9195 62.5289
L53.9195 62.2265
" />
<path d="M53.9195 62.2265
L53.9800 62.0451
" />
<path d="M53.9800 62.0451
L54.1010 61.9241
" />
<path d="M54.1010 61.9241
L54.2219 61.8636
" />
<path d="M54.2219 61.8636
L54.4638 61.8032
" />
<path d="M54.4638 61.8032
L54.6452 61.8032
" />
<path d="M54.6452 61.8032
L54.8871 61.8636
" />
<path d="M54.8871 61.8636
L55.0081 61.9241
" />
<path d="M55.0081 61.9241
L55.1291 62.0451
" />
<path d="M55.1291 62.0451
L55.1895 62.2265
" />
<path d="M55.1895 62.2265
L55.1895 62.5289
" />
</g></g>
<g style="fill:#A90000; fill-opacity:0.0; 
stroke:#A90000; stroke-width:0.1524; stroke-opacity:1; 
stroke-linecap:round; stroke-linejoin:round;">
<g transform="rotate(-90.000000 54.3560 67.3100)">
<text x="54.3560" y="67.3100"
textLength="1.4127" font-size="1.6933" lengthAdjust="spacingAndGlyphs"
text-anchor="middle" opacity="0">1</text>
</g>
<g class="stroked-text"><desc>1</desc>
<path d="M54.1925 66.9470
L54.1925 67.6727
" />
<path d="M54.1925 67.3099
L52.9225 67.3099
" />
<path d="M52.9225 67.3099
L53.1040 67.4308
" />
<path d="M53.1040 67.4308
L53.2249 67.5518
" />
<path d="M53.2249 67.5518
L53.2854 67.6727
" />
</g></g>
<g style="fill:#840000; fill-opacity:0.0; 
stroke:#840000; stroke-width:0.1524; stroke-opacity:1; 
stroke-linecap:round; stroke-linejoin:round;">
<path d="M62.2300 63.5000
L64.7700 63.5000
" />
</g>
<g style="fill:#006464; fill-opacity:0.0; 
stroke:#006464; stroke-width:0.1524; stroke-opacity:1; 
stroke-linecap:round; stroke-linejoin:round;">
<text x="61.7220" y="64.1350"
textLength="2.5618" font-size="1.6933" lengthAdjust="spacingAndGlyphs"
text-anchor="end" opacity="0">FB</text>
<g class="stroked-text"><desc>FB</desc>
<path d="M59.9889 63.4143
L59.5655 63.4143
" />
<path d="M59.5655 64.0795
L59.5655 62.8095
" />
<path d="M59.5655 62.8095
L60.1703 62.8095
" />
<path d="M61.0775 63.4143
L61.2589 63.4748
" />
<path d="M61.2589 63.4748
L61.3194 63.5352
" />
<path d="M61.3194 63.5352
L61.3798 63.6562
" />
<path d="M61.3798 63.6562
L61.3798 63.8376
" />
<path d="M61.3798 63.8376
L61.3194 63.9586
" />
<path d="M61.3194 63.9586
L61.2589 64.0191
" />
<path d="M61.2589 64.0191
L61.1379 64.0795
" />
<path d="M61.1379 64.0795
L60.6541 64.0795
" />
<path d="M60.6541 64.0795
L60.6541 62.8095
" />
<path d="M60.6541 62.8095
L61.0775 62.8095
" />
<path d="M61.0775 62.8095
L61.1984 62.8700
" />
<path d="M61.1984 62.8700
L61.2589 62.9305
" />
<path d="M61.2589 62.9305
L61.3194 63.0514
" />
<path d="M61.3194 63.0514
L61.3194 63.1724
" />
<path d="M61.3194 63.1724
L61.2589 63.2933
" />
<path d="M61.2589 63.2933
L61.1984 63.3538
" />
<path d="M61.1984 63.3538
L61.0775 63.4143
" />
<path d="M61.0775 63.4143
L60.6541 63.4143
" />
</g></g>
<g style="fill:#A90000; fill-opacity:0.0; 
stroke:#A90000; stroke-width:0.1524; stroke-opacity:1; 
stroke-linecap:round; stroke-linejoin:round;">
<text x="63.5000" y="63.2460"
textLength="1.4127" font-size="1.6933" lengthAdjust="spacingAndGlyphs"
text-anchor="middle" opacity="0">2</text>
<g class="stroked-text"><desc>2</desc>
<path d="M63.1372 61.9335
L63.1976 61.8730
" />
<path d="M63.1976 61.8730
L63.3186 61.8125
" />
<path d="M63.3186 61.8125
L63.6210 61.8125
" />
<path d="M63.6210 61.8125
L63.7419 61.8730
" />
<path d="M63.7419 61.8730
L63.8024 61.9335
" />
<path d="M63.8024 61.9335
L63.8629 62.0544
" />
<path d="M63.8629 62.0544
L63.8629 62.1754
" />
<path d="M63.8629 62.1754
L63.8024 62.3568
" />
<path d="M63.8024 62.3568
L63.0767 63.0825
" />
<path d="M63.0767 63.0825
L63.8629 63.0825
" />
</g></g>
<g style="fill:#840000; fill-opacity:0.0; 
stroke:#840000; stroke-width:0.1524; stroke-opacity:1; 
stroke-linecap:round; stroke-linejoin:round;">
<path d="M62.2300 58.4200
L64.7700 58.4200
" />
</g>
<g style="fill:#006464; fill-opacity:0.0; 
stroke:#006464; stroke-width:0.1524; stroke-opacity:1; 
stroke-linecap:round; stroke-linejoin:round;">
<text x="61.7220" y="59.0550"
textLength="2.8641" font-size="1.6933" lengthAdjust="spacingAndGlyphs"
text-anchor="end" opacity="0">SW</text>
<g class="stroked-text"><desc>SW</desc>
<path d="M59.2028 58.9391
L59.3842 58.9995
" />
<path d="M59.3842 58.9995
L59.6866 58.9995
" />
<path d="M59.6866 58.9995
L59.8075 58.9391
" />
<path d="M59.8075 58.9391
L59.8680 58.8786
" />
<path d="M59.8680 58.8786
L59.9285 58.7576
" />
<path d="M59.9285 58.7576
L59.9285 58.6367
" />
<path d="M59.9285 58.6367
L59.8680 58.5157
" />
<path d="M59.8680 58.5157
L59.8075 58.4552
" />
<path d="M59.8075 58.4552
L59.6866 58.3948
" />
<path d="M59.6866 58.3948
L59.4447 58.3343
" />
<path d="M59.4447 58.3343
L59.3237 58.2738
" />
<path d="M59.3237 58.2738
L59.2632 58.2133
" />
<path d="M59.2632 58.2133
L59.2028 58.0924
" />
<path d="M59.2028 58.0924
L59.2028 57.9714
" />
<path d="M59.2028 57.9714
L59.2632 57.8505
" />
<path d="M59.2632 57.8505
L59.3237 57.7900
" />
<path d="M59.3237 57.7900
L59.4447 57.7295
" />
<path d="M59.4447 57.7295
L59.7470 57.7295
" />
<path d="M59.7470 57.7295
L59.9285 57.7900
" />
<path d="M60.3518 57.7295
L60.6542 58.9995
" />
<path d="M60.6542 58.9995
L60.8961 58.0924
" />
<path d="M60.8961 58.0924
L61.1380 58.9995
" />
<path d="M61.1380 58.9995
L61.4404 57.7295
" />
</g></g>
<g style="fill:#A90000; fill-opacity:0.0; 
stroke:#A90000; stroke-width:0.1524; stroke-opacity:1; 
stroke-linecap:round; stroke-linejoin:round;">
<text x="63.5000" y="58.1660"
textLength="1.4127" font-size="1.6933" lengthAdjust="spacingAndGlyphs"
text-anchor="middle" opacity="0">3</text>
<g class="stroked-text"><desc>3</desc>
<path d="M63.0767 56.7325
L63.8629 56.7325
" />
<path d="M63.8629 56.7325
L63.4395 57.2163
" />
<path d="M63.4395 57.2163
L63.6210 57.2163
" />
<path d="M63.6210 57.2163
L63.7419 57.2768
" />
<path d="M63.7419 57.2768
L63.8024 57.3373
" />
<path d="M63.8024 57.3373
L63.8629 57.4582
" />
<path d="M63.8629 57.4582
L63.8629 57.7606
" />
<path d="M63.8629 57.7606
L63.8024 57.8816
" />
<path d="M63.8024 57.8816
L63.7419 57.9421
" />
<path d="M63.7419 57.9421
L63.6210 58.0025
" />
<path d="M63.6210 58.0025
L63.2581 58.0025
" />
<path d="M63.2581 58.0025
L63.1372 57.9421
" />
<path d="M63.1372 57.9421
L63.0767 57.8816
" />
</g></g>
<g style="fill:#006464; fill-opacity:0.0; 
stroke:#006464; stroke-width:0.1524; stroke-opacity:1; 
stroke-linecap:round; stroke-linejoin:round;">
<text x="54.6100" y="51.4350"
textLength="2.7432" font-size="1.6933" lengthAdjust="spacingAndGlyphs"
text-anchor="middle" opacity="0">U1</text>
<g class="stroked-text"><desc>U1</desc>
<path d="M53.6423 50.1095
L53.6423 51.1376
" />
<path d="M53.6423 51.1376
L53.7028 51.2586
" />
<path d="M53.7028 51.2586
L53.7633 51.3191
" />
<path d="M53.7633 51.3191
L53.8842 51.3795
" />
<path d="M53.8842 51.3795
L54.1261 51.3795
" />
<path d="M54.1261 51.3795
L54.2471 51.3191
" />
<path d="M54.2471 51.3191
L54.3076 51.2586
" />
<path d="M54.3076 51.2586
L54.3680 51.1376
" />
<path d="M54.3680 51.1376
L54.3680 50.1095
" />
<path d="M55.6381 51.3795
L54.9124 51.3795
" />
<path d="M55.2752 51.3795
L55.2752 50.1095
" />
<path d="M55.2752 50.1095
L55.1543 50.2910
" />
<path d="M55.1543 50.2910
L55.0333 50.4119
" />
<path d="M55.0333 50.4119
L54.9124 50.4724
" />
</g><text x="54.6100" y="53.9750"
textLength="7.2788" font-size="1.6933" lengthAdjust="spacingAndGlyphs"
text-anchor="middle" opacity="0">XL4015</text>
<g class="stroked-text"><desc>XL4015</desc>
<path d="M51.2536 52.6495
L52.1002 53.9195
" />
<path d="M52.1002 52.6495
L51.2536 53.9195
" />
<path d="M53.1888 53.9195
L52.5840 53.9195
" />
<path d="M52.5840 53.9195
L52.5840 52.6495
" />
<path d="M54.1564 53.0729
L54.1564 53.9195
" />
<path d="M53.8540 52.5891
L53.5517 53.4962
" />
<path d="M53.5517 53.4962
L54.3378 53.4962
" />
<path d="M55.0635 52.6495
L55.1845 52.6495
" />
<path d="M55.1845 52.6495
L55.3054 52.7100
" />
<path d="M55.3054 52.7100
L55.3659 52.7705
" />
<path d="M55.3659 52.7705
L55.4264 52.8914
" />
<path d="M55.4264 52.8914
L55.4869 53.1333
" />
<path d="M55.4869 53.1333
L55.4869 53.4357
" />
<path d="M55.4869 53.4357
L55.4264 53.6776
" />
<path d="M55.4264 53.6776
L55.3659 53.7986
" />
<path d="M55.3659 53.7986
L55.3054 53.8591
" />
<path d="M55.3054 53.8591
L55.1845 53.9195
" />
<path d="M55.1845 53.9195
L55.0635 53.9195
" />
<path d="M55.0635 53.9195
L54.9426 53.8591
" />
<path d="M54.9426 53.8591
L54.8821 53.7986
" />
<path d="M54.8821 53.7986
L54.8216 53.6776
" />
<path d="M54.8216 53.6776
L54.7612 53.4357
" />
<path d="M54.7612 53.4357
L54.7612 53.1333
" />
<path d="M54.7612 53.1333
L54.8216 52.8914
" />
<path d="M54.8216 52.8914
L54.8821 52.7705
" />
<path d="M54.8821 52.7705
L54.9426 52.7100
" />
<path d="M54.9426 52.7100
L55.0635 52.6495
" />
<path d="M56.6964 53.9195
L55.9707 53.9195
" />
<path d="M56.3335 53.9195
L56.3335 52.6495
" />
<path d="M56.3335 52.6495
L56.2126 52.8310
" />
<path d="M56.2126 52.8310
L56.0916 52.9519
" />
<path d="M56.0916 52.9519
L55.9707 53.0124
" />
<path d="M57.8454 52.6495
L57.2406 52.6495
" />
<path d="M57.2406 52.6495
L57.1802 53.2543
" />
<path d="M57.1802 53.2543
L57.2406 53.1938
" />
<path d="M57.2406 53.1938
L57.3616 53.1333
" />
<path d="M57.3616 53.1333
L57.6640 53.1333
" />
<path d="M57.6640 53.1333
L57.7849 53.1938
" />
<path d="M57.7849 53.1938
L57.8454 53.2543
" />
<path d="M57.8454 53.2543
L57.9059 53.3752
" />
<path d="M57.9059 53.3752
L57.9059 53.6776
" />
<path d="M57.9059 53.6776
L57.8454 53.7986
" />
<path d="M57.8454 53.7986
L57.7849 53.8591
" />
<path d="M57.7849 53.8591
L57.6640 53.9195
" />
<path d="M57.6640 53.9195
L57.3616 53.9195
" />
<path d="M57.3616 53.9195
L57.2406 53.8591
" />
<path d="M57.2406 53.8591
L57.1802 53.7986
" />
</g></g>
</g>
<g style="fill:#006464; fill-opacity:0.0; 
stroke:#006464; stroke-width:0.1524; stroke-opacity:1; 
stroke-linecap:round; stroke-linejoin:round;">
</g>
<g style="fill:#009600; fill-opacity:0.0; 
stroke:#009600; stroke-width:0.1524; stroke-opacity:1; 
stroke-linecap:round; stroke-linejoin:round;">
<path d="M54.6100 90.1700
L68.5800 90.1700
" />
<path d="M68.5800 78.7400
L68.5800 80.0100
" />
<path d="M72.3900 78.7400
L68.5800 78.7400
" />
<path d="M68.5800 77.4700
L68.5800 78.7400
" />
<path d="M43.1800 87.6300
L43.1800 48.2600
" />
<path d="M54.6100 68.5800
L54.6100 90.1700
" />
<path d="M43.1800 90.1700
L54.6100 90.1700
" />
<path d="M72.3900 73.6600
L72.3900 78.7400
" />
<path d="M68.5800 87.6300
L68.5800 90.1700
" />
<path d="M86.3600 90.1700
L92.7100 90.1700
" />
<path d="M68.5800 90.1700
L78.7400 90.1700
" />
<path d="M68.5800 63.5000
L68.5800 69.8500
" />
<path d="M64.7700 63.5000
L68.5800 63.5000
" />
<path d="M64.7700 48.2600
L64.7700 58.4200
" />
<path d="M43.1800 48.2600
L64.7700 48.2600
" />
</g>
<g style="fill:#009600; fill-opacity:1.0000; 
stroke:#009600; stroke-width:0.1524; stroke-opacity:1; 
stroke-linecap:round; stroke-linejoin:round;">
<circle cx="68.5800" cy="78.7400" r="0.4572" /> 
<circle cx="54.6100" cy="90.1700" r="0.4572" /> 
<circle cx="68.5800" cy="90.1700" r="0.4572" /> 
</g> 
</svg>
