<?xml version="1.0" standalone="no"?>
 <!DOCTYPE svg PUBLIC "-//W3C//DTD SVG 1.1//EN" 
 "http://www.w3.org/Graphics/SVG/1.1/DTD/svg11.dtd"> 
<svg
  xmlns:svg="http://www.w3.org/2000/svg"
  xmlns="http://www.w3.org/2000/svg"
  xmlns:xlink="http://www.w3.org/1999/xlink"
  version="1.1"
  width="297.0022mm" height="210.0072mm" viewBox="0.0000 0.0000 297.0022 210.0072">
<title>SVG Image created as darlington.svg date 2024/01/27 17:14:19 </title>
  <desc>Image generated by Eeschema-SVG </desc>
<g style="fill:#000000; fill-opacity:1.0000;stroke:#000000; stroke-opacity:1.0000;
stroke-linecap:round; stroke-linejoin:round;"
 transform="translate(0 0) scale(1 1)">
</g>
<g style="fill:#000000; fill-opacity:0.0; 
stroke:#000000; stroke-width:0.1524; stroke-opacity:1; 
stroke-linecap:round; stroke-linejoin:round;">
<g >
</g>
<g style="fill:#840000; fill-opacity:0.0; 
stroke:#840000; stroke-width:0.1524; stroke-opacity:1; 
stroke-linecap:round; stroke-linejoin:round;">
<path style="fill:#840000; fill-opacity:0.0; 
stroke:#840000; stroke-width:0.1524; stroke-opacity:1; 
stroke-linecap:round; stroke-linejoin:round;fill:none"
d="M 48.8950,57.7850
50.8000,55.8800
" /> 
<path style="fill:#840000; fill-opacity:0.0; 
stroke:#840000; stroke-width:0.1524; stroke-opacity:1; 
stroke-linecap:round; stroke-linejoin:round;fill:none"
d="M 48.8950,59.0550
50.8000,60.9600
50.8000,60.9600
" /> 
<path style="fill:#840000; fill-opacity:0.0; 
stroke:#840000; stroke-width:0.1524; stroke-opacity:1; 
stroke-linecap:round; stroke-linejoin:round;fill:none"
d="M 48.8950,58.4200
50.8000,56.5150
50.8000,55.8800
" /> 
</g>
<g style="fill:#840000; fill-opacity:0.0; 
stroke:#840000; stroke-width:0.5080; stroke-opacity:1; 
stroke-linecap:round; stroke-linejoin:round;">
<path style="fill:#840000; fill-opacity:0.0; 
stroke:#840000; stroke-width:0.5080; stroke-opacity:1; 
stroke-linecap:round; stroke-linejoin:round;fill:none"
d="M 48.8950,56.5150
48.8950,60.3250
48.8950,60.3250
" /> 
</g>
<g style="fill:#840000; fill-opacity:1.0000; 
stroke:#840000; stroke-width:0.1524; stroke-opacity:1; 
stroke-linecap:round; stroke-linejoin:round;">
<path style="fill:#840000; fill-opacity:1.0000; 
stroke:#840000; stroke-width:0.1524; stroke-opacity:1; 
stroke-linecap:round; stroke-linejoin:round;fill-rule:evenodd;"
d="M 49.5300,60.1980
50.0380,59.6900
50.5460,60.7060
49.5300,60.1980
Z" /> 
</g>
<g style="fill:#840000; fill-opacity:0.0; 
stroke:#840000; stroke-width:0.2540; stroke-opacity:1; 
stroke-linecap:round; stroke-linejoin:round;">
<circle cx="49.5300" cy="58.4200" r="2.8194" /> 
</g>
<g style="fill:#840000; fill-opacity:0.0; 
stroke:#840000; stroke-width:0.1524; stroke-opacity:1; 
stroke-linecap:round; stroke-linejoin:round;">
<path d="M48.8950 58.4200
L43.1800 58.4200
" />
</g>
<g style="fill:#006464; fill-opacity:0.0; 
stroke:#006464; stroke-width:0.1524; stroke-opacity:1; 
stroke-linecap:round; stroke-linejoin:round;">
<text x="46.0375" y="58.1660"
textLength="1.4732" font-size="1.6933" lengthAdjust="spacingAndGlyphs"
text-anchor="middle" opacity="0">B</text>
<g class="stroked-text"><desc>B</desc>
<path d="M46.1282 57.3373
L46.3096 57.3978
" />
<path d="M46.3096 57.3978
L46.3701 57.4582
" />
<path d="M46.3701 57.4582
L46.4305 57.5792
" />
<path d="M46.4305 57.5792
L46.4305 57.7606
" />
<path d="M46.4305 57.7606
L46.3701 57.8816
" />
<path d="M46.3701 57.8816
L46.3096 57.9421
" />
<path d="M46.3096 57.9421
L46.1886 58.0025
" />
<path d="M46.1886 58.0025
L45.7048 58.0025
" />
<path d="M45.7048 58.0025
L45.7048 56.7325
" />
<path d="M45.7048 56.7325
L46.1282 56.7325
" />
<path d="M46.1282 56.7325
L46.2491 56.7930
" />
<path d="M46.2491 56.7930
L46.3096 56.8535
" />
<path d="M46.3096 56.8535
L46.3701 56.9744
" />
<path d="M46.3701 56.9744
L46.3701 57.0954
" />
<path d="M46.3701 57.0954
L46.3096 57.2163
" />
<path d="M46.3096 57.2163
L46.2491 57.2768
" />
<path d="M46.2491 57.2768
L46.1282 57.3373
" />
<path d="M46.1282 57.3373
L45.7048 57.3373
" />
</g></g>
<g style="fill:#840000; fill-opacity:0.0; 
stroke:#840000; stroke-width:0.1524; stroke-opacity:1; 
stroke-linecap:round; stroke-linejoin:round;">
<path d="M50.8000 55.8800
L50.8000 53.3400
" />
</g>
<g style="fill:#006464; fill-opacity:0.0; 
stroke:#006464; stroke-width:0.1524; stroke-opacity:1; 
stroke-linecap:round; stroke-linejoin:round;">
<g transform="rotate(-90.000000 50.5460 54.6100)">
<text x="50.5460" y="54.6100"
textLength="1.4732" font-size="1.6933" lengthAdjust="spacingAndGlyphs"
text-anchor="middle" opacity="0">C</text>
</g>
<g class="stroked-text"><desc>C</desc>
<path d="M50.2616 54.2169
L50.3221 54.2773
" />
<path d="M50.3221 54.2773
L50.3825 54.4588
" />
<path d="M50.3825 54.4588
L50.3825 54.5797
" />
<path d="M50.3825 54.5797
L50.3221 54.7611
" />
<path d="M50.3221 54.7611
L50.2011 54.8821
" />
<path d="M50.2011 54.8821
L50.0801 54.9426
" />
<path d="M50.0801 54.9426
L49.8382 55.0030
" />
<path d="M49.8382 55.0030
L49.6568 55.0030
" />
<path d="M49.6568 55.0030
L49.4149 54.9426
" />
<path d="M49.4149 54.9426
L49.2940 54.8821
" />
<path d="M49.2940 54.8821
L49.1730 54.7611
" />
<path d="M49.1730 54.7611
L49.1125 54.5797
" />
<path d="M49.1125 54.5797
L49.1125 54.4588
" />
<path d="M49.1125 54.4588
L49.1730 54.2773
" />
<path d="M49.1730 54.2773
L49.2335 54.2169
" />
</g></g>
<g style="fill:#840000; fill-opacity:0.0; 
stroke:#840000; stroke-width:0.1524; stroke-opacity:1; 
stroke-linecap:round; stroke-linejoin:round;">
<path d="M50.8000 60.9600
L50.8000 63.5000
" />
</g>
<g style="fill:#006464; fill-opacity:0.0; 
stroke:#006464; stroke-width:0.1524; stroke-opacity:1; 
stroke-linecap:round; stroke-linejoin:round;">
<g transform="rotate(-90.000000 50.5460 62.2300)">
<text x="50.5460" y="62.2300"
textLength="1.3522" font-size="1.6933" lengthAdjust="spacingAndGlyphs"
text-anchor="middle" opacity="0">E</text>
</g>
<g class="stroked-text"><desc>E</desc>
<path d="M49.7173 62.5021
L49.7173 62.0787
" />
<path d="M50.3825 61.8973
L50.3825 62.5021
" />
<path d="M50.3825 62.5021
L49.1125 62.5021
" />
<path d="M49.1125 62.5021
L49.1125 61.8973
" />
</g><text x="54.7212" y="57.7850"
textLength="2.7432" font-size="1.6933" lengthAdjust="spacingAndGlyphs"
text-anchor="middle" opacity="0">Q1</text>
<g class="stroked-text"><desc>Q1</desc>
<path d="M54.6002 57.8505
L54.4792 57.7900
" />
<path d="M54.4792 57.7900
L54.3583 57.6691
" />
<path d="M54.3583 57.6691
L54.1769 57.4876
" />
<path d="M54.1769 57.4876
L54.0559 57.4271
" />
<path d="M54.0559 57.4271
L53.9350 57.4271
" />
<path d="M53.9954 57.7295
L53.8745 57.6691
" />
<path d="M53.8745 57.6691
L53.7535 57.5481
" />
<path d="M53.7535 57.5481
L53.6931 57.3062
" />
<path d="M53.6931 57.3062
L53.6931 56.8829
" />
<path d="M53.6931 56.8829
L53.7535 56.6410
" />
<path d="M53.7535 56.6410
L53.8745 56.5200
" />
<path d="M53.8745 56.5200
L53.9954 56.4595
" />
<path d="M53.9954 56.4595
L54.2373 56.4595
" />
<path d="M54.2373 56.4595
L54.3583 56.5200
" />
<path d="M54.3583 56.5200
L54.4792 56.6410
" />
<path d="M54.4792 56.6410
L54.5397 56.8829
" />
<path d="M54.5397 56.8829
L54.5397 57.3062
" />
<path d="M54.5397 57.3062
L54.4792 57.5481
" />
<path d="M54.4792 57.5481
L54.3583 57.6691
" />
<path d="M54.3583 57.6691
L54.2373 57.7295
" />
<path d="M54.2373 57.7295
L53.9954 57.7295
" />
<path d="M55.7493 57.7295
L55.0236 57.7295
" />
<path d="M55.3864 57.7295
L55.3864 56.4595
" />
<path d="M55.3864 56.4595
L55.2655 56.6410
" />
<path d="M55.2655 56.6410
L55.1445 56.7619
" />
<path d="M55.1445 56.7619
L55.0236 56.8224
" />
</g><text x="60.7989" y="60.3250"
textLength="14.8987" font-size="1.6933" lengthAdjust="spacingAndGlyphs"
text-anchor="middle" opacity="0">NPN Darlington</text>
<g class="stroked-text"><desc>NPN Darlington</desc>
<path d="M53.7535 60.2695
L53.7535 58.9995
" />
<path d="M53.7535 58.9995
L54.4792 60.2695
" />
<path d="M54.4792 60.2695
L54.4792 58.9995
" />
<path d="M55.0840 60.2695
L55.0840 58.9995
" />
<path d="M55.0840 58.9995
L55.5678 58.9995
" />
<path d="M55.5678 58.9995
L55.6888 59.0600
" />
<path d="M55.6888 59.0600
L55.7493 59.1205
" />
<path d="M55.7493 59.1205
L55.8097 59.2414
" />
<path d="M55.8097 59.2414
L55.8097 59.4229
" />
<path d="M55.8097 59.4229
L55.7493 59.5438
" />
<path d="M55.7493 59.5438
L55.6888 59.6043
" />
<path d="M55.6888 59.6043
L55.5678 59.6648
" />
<path d="M55.5678 59.6648
L55.0840 59.6648
" />
<path d="M56.3540 60.2695
L56.3540 58.9995
" />
<path d="M56.3540 58.9995
L57.0797 60.2695
" />
<path d="M57.0797 60.2695
L57.0797 58.9995
" />
<path d="M58.6521 60.2695
L58.6521 58.9995
" />
<path d="M58.6521 58.9995
L58.9545 58.9995
" />
<path d="M58.9545 58.9995
L59.1359 59.0600
" />
<path d="M59.1359 59.0600
L59.2569 59.1810
" />
<path d="M59.2569 59.1810
L59.3174 59.3019
" />
<path d="M59.3174 59.3019
L59.3778 59.5438
" />
<path d="M59.3778 59.5438
L59.3778 59.7252
" />
<path d="M59.3778 59.7252
L59.3174 59.9671
" />
<path d="M59.3174 59.9671
L59.2569 60.0881
" />
<path d="M59.2569 60.0881
L59.1359 60.2091
" />
<path d="M59.1359 60.2091
L58.9545 60.2695
" />
<path d="M58.9545 60.2695
L58.6521 60.2695
" />
<path d="M60.4664 60.2695
L60.4664 59.6043
" />
<path d="M60.4664 59.6043
L60.4059 59.4833
" />
<path d="M60.4059 59.4833
L60.2850 59.4229
" />
<path d="M60.2850 59.4229
L60.0431 59.4229
" />
<path d="M60.0431 59.4229
L59.9221 59.4833
" />
<path d="M60.4664 60.2091
L60.3455 60.2695
" />
<path d="M60.3455 60.2695
L60.0431 60.2695
" />
<path d="M60.0431 60.2695
L59.9221 60.2091
" />
<path d="M59.9221 60.2091
L59.8617 60.0881
" />
<path d="M59.8617 60.0881
L59.8617 59.9671
" />
<path d="M59.8617 59.9671
L59.9221 59.8462
" />
<path d="M59.9221 59.8462
L60.0431 59.7857
" />
<path d="M60.0431 59.7857
L60.3455 59.7857
" />
<path d="M60.3455 59.7857
L60.4664 59.7252
" />
<path d="M61.0711 60.2695
L61.0711 59.4229
" />
<path d="M61.0711 59.6648
L61.1316 59.5438
" />
<path d="M61.1316 59.5438
L61.1921 59.4833
" />
<path d="M61.1921 59.4833
L61.3130 59.4229
" />
<path d="M61.3130 59.4229
L61.4340 59.4229
" />
<path d="M62.0388 60.2695
L61.9178 60.2091
" />
<path d="M61.9178 60.2091
L61.8573 60.0881
" />
<path d="M61.8573 60.0881
L61.8573 58.9995
" />
<path d="M62.5225 60.2695
L62.5225 59.4229
" />
<path d="M62.5225 58.9995
L62.4621 59.0600
" />
<path d="M62.4621 59.0600
L62.5225 59.1205
" />
<path d="M62.5225 59.1205
L62.5830 59.0600
" />
<path d="M62.5830 59.0600
L62.5225 58.9995
" />
<path d="M62.5225 58.9995
L62.5225 59.1205
" />
<path d="M63.1273 59.4229
L63.1273 60.2695
" />
<path d="M63.1273 59.5438
L63.1878 59.4833
" />
<path d="M63.1878 59.4833
L63.3088 59.4229
" />
<path d="M63.3088 59.4229
L63.4902 59.4229
" />
<path d="M63.4902 59.4229
L63.6111 59.4833
" />
<path d="M63.6111 59.4833
L63.6716 59.6043
" />
<path d="M63.6716 59.6043
L63.6716 60.2695
" />
<path d="M64.8206 59.4229
L64.8206 60.4510
" />
<path d="M64.8206 60.4510
L64.7601 60.5719
" />
<path d="M64.7601 60.5719
L64.6997 60.6324
" />
<path d="M64.6997 60.6324
L64.5787 60.6929
" />
<path d="M64.5787 60.6929
L64.3973 60.6929
" />
<path d="M64.3973 60.6929
L64.2763 60.6324
" />
<path d="M64.8206 60.2091
L64.6997 60.2695
" />
<path d="M64.6997 60.2695
L64.4578 60.2695
" />
<path d="M64.4578 60.2695
L64.3368 60.2091
" />
<path d="M64.3368 60.2091
L64.2763 60.1486
" />
<path d="M64.2763 60.1486
L64.2159 60.0276
" />
<path d="M64.2159 60.0276
L64.2159 59.6648
" />
<path d="M64.2159 59.6648
L64.2763 59.5438
" />
<path d="M64.2763 59.5438
L64.3368 59.4833
" />
<path d="M64.3368 59.4833
L64.4578 59.4229
" />
<path d="M64.4578 59.4229
L64.6997 59.4229
" />
<path d="M64.6997 59.4229
L64.8206 59.4833
" />
<path d="M65.2439 59.4229
L65.7277 59.4229
" />
<path d="M65.4253 58.9995
L65.4253 60.0881
" />
<path d="M65.4253 60.0881
L65.4858 60.2091
" />
<path d="M65.4858 60.2091
L65.6068 60.2695
" />
<path d="M65.6068 60.2695
L65.7277 60.2695
" />
<path d="M66.3325 60.2695
L66.2115 60.2091
" />
<path d="M66.2115 60.2091
L66.1510 60.1486
" />
<path d="M66.1510 60.1486
L66.0906 60.0276
" />
<path d="M66.0906 60.0276
L66.0906 59.6648
" />
<path d="M66.0906 59.6648
L66.1510 59.5438
" />
<path d="M66.1510 59.5438
L66.2115 59.4833
" />
<path d="M66.2115 59.4833
L66.3325 59.4229
" />
<path d="M66.3325 59.4229
L66.5139 59.4229
" />
<path d="M66.5139 59.4229
L66.6348 59.4833
" />
<path d="M66.6348 59.4833
L66.6953 59.5438
" />
<path d="M66.6953 59.5438
L66.7558 59.6648
" />
<path d="M66.7558 59.6648
L66.7558 60.0276
" />
<path d="M66.7558 60.0276
L66.6953 60.1486
" />
<path d="M66.6953 60.1486
L66.6348 60.2091
" />
<path d="M66.6348 60.2091
L66.5139 60.2695
" />
<path d="M66.5139 60.2695
L66.3325 60.2695
" />
<path d="M67.3000 59.4229
L67.3000 60.2695
" />
<path d="M67.3000 59.5438
L67.3605 59.4833
" />
<path d="M67.3605 59.4833
L67.4815 59.4229
" />
<path d="M67.4815 59.4229
L67.6629 59.4229
" />
<path d="M67.6629 59.4229
L67.7838 59.4833
" />
<path d="M67.7838 59.4833
L67.8443 59.6043
" />
<path d="M67.8443 59.6043
L67.8443 60.2695
" />
</g></g>
</g>
<g style="fill:#006464; fill-opacity:0.0; 
stroke:#006464; stroke-width:0.1524; stroke-opacity:1; 
stroke-linecap:round; stroke-linejoin:round;">
<g >
</g>
<g style="fill:#840000; fill-opacity:0.0; 
stroke:#840000; stroke-width:0.1524; stroke-opacity:1; 
stroke-linecap:round; stroke-linejoin:round;">
<path style="fill:#840000; fill-opacity:0.0; 
stroke:#840000; stroke-width:0.1524; stroke-opacity:1; 
stroke-linecap:round; stroke-linejoin:round;fill:none"
d="M 83.1850,74.2950
85.0900,72.3900
" /> 
<path style="fill:#840000; fill-opacity:0.0; 
stroke:#840000; stroke-width:0.1524; stroke-opacity:1; 
stroke-linecap:round; stroke-linejoin:round;fill:none"
d="M 83.1850,75.5650
85.0900,77.4700
85.0900,77.4700
" /> 
<path style="fill:#840000; fill-opacity:0.0; 
stroke:#840000; stroke-width:0.1524; stroke-opacity:1; 
stroke-linecap:round; stroke-linejoin:round;fill:none"
d="M 83.1850,74.9300
85.0900,73.0250
85.0900,72.3900
" /> 
</g>
<g style="fill:#840000; fill-opacity:0.0; 
stroke:#840000; stroke-width:0.5080; stroke-opacity:1; 
stroke-linecap:round; stroke-linejoin:round;">
<path style="fill:#840000; fill-opacity:0.0; 
stroke:#840000; stroke-width:0.5080; stroke-opacity:1; 
stroke-linecap:round; stroke-linejoin:round;fill:none"
d="M 83.1850,73.0250
83.1850,76.8350
83.1850,76.8350
" /> 
</g>
<g style="fill:#840000; fill-opacity:1.0000; 
stroke:#840000; stroke-width:0.1524; stroke-opacity:1; 
stroke-linecap:round; stroke-linejoin:round;">
<path style="fill:#840000; fill-opacity:1.0000; 
stroke:#840000; stroke-width:0.1524; stroke-opacity:1; 
stroke-linecap:round; stroke-linejoin:round;fill-rule:evenodd;"
d="M 84.8360,76.7080
84.3280,77.2160
83.8200,76.2000
84.8360,76.7080
Z" /> 
</g>
<g style="fill:#840000; fill-opacity:0.0; 
stroke:#840000; stroke-width:0.2540; stroke-opacity:1; 
stroke-linecap:round; stroke-linejoin:round;">
<circle cx="83.8200" cy="74.9300" r="2.8194" /> 
</g>
<g style="fill:#840000; fill-opacity:0.0; 
stroke:#840000; stroke-width:0.1524; stroke-opacity:1; 
stroke-linecap:round; stroke-linejoin:round;">
<path d="M85.0900 72.3900
L85.0900 69.8500
" />
</g>
<g style="fill:#006464; fill-opacity:0.0; 
stroke:#006464; stroke-width:0.1524; stroke-opacity:1; 
stroke-linecap:round; stroke-linejoin:round;">
<g transform="rotate(-90.000000 84.8360 71.1200)">
<text x="84.8360" y="71.1200"
textLength="1.4732" font-size="1.6933" lengthAdjust="spacingAndGlyphs"
text-anchor="middle" opacity="0">C</text>
</g>
<g class="stroked-text"><desc>C</desc>
<path d="M84.5516 70.7269
L84.6121 70.7873
" />
<path d="M84.6121 70.7873
L84.6725 70.9688
" />
<path d="M84.6725 70.9688
L84.6725 71.0897
" />
<path d="M84.6725 71.0897
L84.6121 71.2711
" />
<path d="M84.6121 71.2711
L84.4911 71.3921
" />
<path d="M84.4911 71.3921
L84.3701 71.4526
" />
<path d="M84.3701 71.4526
L84.1282 71.5130
" />
<path d="M84.1282 71.5130
L83.9468 71.5130
" />
<path d="M83.9468 71.5130
L83.7049 71.4526
" />
<path d="M83.7049 71.4526
L83.5840 71.3921
" />
<path d="M83.5840 71.3921
L83.4630 71.2711
" />
<path d="M83.4630 71.2711
L83.4025 71.0897
" />
<path d="M83.4025 71.0897
L83.4025 70.9688
" />
<path d="M83.4025 70.9688
L83.4630 70.7873
" />
<path d="M83.4630 70.7873
L83.5235 70.7269
" />
</g></g>
<g style="fill:#840000; fill-opacity:0.0; 
stroke:#840000; stroke-width:0.1524; stroke-opacity:1; 
stroke-linecap:round; stroke-linejoin:round;">
<path d="M85.0900 77.4700
L85.0900 80.0100
" />
</g>
<g style="fill:#006464; fill-opacity:0.0; 
stroke:#006464; stroke-width:0.1524; stroke-opacity:1; 
stroke-linecap:round; stroke-linejoin:round;">
<g transform="rotate(-90.000000 84.8360 78.7400)">
<text x="84.8360" y="78.7400"
textLength="1.3522" font-size="1.6933" lengthAdjust="spacingAndGlyphs"
text-anchor="middle" opacity="0">E</text>
</g>
<g class="stroked-text"><desc>E</desc>
<path d="M84.0073 79.0121
L84.0073 78.5887
" />
<path d="M84.6725 78.4073
L84.6725 79.0121
" />
<path d="M84.6725 79.0121
L83.4025 79.0121
" />
<path d="M83.4025 79.0121
L83.4025 78.4073
" />
</g></g>
<g style="fill:#840000; fill-opacity:0.0; 
stroke:#840000; stroke-width:0.1524; stroke-opacity:1; 
stroke-linecap:round; stroke-linejoin:round;">
<path d="M83.1850 74.9300
L77.4700 74.9300
" />
</g>
<g style="fill:#006464; fill-opacity:0.0; 
stroke:#006464; stroke-width:0.1524; stroke-opacity:1; 
stroke-linecap:round; stroke-linejoin:round;">
<text x="80.3275" y="74.6760"
textLength="1.4732" font-size="1.6933" lengthAdjust="spacingAndGlyphs"
text-anchor="middle" opacity="0">B</text>
<g class="stroked-text"><desc>B</desc>
<path d="M80.4182 73.8473
L80.5996 73.9078
" />
<path d="M80.5996 73.9078
L80.6601 73.9682
" />
<path d="M80.6601 73.9682
L80.7205 74.0892
" />
<path d="M80.7205 74.0892
L80.7205 74.2706
" />
<path d="M80.7205 74.2706
L80.6601 74.3916
" />
<path d="M80.6601 74.3916
L80.5996 74.4521
" />
<path d="M80.5996 74.4521
L80.4786 74.5125
" />
<path d="M80.4786 74.5125
L79.9948 74.5125
" />
<path d="M79.9948 74.5125
L79.9948 73.2425
" />
<path d="M79.9948 73.2425
L80.4182 73.2425
" />
<path d="M80.4182 73.2425
L80.5391 73.3030
" />
<path d="M80.5391 73.3030
L80.5996 73.3635
" />
<path d="M80.5996 73.3635
L80.6601 73.4844
" />
<path d="M80.6601 73.4844
L80.6601 73.6054
" />
<path d="M80.6601 73.6054
L80.5996 73.7263
" />
<path d="M80.5996 73.7263
L80.5391 73.7868
" />
<path d="M80.5391 73.7868
L80.4182 73.8473
" />
<path d="M80.4182 73.8473
L79.9948 73.8473
" />
</g><text x="89.0112" y="74.2950"
textLength="2.7432" font-size="1.6933" lengthAdjust="spacingAndGlyphs"
text-anchor="middle" opacity="0">Q4</text>
<g class="stroked-text"><desc>Q4</desc>
<path d="M88.8902 74.3605
L88.7692 74.3000
" />
<path d="M88.7692 74.3000
L88.6483 74.1791
" />
<path d="M88.6483 74.1791
L88.4669 73.9976
" />
<path d="M88.4669 73.9976
L88.3459 73.9371
" />
<path d="M88.3459 73.9371
L88.2250 73.9371
" />
<path d="M88.2854 74.2395
L88.1645 74.1791
" />
<path d="M88.1645 74.1791
L88.0435 74.0581
" />
<path d="M88.0435 74.0581
L87.9831 73.8162
" />
<path d="M87.9831 73.8162
L87.9831 73.3929
" />
<path d="M87.9831 73.3929
L88.0435 73.1510
" />
<path d="M88.0435 73.1510
L88.1645 73.0300
" />
<path d="M88.1645 73.0300
L88.2854 72.9695
" />
<path d="M88.2854 72.9695
L88.5273 72.9695
" />
<path d="M88.5273 72.9695
L88.6483 73.0300
" />
<path d="M88.6483 73.0300
L88.7692 73.1510
" />
<path d="M88.7692 73.1510
L88.8297 73.3929
" />
<path d="M88.8297 73.3929
L88.8297 73.8162
" />
<path d="M88.8297 73.8162
L88.7692 74.0581
" />
<path d="M88.7692 74.0581
L88.6483 74.1791
" />
<path d="M88.6483 74.1791
L88.5273 74.2395
" />
<path d="M88.5273 74.2395
L88.2854 74.2395
" />
<path d="M89.9183 73.3929
L89.9183 74.2395
" />
<path d="M89.6159 72.9091
L89.3136 73.8162
" />
<path d="M89.3136 73.8162
L90.0997 73.8162
" />
</g><text x="98.3546" y="76.8350"
textLength="21.4301" font-size="1.6933" lengthAdjust="spacingAndGlyphs"
text-anchor="middle" opacity="0">PNP Power Darlington</text>
<g class="stroked-text"><desc>PNP Power Darlington</desc>
<path d="M88.0435 76.7795
L88.0435 75.5095
" />
<path d="M88.0435 75.5095
L88.5273 75.5095
" />
<path d="M88.5273 75.5095
L88.6483 75.5700
" />
<path d="M88.6483 75.5700
L88.7088 75.6305
" />
<path d="M88.7088 75.6305
L88.7692 75.7514
" />
<path d="M88.7692 75.7514
L88.7692 75.9329
" />
<path d="M88.7692 75.9329
L88.7088 76.0538
" />
<path d="M88.7088 76.0538
L88.6483 76.1143
" />
<path d="M88.6483 76.1143
L88.5273 76.1748
" />
<path d="M88.5273 76.1748
L88.0435 76.1748
" />
<path d="M89.3135 76.7795
L89.3135 75.5095
" />
<path d="M89.3135 75.5095
L90.0392 76.7795
" />
<path d="M90.0392 76.7795
L90.0392 75.5095
" />
<path d="M90.6440 76.7795
L90.6440 75.5095
" />
<path d="M90.6440 75.5095
L91.1278 75.5095
" />
<path d="M91.1278 75.5095
L91.2488 75.5700
" />
<path d="M91.2488 75.5700
L91.3093 75.6305
" />
<path d="M91.3093 75.6305
L91.3697 75.7514
" />
<path d="M91.3697 75.7514
L91.3697 75.9329
" />
<path d="M91.3697 75.9329
L91.3093 76.0538
" />
<path d="M91.3093 76.0538
L91.2488 76.1143
" />
<path d="M91.2488 76.1143
L91.1278 76.1748
" />
<path d="M91.1278 76.1748
L90.6440 76.1748
" />
<path d="M92.8816 76.7795
L92.8816 75.5095
" />
<path d="M92.8816 75.5095
L93.3654 75.5095
" />
<path d="M93.3654 75.5095
L93.4864 75.5700
" />
<path d="M93.4864 75.5700
L93.5469 75.6305
" />
<path d="M93.5469 75.6305
L93.6073 75.7514
" />
<path d="M93.6073 75.7514
L93.6073 75.9329
" />
<path d="M93.6073 75.9329
L93.5469 76.0538
" />
<path d="M93.5469 76.0538
L93.4864 76.1143
" />
<path d="M93.4864 76.1143
L93.3654 76.1748
" />
<path d="M93.3654 76.1748
L92.8816 76.1748
" />
<path d="M94.3331 76.7795
L94.2121 76.7191
" />
<path d="M94.2121 76.7191
L94.1516 76.6586
" />
<path d="M94.1516 76.6586
L94.0912 76.5376
" />
<path d="M94.0912 76.5376
L94.0912 76.1748
" />
<path d="M94.0912 76.1748
L94.1516 76.0538
" />
<path d="M94.1516 76.0538
L94.2121 75.9933
" />
<path d="M94.2121 75.9933
L94.3331 75.9329
" />
<path d="M94.3331 75.9329
L94.5145 75.9329
" />
<path d="M94.5145 75.9329
L94.6354 75.9933
" />
<path d="M94.6354 75.9933
L94.6959 76.0538
" />
<path d="M94.6959 76.0538
L94.7564 76.1748
" />
<path d="M94.7564 76.1748
L94.7564 76.5376
" />
<path d="M94.7564 76.5376
L94.6959 76.6586
" />
<path d="M94.6959 76.6586
L94.6354 76.7191
" />
<path d="M94.6354 76.7191
L94.5145 76.7795
" />
<path d="M94.5145 76.7795
L94.3331 76.7795
" />
<path d="M95.1797 75.9329
L95.4216 76.7795
" />
<path d="M95.4216 76.7795
L95.6635 76.1748
" />
<path d="M95.6635 76.1748
L95.9054 76.7795
" />
<path d="M95.9054 76.7795
L96.1473 75.9329
" />
<path d="M97.1149 76.7191
L96.9940 76.7795
" />
<path d="M96.9940 76.7795
L96.7521 76.7795
" />
<path d="M96.7521 76.7795
L96.6311 76.7191
" />
<path d="M96.6311 76.7191
L96.5707 76.5981
" />
<path d="M96.5707 76.5981
L96.5707 76.1143
" />
<path d="M96.5707 76.1143
L96.6311 75.9933
" />
<path d="M96.6311 75.9933
L96.7521 75.9329
" />
<path d="M96.7521 75.9329
L96.9940 75.9329
" />
<path d="M96.9940 75.9329
L97.1149 75.9933
" />
<path d="M97.1149 75.9933
L97.1754 76.1143
" />
<path d="M97.1754 76.1143
L97.1754 76.2352
" />
<path d="M97.1754 76.2352
L96.5707 76.3562
" />
<path d="M97.7197 76.7795
L97.7197 75.9329
" />
<path d="M97.7197 76.1748
L97.7802 76.0538
" />
<path d="M97.7802 76.0538
L97.8407 75.9933
" />
<path d="M97.8407 75.9933
L97.9616 75.9329
" />
<path d="M97.9616 75.9329
L98.0826 75.9329
" />
<path d="M99.4735 76.7795
L99.4735 75.5095
" />
<path d="M99.4735 75.5095
L99.7759 75.5095
" />
<path d="M99.7759 75.5095
L99.9573 75.5700
" />
<path d="M99.9573 75.5700
L100.0783 75.6910
" />
<path d="M100.0783 75.6910
L100.1388 75.8119
" />
<path d="M100.1388 75.8119
L100.1992 76.0538
" />
<path d="M100.1992 76.0538
L100.1992 76.2352
" />
<path d="M100.1992 76.2352
L100.1388 76.4771
" />
<path d="M100.1388 76.4771
L100.0783 76.5981
" />
<path d="M100.0783 76.5981
L99.9573 76.7191
" />
<path d="M99.9573 76.7191
L99.7759 76.7795
" />
<path d="M99.7759 76.7795
L99.4735 76.7795
" />
<path d="M101.2878 76.7795
L101.2878 76.1143
" />
<path d="M101.2878 76.1143
L101.2273 75.9933
" />
<path d="M101.2273 75.9933
L101.1064 75.9329
" />
<path d="M101.1064 75.9329
L100.8645 75.9329
" />
<path d="M100.8645 75.9329
L100.7435 75.9933
" />
<path d="M101.2878 76.7191
L101.1669 76.7795
" />
<path d="M101.1669 76.7795
L100.8645 76.7795
" />
<path d="M100.8645 76.7795
L100.7435 76.7191
" />
<path d="M100.7435 76.7191
L100.6831 76.5981
" />
<path d="M100.6831 76.5981
L100.6831 76.4771
" />
<path d="M100.6831 76.4771
L100.7435 76.3562
" />
<path d="M100.7435 76.3562
L100.8645 76.2957
" />
<path d="M100.8645 76.2957
L101.1669 76.2957
" />
<path d="M101.1669 76.2957
L101.2878 76.2352
" />
<path d="M101.8925 76.7795
L101.8925 75.9329
" />
<path d="M101.8925 76.1748
L101.9530 76.0538
" />
<path d="M101.9530 76.0538
L102.0135 75.9933
" />
<path d="M102.0135 75.9933
L102.1344 75.9329
" />
<path d="M102.1344 75.9329
L102.2554 75.9329
" />
<path d="M102.8602 76.7795
L102.7392 76.7191
" />
<path d="M102.7392 76.7191
L102.6787 76.5981
" />
<path d="M102.6787 76.5981
L102.6787 75.5095
" />
<path d="M103.3439 76.7795
L103.3439 75.9329
" />
<path d="M103.3439 75.5095
L103.2835 75.5700
" />
<path d="M103.2835 75.5700
L103.3439 75.6305
" />
<path d="M103.3439 75.6305
L103.4044 75.5700
" />
<path d="M103.4044 75.5700
L103.3439 75.5095
" />
<path d="M103.3439 75.5095
L103.3439 75.6305
" />
<path d="M103.9487 75.9329
L103.9487 76.7795
" />
<path d="M103.9487 76.0538
L104.0092 75.9933
" />
<path d="M104.0092 75.9933
L104.1302 75.9329
" />
<path d="M104.1302 75.9329
L104.3116 75.9329
" />
<path d="M104.3116 75.9329
L104.4325 75.9933
" />
<path d="M104.4325 75.9933
L104.4930 76.1143
" />
<path d="M104.4930 76.1143
L104.4930 76.7795
" />
<path d="M105.6420 75.9329
L105.6420 76.9610
" />
<path d="M105.6420 76.9610
L105.5815 77.0819
" />
<path d="M105.5815 77.0819
L105.5211 77.1424
" />
<path d="M105.5211 77.1424
L105.4001 77.2029
" />
<path d="M105.4001 77.2029
L105.2187 77.2029
" />
<path d="M105.2187 77.2029
L105.0977 77.1424
" />
<path d="M105.6420 76.7191
L105.5211 76.7795
" />
<path d="M105.5211 76.7795
L105.2792 76.7795
" />
<path d="M105.2792 76.7795
L105.1582 76.7191
" />
<path d="M105.1582 76.7191
L105.0977 76.6586
" />
<path d="M105.0977 76.6586
L105.0373 76.5376
" />
<path d="M105.0373 76.5376
L105.0373 76.1748
" />
<path d="M105.0373 76.1748
L105.0977 76.0538
" />
<path d="M105.0977 76.0538
L105.1582 75.9933
" />
<path d="M105.1582 75.9933
L105.2792 75.9329
" />
<path d="M105.2792 75.9329
L105.5211 75.9329
" />
<path d="M105.5211 75.9329
L105.6420 75.9933
" />
<path d="M106.0653 75.9329
L106.5491 75.9329
" />
<path d="M106.2467 75.5095
L106.2467 76.5981
" />
<path d="M106.2467 76.5981
L106.3072 76.7191
" />
<path d="M106.3072 76.7191
L106.4282 76.7795
" />
<path d="M106.4282 76.7795
L106.5491 76.7795
" />
<path d="M107.1539 76.7795
L107.0329 76.7191
" />
<path d="M107.0329 76.7191
L106.9724 76.6586
" />
<path d="M106.9724 76.6586
L106.9120 76.5376
" />
<path d="M106.9120 76.5376
L106.9120 76.1748
" />
<path d="M106.9120 76.1748
L106.9724 76.0538
" />
<path d="M106.9724 76.0538
L107.0329 75.9933
" />
<path d="M107.0329 75.9933
L107.1539 75.9329
" />
<path d="M107.1539 75.9329
L107.3353 75.9329
" />
<path d="M107.3353 75.9329
L107.4562 75.9933
" />
<path d="M107.4562 75.9933
L107.5167 76.0538
" />
<path d="M107.5167 76.0538
L107.5772 76.1748
" />
<path d="M107.5772 76.1748
L107.5772 76.5376
" />
<path d="M107.5772 76.5376
L107.5167 76.6586
" />
<path d="M107.5167 76.6586
L107.4562 76.7191
" />
<path d="M107.4562 76.7191
L107.3353 76.7795
" />
<path d="M107.3353 76.7795
L107.1539 76.7795
" />
<path d="M108.1214 75.9329
L108.1214 76.7795
" />
<path d="M108.1214 76.0538
L108.1819 75.9933
" />
<path d="M108.1819 75.9933
L108.3029 75.9329
" />
<path d="M108.3029 75.9329
L108.4843 75.9329
" />
<path d="M108.4843 75.9329
L108.6052 75.9933
" />
<path d="M108.6052 75.9933
L108.6657 76.1143
" />
<path d="M108.6657 76.1143
L108.6657 76.7795
" />
</g></g>
</g>
<g style="fill:#006464; fill-opacity:0.0; 
stroke:#006464; stroke-width:0.1524; stroke-opacity:1; 
stroke-linecap:round; stroke-linejoin:round;">
<g >
</g>
<g style="fill:#840000; fill-opacity:0.0; 
stroke:#840000; stroke-width:0.1524; stroke-opacity:1; 
stroke-linecap:round; stroke-linejoin:round;">
<circle cx="47.4980" cy="74.9300" r="0.1270" /> 
<path style="fill:#840000; fill-opacity:0.0; 
stroke:#840000; stroke-width:0.1524; stroke-opacity:1; 
stroke-linecap:round; stroke-linejoin:round;fill:none"
d="M 46.9900,74.9300
47.3710,74.9300
" /> 
<path style="fill:#840000; fill-opacity:0.0; 
stroke:#840000; stroke-width:0.1524; stroke-opacity:1; 
stroke-linecap:round; stroke-linejoin:round;fill:none"
d="M 50.8000,76.9620
50.8000,77.4700
" /> 
<path style="fill:#840000; fill-opacity:0.0; 
stroke:#840000; stroke-width:0.1524; stroke-opacity:1; 
stroke-linecap:round; stroke-linejoin:round;fill:none"
d="M 50.8000,76.4540
51.4350,76.4540
" /> 
<path style="fill:#840000; fill-opacity:0.0; 
stroke:#840000; stroke-width:0.1524; stroke-opacity:1; 
stroke-linecap:round; stroke-linejoin:round;fill:none"
d="M 51.0540,74.8030
51.8160,74.8030
" /> 
<path style="fill:#840000; fill-opacity:0.0; 
stroke:#840000; stroke-width:0.1524; stroke-opacity:1; 
stroke-linecap:round; stroke-linejoin:round;fill:none"
d="M 51.4350,75.5650
51.4350,76.4540
" /> 
<path style="fill:#840000; fill-opacity:0.0; 
stroke:#840000; stroke-width:0.1524; stroke-opacity:1; 
stroke-linecap:round; stroke-linejoin:round;fill:none"
d="M 51.4350,73.9140
50.8000,73.9140
" /> 
<path style="fill:#840000; fill-opacity:0.0; 
stroke:#840000; stroke-width:0.1524; stroke-opacity:1; 
stroke-linecap:round; stroke-linejoin:round;fill:none"
d="M 51.4350,73.9140
51.4350,74.8030
" /> 
<path style="fill:#840000; fill-opacity:0.0; 
stroke:#840000; stroke-width:0.1524; stroke-opacity:1; 
stroke-linecap:round; stroke-linejoin:round;fill:none"
d="M 48.0060,74.1680
49.0220,75.1840
49.5300,75.1840
" /> 
<path style="fill:#840000; fill-opacity:0.0; 
stroke:#840000; stroke-width:0.1524; stroke-opacity:1; 
stroke-linecap:round; stroke-linejoin:round;fill:none"
d="M 48.0060,73.9140
47.4980,73.9140
47.4980,76.9620
" /> 
<path style="fill:#840000; fill-opacity:0.0; 
stroke:#840000; stroke-width:0.1524; stroke-opacity:1; 
stroke-linecap:round; stroke-linejoin:round;fill:none"
d="M 48.0060,73.6600
49.0220,72.6440
50.8000,72.6440
" /> 
</g>
<g style="fill:#840000; fill-opacity:0.0; 
stroke:#840000; stroke-width:0.3048; stroke-opacity:1; 
stroke-linecap:round; stroke-linejoin:round;">
<path style="fill:#840000; fill-opacity:0.0; 
stroke:#840000; stroke-width:0.3048; stroke-opacity:1; 
stroke-linecap:round; stroke-linejoin:round;fill:none"
d="M 48.0060,72.8980
48.0060,74.9300
48.0060,74.9300
" /> 
</g>
<g style="fill:#840000; fill-opacity:0.0; 
stroke:#840000; stroke-width:0.3810; stroke-opacity:1; 
stroke-linecap:round; stroke-linejoin:round;">
<path style="fill:#840000; fill-opacity:0.0; 
stroke:#840000; stroke-width:0.3810; stroke-opacity:1; 
stroke-linecap:round; stroke-linejoin:round;fill:none"
d="M 49.5300,74.1680
49.5300,76.2000
49.5300,76.2000
" /> 
</g>
<g style="fill:#840000; fill-opacity:0.0; 
stroke:#840000; stroke-width:0.1524; stroke-opacity:1; 
stroke-linecap:round; stroke-linejoin:round;">
<path style="fill:#840000; fill-opacity:0.0; 
stroke:#840000; stroke-width:0.1524; stroke-opacity:1; 
stroke-linecap:round; stroke-linejoin:round;fill:none"
d="M 48.8950,75.0570
48.6410,74.5490
48.3870,74.8030
Z" /> 
<path style="fill:#840000; fill-opacity:0.0; 
stroke:#840000; stroke-width:0.1524; stroke-opacity:1; 
stroke-linecap:round; stroke-linejoin:round;fill:none"
d="M 49.5300,75.4380
50.5460,76.4540
50.8000,76.4540
50.8000,76.9620
" /> 
<path style="fill:#840000; fill-opacity:0.0; 
stroke:#840000; stroke-width:0.1524; stroke-opacity:1; 
stroke-linecap:round; stroke-linejoin:round;fill:none"
d="M 49.5300,74.9300
50.5460,73.9140
50.8000,73.9140
50.8000,72.6440
" /> 
<path style="fill:#840000; fill-opacity:0.0; 
stroke:#840000; stroke-width:0.1524; stroke-opacity:1; 
stroke-linecap:round; stroke-linejoin:round;fill:none"
d="M 50.4190,76.3270
50.1650,75.8190
49.9110,76.0730
Z" /> 
</g>
<g style="fill:#840000; fill-opacity:1.0000; 
stroke:#840000; stroke-width:0.1524; stroke-opacity:1; 
stroke-linecap:round; stroke-linejoin:round;">
<path style="fill:#840000; fill-opacity:1.0000; 
stroke:#840000; stroke-width:0.1524; stroke-opacity:1; 
stroke-linecap:round; stroke-linejoin:round;fill-rule:evenodd;"
d="M 51.4350,74.8030
51.0540,75.5650
51.8160,75.5650
Z" /> 
</g>
<g style="fill:#840000; fill-opacity:0.0; 
stroke:#840000; stroke-width:0.1524; stroke-opacity:1; 
stroke-linecap:round; stroke-linejoin:round;">
<path style="fill:#840000; fill-opacity:0.0; 
stroke:#840000; stroke-width:0.1524; stroke-opacity:1; 
stroke-linecap:round; stroke-linejoin:round;fill:none"
d="M 49.0220,76.9620
48.6410,76.9620
48.5140,77.2160
48.3870,76.7080
48.2600,77.2160
48.1330,76.7080
48.0060,77.2160
47.8790,76.7080
47.7520,76.9620
47.4980,76.9620
" /> 
<path style="fill:#840000; fill-opacity:0.0; 
stroke:#840000; stroke-width:0.1524; stroke-opacity:1; 
stroke-linecap:round; stroke-linejoin:round;fill:none"
d="M 49.0220,75.1840
49.0220,76.9620
49.4030,76.9620
49.5300,76.7080
49.6570,77.2160
49.7840,76.7080
49.9110,77.2160
50.0380,76.7080
50.1650,77.2160
50.2920,76.9620
50.8000,76.9620
" /> 
<circle cx="49.0220" cy="76.9620" r="0.1270" /> 
<circle cx="49.0220" cy="75.1840" r="0.1270" /> 
</g>
<g style="fill:#840000; fill-opacity:0.0; 
stroke:#840000; stroke-width:0.3556; stroke-opacity:1; 
stroke-linecap:round; stroke-linejoin:round;">
<circle cx="49.5300" cy="74.9300" r="3.1750" /> 
</g>
<g style="fill:#840000; fill-opacity:0.0; 
stroke:#840000; stroke-width:0.1524; stroke-opacity:1; 
stroke-linecap:round; stroke-linejoin:round;">
<circle cx="50.8000" cy="76.9620" r="0.1270" /> 
<circle cx="50.8000" cy="76.4540" r="0.1270" /> 
<circle cx="50.8000" cy="73.9140" r="0.1270" /> 
<circle cx="50.8000" cy="72.6440" r="0.1270" /> 
<path d="M46.9900 74.9300
L43.1800 74.9300
" />
</g>
<g style="fill:#006464; fill-opacity:0.0; 
stroke:#006464; stroke-width:0.1524; stroke-opacity:1; 
stroke-linecap:round; stroke-linejoin:round;">
<text x="45.0850" y="74.6760"
textLength="1.4732" font-size="1.6933" lengthAdjust="spacingAndGlyphs"
text-anchor="middle" opacity="0">B</text>
<g class="stroked-text"><desc>B</desc>
<path d="M45.1757 73.8473
L45.3571 73.9078
" />
<path d="M45.3571 73.9078
L45.4176 73.9682
" />
<path d="M45.4176 73.9682
L45.4780 74.0892
" />
<path d="M45.4780 74.0892
L45.4780 74.2706
" />
<path d="M45.4780 74.2706
L45.4176 74.3916
" />
<path d="M45.4176 74.3916
L45.3571 74.4521
" />
<path d="M45.3571 74.4521
L45.2361 74.5125
" />
<path d="M45.2361 74.5125
L44.7523 74.5125
" />
<path d="M44.7523 74.5125
L44.7523 73.2425
" />
<path d="M44.7523 73.2425
L45.1757 73.2425
" />
<path d="M45.1757 73.2425
L45.2966 73.3030
" />
<path d="M45.2966 73.3030
L45.3571 73.3635
" />
<path d="M45.3571 73.3635
L45.4176 73.4844
" />
<path d="M45.4176 73.4844
L45.4176 73.6054
" />
<path d="M45.4176 73.6054
L45.3571 73.7263
" />
<path d="M45.3571 73.7263
L45.2966 73.7868
" />
<path d="M45.2966 73.7868
L45.1757 73.8473
" />
<path d="M45.1757 73.8473
L44.7523 73.8473
" />
</g></g>
<g style="fill:#840000; fill-opacity:0.0; 
stroke:#840000; stroke-width:0.1524; stroke-opacity:1; 
stroke-linecap:round; stroke-linejoin:round;">
<path d="M50.8000 72.5170
L50.8000 69.8500
" />
</g>
<g style="fill:#006464; fill-opacity:0.0; 
stroke:#006464; stroke-width:0.1524; stroke-opacity:1; 
stroke-linecap:round; stroke-linejoin:round;">
<g transform="rotate(-90.000000 50.5460 71.1835)">
<text x="50.5460" y="71.1835"
textLength="1.4732" font-size="1.6933" lengthAdjust="spacingAndGlyphs"
text-anchor="middle" opacity="0">C</text>
</g>
<g class="stroked-text"><desc>C</desc>
<path d="M50.2616 70.7904
L50.3221 70.8508
" />
<path d="M50.3221 70.8508
L50.3825 71.0323
" />
<path d="M50.3825 71.0323
L50.3825 71.1532
" />
<path d="M50.3825 71.1532
L50.3221 71.3346
" />
<path d="M50.3221 71.3346
L50.2011 71.4556
" />
<path d="M50.2011 71.4556
L50.0801 71.5161
" />
<path d="M50.0801 71.5161
L49.8382 71.5765
" />
<path d="M49.8382 71.5765
L49.6568 71.5765
" />
<path d="M49.6568 71.5765
L49.4149 71.5161
" />
<path d="M49.4149 71.5161
L49.2940 71.4556
" />
<path d="M49.2940 71.4556
L49.1730 71.3346
" />
<path d="M49.1730 71.3346
L49.1125 71.1532
" />
<path d="M49.1125 71.1532
L49.1125 71.0323
" />
<path d="M49.1125 71.0323
L49.1730 70.8508
" />
<path d="M49.1730 70.8508
L49.2335 70.7904
" />
</g></g>
<g style="fill:#840000; fill-opacity:0.0; 
stroke:#840000; stroke-width:0.1524; stroke-opacity:1; 
stroke-linecap:round; stroke-linejoin:round;">
<path d="M50.8000 77.4700
L50.8000 80.0100
" />
</g>
<g style="fill:#006464; fill-opacity:0.0; 
stroke:#006464; stroke-width:0.1524; stroke-opacity:1; 
stroke-linecap:round; stroke-linejoin:round;">
<g transform="rotate(-90.000000 50.5460 78.7400)">
<text x="50.5460" y="78.7400"
textLength="1.3522" font-size="1.6933" lengthAdjust="spacingAndGlyphs"
text-anchor="middle" opacity="0">E</text>
</g>
<g class="stroked-text"><desc>E</desc>
<path d="M49.7173 79.0121
L49.7173 78.5887
" />
<path d="M50.3825 78.4073
L50.3825 79.0121
" />
<path d="M50.3825 79.0121
L49.1125 79.0121
" />
<path d="M49.1125 79.0121
L49.1125 78.4073
" />
</g><text x="55.9912" y="74.2950"
textLength="2.7432" font-size="1.6933" lengthAdjust="spacingAndGlyphs"
text-anchor="middle" opacity="0">Q3</text>
<g class="stroked-text"><desc>Q3</desc>
<path d="M55.8702 74.3605
L55.7492 74.3000
" />
<path d="M55.7492 74.3000
L55.6283 74.1791
" />
<path d="M55.6283 74.1791
L55.4469 73.9976
" />
<path d="M55.4469 73.9976
L55.3259 73.9371
" />
<path d="M55.3259 73.9371
L55.2050 73.9371
" />
<path d="M55.2654 74.2395
L55.1445 74.1791
" />
<path d="M55.1445 74.1791
L55.0235 74.0581
" />
<path d="M55.0235 74.0581
L54.9631 73.8162
" />
<path d="M54.9631 73.8162
L54.9631 73.3929
" />
<path d="M54.9631 73.3929
L55.0235 73.1510
" />
<path d="M55.0235 73.1510
L55.1445 73.0300
" />
<path d="M55.1445 73.0300
L55.2654 72.9695
" />
<path d="M55.2654 72.9695
L55.5073 72.9695
" />
<path d="M55.5073 72.9695
L55.6283 73.0300
" />
<path d="M55.6283 73.0300
L55.7492 73.1510
" />
<path d="M55.7492 73.1510
L55.8097 73.3929
" />
<path d="M55.8097 73.3929
L55.8097 73.8162
" />
<path d="M55.8097 73.8162
L55.7492 74.0581
" />
<path d="M55.7492 74.0581
L55.6283 74.1791
" />
<path d="M55.6283 74.1791
L55.5073 74.2395
" />
<path d="M55.5073 74.2395
L55.2654 74.2395
" />
<path d="M56.2331 72.9695
L57.0193 72.9695
" />
<path d="M57.0193 72.9695
L56.5959 73.4533
" />
<path d="M56.5959 73.4533
L56.7774 73.4533
" />
<path d="M56.7774 73.4533
L56.8983 73.5138
" />
<path d="M56.8983 73.5138
L56.9588 73.5743
" />
<path d="M56.9588 73.5743
L57.0193 73.6952
" />
<path d="M57.0193 73.6952
L57.0193 73.9976
" />
<path d="M57.0193 73.9976
L56.9588 74.1186
" />
<path d="M56.9588 74.1186
L56.8983 74.1791
" />
<path d="M56.8983 74.1791
L56.7774 74.2395
" />
<path d="M56.7774 74.2395
L56.4145 74.2395
" />
<path d="M56.4145 74.2395
L56.2936 74.1791
" />
<path d="M56.2936 74.1791
L56.2331 74.1186
" />
</g><text x="65.3649" y="76.8350"
textLength="21.4906" font-size="1.6933" lengthAdjust="spacingAndGlyphs"
text-anchor="middle" opacity="0">NPN Power Darlington</text>
<g class="stroked-text"><desc>NPN Power Darlington</desc>
<path d="M55.0235 76.7795
L55.0235 75.5095
" />
<path d="M55.0235 75.5095
L55.7492 76.7795
" />
<path d="M55.7492 76.7795
L55.7492 75.5095
" />
<path d="M56.3540 76.7795
L56.3540 75.5095
" />
<path d="M56.3540 75.5095
L56.8378 75.5095
" />
<path d="M56.8378 75.5095
L56.9588 75.5700
" />
<path d="M56.9588 75.5700
L57.0193 75.6305
" />
<path d="M57.0193 75.6305
L57.0797 75.7514
" />
<path d="M57.0797 75.7514
L57.0797 75.9329
" />
<path d="M57.0797 75.9329
L57.0193 76.0538
" />
<path d="M57.0193 76.0538
L56.9588 76.1143
" />
<path d="M56.9588 76.1143
L56.8378 76.1748
" />
<path d="M56.8378 76.1748
L56.3540 76.1748
" />
<path d="M57.6240 76.7795
L57.6240 75.5095
" />
<path d="M57.6240 75.5095
L58.3497 76.7795
" />
<path d="M58.3497 76.7795
L58.3497 75.5095
" />
<path d="M59.9221 76.7795
L59.9221 75.5095
" />
<path d="M59.9221 75.5095
L60.4059 75.5095
" />
<path d="M60.4059 75.5095
L60.5269 75.5700
" />
<path d="M60.5269 75.5700
L60.5874 75.6305
" />
<path d="M60.5874 75.6305
L60.6478 75.7514
" />
<path d="M60.6478 75.7514
L60.6478 75.9329
" />
<path d="M60.6478 75.9329
L60.5874 76.0538
" />
<path d="M60.5874 76.0538
L60.5269 76.1143
" />
<path d="M60.5269 76.1143
L60.4059 76.1748
" />
<path d="M60.4059 76.1748
L59.9221 76.1748
" />
<path d="M61.3736 76.7795
L61.2526 76.7191
" />
<path d="M61.2526 76.7191
L61.1921 76.6586
" />
<path d="M61.1921 76.6586
L61.1317 76.5376
" />
<path d="M61.1317 76.5376
L61.1317 76.1748
" />
<path d="M61.1317 76.1748
L61.1921 76.0538
" />
<path d="M61.1921 76.0538
L61.2526 75.9933
" />
<path d="M61.2526 75.9933
L61.3736 75.9329
" />
<path d="M61.3736 75.9329
L61.5550 75.9329
" />
<path d="M61.5550 75.9329
L61.6759 75.9933
" />
<path d="M61.6759 75.9933
L61.7364 76.0538
" />
<path d="M61.7364 76.0538
L61.7969 76.1748
" />
<path d="M61.7969 76.1748
L61.7969 76.5376
" />
<path d="M61.7969 76.5376
L61.7364 76.6586
" />
<path d="M61.7364 76.6586
L61.6759 76.7191
" />
<path d="M61.6759 76.7191
L61.5550 76.7795
" />
<path d="M61.5550 76.7795
L61.3736 76.7795
" />
<path d="M62.2202 75.9329
L62.4621 76.7795
" />
<path d="M62.4621 76.7795
L62.7040 76.1748
" />
<path d="M62.7040 76.1748
L62.9459 76.7795
" />
<path d="M62.9459 76.7795
L63.1878 75.9329
" />
<path d="M64.1554 76.7191
L64.0345 76.7795
" />
<path d="M64.0345 76.7795
L63.7926 76.7795
" />
<path d="M63.7926 76.7795
L63.6716 76.7191
" />
<path d="M63.6716 76.7191
L63.6112 76.5981
" />
<path d="M63.6112 76.5981
L63.6112 76.1143
" />
<path d="M63.6112 76.1143
L63.6716 75.9933
" />
<path d="M63.6716 75.9933
L63.7926 75.9329
" />
<path d="M63.7926 75.9329
L64.0345 75.9329
" />
<path d="M64.0345 75.9329
L64.1554 75.9933
" />
<path d="M64.1554 75.9933
L64.2159 76.1143
" />
<path d="M64.2159 76.1143
L64.2159 76.2352
" />
<path d="M64.2159 76.2352
L63.6112 76.3562
" />
<path d="M64.7602 76.7795
L64.7602 75.9329
" />
<path d="M64.7602 76.1748
L64.8207 76.0538
" />
<path d="M64.8207 76.0538
L64.8812 75.9933
" />
<path d="M64.8812 75.9933
L65.0021 75.9329
" />
<path d="M65.0021 75.9329
L65.1231 75.9329
" />
<path d="M66.5140 76.7795
L66.5140 75.5095
" />
<path d="M66.5140 75.5095
L66.8164 75.5095
" />
<path d="M66.8164 75.5095
L66.9978 75.5700
" />
<path d="M66.9978 75.5700
L67.1188 75.6910
" />
<path d="M67.1188 75.6910
L67.1793 75.8119
" />
<path d="M67.1793 75.8119
L67.2397 76.0538
" />
<path d="M67.2397 76.0538
L67.2397 76.2352
" />
<path d="M67.2397 76.2352
L67.1793 76.4771
" />
<path d="M67.1793 76.4771
L67.1188 76.5981
" />
<path d="M67.1188 76.5981
L66.9978 76.7191
" />
<path d="M66.9978 76.7191
L66.8164 76.7795
" />
<path d="M66.8164 76.7795
L66.5140 76.7795
" />
<path d="M68.3283 76.7795
L68.3283 76.1143
" />
<path d="M68.3283 76.1143
L68.2678 75.9933
" />
<path d="M68.2678 75.9933
L68.1469 75.9329
" />
<path d="M68.1469 75.9329
L67.9050 75.9329
" />
<path d="M67.9050 75.9329
L67.7840 75.9933
" />
<path d="M68.3283 76.7191
L68.2074 76.7795
" />
<path d="M68.2074 76.7795
L67.9050 76.7795
" />
<path d="M67.9050 76.7795
L67.7840 76.7191
" />
<path d="M67.7840 76.7191
L67.7236 76.5981
" />
<path d="M67.7236 76.5981
L67.7236 76.4771
" />
<path d="M67.7236 76.4771
L67.7840 76.3562
" />
<path d="M67.7840 76.3562
L67.9050 76.2957
" />
<path d="M67.9050 76.2957
L68.2074 76.2957
" />
<path d="M68.2074 76.2957
L68.3283 76.2352
" />
<path d="M68.9330 76.7795
L68.9330 75.9329
" />
<path d="M68.9330 76.1748
L68.9935 76.0538
" />
<path d="M68.9935 76.0538
L69.0540 75.9933
" />
<path d="M69.0540 75.9933
L69.1749 75.9329
" />
<path d="M69.1749 75.9329
L69.2959 75.9329
" />
<path d="M69.9007 76.7795
L69.7797 76.7191
" />
<path d="M69.7797 76.7191
L69.7192 76.5981
" />
<path d="M69.7192 76.5981
L69.7192 75.5095
" />
<path d="M70.3844 76.7795
L70.3844 75.9329
" />
<path d="M70.3844 75.5095
L70.3240 75.5700
" />
<path d="M70.3240 75.5700
L70.3844 75.6305
" />
<path d="M70.3844 75.6305
L70.4449 75.5700
" />
<path d="M70.4449 75.5700
L70.3844 75.5095
" />
<path d="M70.3844 75.5095
L70.3844 75.6305
" />
<path d="M70.9892 75.9329
L70.9892 76.7795
" />
<path d="M70.9892 76.0538
L71.0497 75.9933
" />
<path d="M71.0497 75.9933
L71.1707 75.9329
" />
<path d="M71.1707 75.9329
L71.3521 75.9329
" />
<path d="M71.3521 75.9329
L71.4730 75.9933
" />
<path d="M71.4730 75.9933
L71.5335 76.1143
" />
<path d="M71.5335 76.1143
L71.5335 76.7795
" />
<path d="M72.6825 75.9329
L72.6825 76.9610
" />
<path d="M72.6825 76.9610
L72.6220 77.0819
" />
<path d="M72.6220 77.0819
L72.5616 77.1424
" />
<path d="M72.5616 77.1424
L72.4406 77.2029
" />
<path d="M72.4406 77.2029
L72.2592 77.2029
" />
<path d="M72.2592 77.2029
L72.1382 77.1424
" />
<path d="M72.6825 76.7191
L72.5616 76.7795
" />
<path d="M72.5616 76.7795
L72.3197 76.7795
" />
<path d="M72.3197 76.7795
L72.1987 76.7191
" />
<path d="M72.1987 76.7191
L72.1382 76.6586
" />
<path d="M72.1382 76.6586
L72.0778 76.5376
" />
<path d="M72.0778 76.5376
L72.0778 76.1748
" />
<path d="M72.0778 76.1748
L72.1382 76.0538
" />
<path d="M72.1382 76.0538
L72.1987 75.9933
" />
<path d="M72.1987 75.9933
L72.3197 75.9329
" />
<path d="M72.3197 75.9329
L72.5616 75.9329
" />
<path d="M72.5616 75.9329
L72.6825 75.9933
" />
<path d="M73.1058 75.9329
L73.5896 75.9329
" />
<path d="M73.2872 75.5095
L73.2872 76.5981
" />
<path d="M73.2872 76.5981
L73.3477 76.7191
" />
<path d="M73.3477 76.7191
L73.4687 76.7795
" />
<path d="M73.4687 76.7795
L73.5896 76.7795
" />
<path d="M74.1944 76.7795
L74.0734 76.7191
" />
<path d="M74.0734 76.7191
L74.0129 76.6586
" />
<path d="M74.0129 76.6586
L73.9525 76.5376
" />
<path d="M73.9525 76.5376
L73.9525 76.1748
" />
<path d="M73.9525 76.1748
L74.0129 76.0538
" />
<path d="M74.0129 76.0538
L74.0734 75.9933
" />
<path d="M74.0734 75.9933
L74.1944 75.9329
" />
<path d="M74.1944 75.9329
L74.3758 75.9329
" />
<path d="M74.3758 75.9329
L74.4967 75.9933
" />
<path d="M74.4967 75.9933
L74.5572 76.0538
" />
<path d="M74.5572 76.0538
L74.6177 76.1748
" />
<path d="M74.6177 76.1748
L74.6177 76.5376
" />
<path d="M74.6177 76.5376
L74.5572 76.6586
" />
<path d="M74.5572 76.6586
L74.4967 76.7191
" />
<path d="M74.4967 76.7191
L74.3758 76.7795
" />
<path d="M74.3758 76.7795
L74.1944 76.7795
" />
<path d="M75.1619 75.9329
L75.1619 76.7795
" />
<path d="M75.1619 76.0538
L75.2224 75.9933
" />
<path d="M75.2224 75.9933
L75.3434 75.9329
" />
<path d="M75.3434 75.9329
L75.5248 75.9329
" />
<path d="M75.5248 75.9329
L75.6457 75.9933
" />
<path d="M75.6457 75.9933
L75.7062 76.1143
" />
<path d="M75.7062 76.1143
L75.7062 76.7795
" />
</g></g>
</g>
<g style="fill:#006464; fill-opacity:0.0; 
stroke:#006464; stroke-width:0.1524; stroke-opacity:1; 
stroke-linecap:round; stroke-linejoin:round;">
<g >
</g>
<g style="fill:#840000; fill-opacity:0.0; 
stroke:#840000; stroke-width:0.1524; stroke-opacity:1; 
stroke-linecap:round; stroke-linejoin:round;">
<path style="fill:#840000; fill-opacity:0.0; 
stroke:#840000; stroke-width:0.1524; stroke-opacity:1; 
stroke-linecap:round; stroke-linejoin:round;fill:none"
d="M 46.3550,92.7100
45.7200,92.7100
" /> 
<path style="fill:#840000; fill-opacity:0.0; 
stroke:#840000; stroke-width:0.1524; stroke-opacity:1; 
stroke-linecap:round; stroke-linejoin:round;fill:none"
d="M 46.9900,91.4400
46.3550,91.4400
" /> 
<path style="fill:#840000; fill-opacity:0.0; 
stroke:#840000; stroke-width:0.1524; stroke-opacity:1; 
stroke-linecap:round; stroke-linejoin:round;fill:none"
d="M 48.8950,93.3450
50.8000,91.4400
" /> 
<path style="fill:#840000; fill-opacity:0.0; 
stroke:#840000; stroke-width:0.1524; stroke-opacity:1; 
stroke-linecap:round; stroke-linejoin:round;fill:none"
d="M 44.4500,90.8050
46.3550,92.7100
46.3550,92.0750
" /> 
<path style="fill:#840000; fill-opacity:0.0; 
stroke:#840000; stroke-width:0.1524; stroke-opacity:1; 
stroke-linecap:round; stroke-linejoin:round;fill:none"
d="M 45.0850,89.5350
46.9900,91.4400
46.9900,90.8050
" /> 
<path style="fill:#840000; fill-opacity:0.0; 
stroke:#840000; stroke-width:0.1524; stroke-opacity:1; 
stroke-linecap:round; stroke-linejoin:round;fill:none"
d="M 48.8950,94.6150
50.8000,96.5200
50.8000,96.5200
" /> 
</g>
<g style="fill:#840000; fill-opacity:0.0; 
stroke:#840000; stroke-width:0.5080; stroke-opacity:1; 
stroke-linecap:round; stroke-linejoin:round;">
<path style="fill:#840000; fill-opacity:0.0; 
stroke:#840000; stroke-width:0.5080; stroke-opacity:1; 
stroke-linecap:round; stroke-linejoin:round;fill:none"
d="M 48.8950,92.0750
48.8950,95.8850
48.8950,95.8850
" /> 
</g>
<g style="fill:#840000; fill-opacity:1.0000; 
stroke:#840000; stroke-width:0.1524; stroke-opacity:1; 
stroke-linecap:round; stroke-linejoin:round;">
<path style="fill:#840000; fill-opacity:1.0000; 
stroke:#840000; stroke-width:0.1524; stroke-opacity:1; 
stroke-linecap:round; stroke-linejoin:round;fill-rule:evenodd;"
d="M 49.5300,95.7580
50.0380,95.2500
50.5460,96.2660
49.5300,95.7580
Z" /> 
</g>
<g style="fill:#840000; fill-opacity:0.0; 
stroke:#840000; stroke-width:0.2540; stroke-opacity:1; 
stroke-linecap:round; stroke-linejoin:round;">
<circle cx="49.5300" cy="93.9800" r="2.8194" /> 
</g>
<g style="fill:#840000; fill-opacity:0.0; 
stroke:#840000; stroke-width:0.1524; stroke-opacity:1; 
stroke-linecap:round; stroke-linejoin:round;">
<path d="M50.8000 91.4400
L50.8000 88.9000
" />
</g>
<g style="fill:#006464; fill-opacity:0.0; 
stroke:#006464; stroke-width:0.1524; stroke-opacity:1; 
stroke-linecap:round; stroke-linejoin:round;">
<g transform="rotate(-90.000000 50.5460 90.1700)">
<text x="50.5460" y="90.1700"
textLength="1.4732" font-size="1.6933" lengthAdjust="spacingAndGlyphs"
text-anchor="middle" opacity="0">C</text>
</g>
<g class="stroked-text"><desc>C</desc>
<path d="M50.2616 89.7769
L50.3221 89.8373
" />
<path d="M50.3221 89.8373
L50.3825 90.0188
" />
<path d="M50.3825 90.0188
L50.3825 90.1397
" />
<path d="M50.3825 90.1397
L50.3221 90.3211
" />
<path d="M50.3221 90.3211
L50.2011 90.4421
" />
<path d="M50.2011 90.4421
L50.0801 90.5026
" />
<path d="M50.0801 90.5026
L49.8382 90.5630
" />
<path d="M49.8382 90.5630
L49.6568 90.5630
" />
<path d="M49.6568 90.5630
L49.4149 90.5026
" />
<path d="M49.4149 90.5026
L49.2940 90.4421
" />
<path d="M49.2940 90.4421
L49.1730 90.3211
" />
<path d="M49.1730 90.3211
L49.1125 90.1397
" />
<path d="M49.1125 90.1397
L49.1125 90.0188
" />
<path d="M49.1125 90.0188
L49.1730 89.8373
" />
<path d="M49.1730 89.8373
L49.2335 89.7769
" />
</g></g>
<g style="fill:#840000; fill-opacity:0.0; 
stroke:#840000; stroke-width:0.1524; stroke-opacity:1; 
stroke-linecap:round; stroke-linejoin:round;">
<path d="M50.8000 96.5200
L50.8000 99.0600
" />
</g>
<g style="fill:#006464; fill-opacity:0.0; 
stroke:#006464; stroke-width:0.1524; stroke-opacity:1; 
stroke-linecap:round; stroke-linejoin:round;">
<g transform="rotate(-90.000000 50.5460 97.7900)">
<text x="50.5460" y="97.7900"
textLength="1.3522" font-size="1.6933" lengthAdjust="spacingAndGlyphs"
text-anchor="middle" opacity="0">E</text>
</g>
<g class="stroked-text"><desc>E</desc>
<path d="M49.7173 98.0621
L49.7173 97.6387
" />
<path d="M50.3825 97.4573
L50.3825 98.0621
" />
<path d="M50.3825 98.0621
L49.1125 98.0621
" />
<path d="M49.1125 98.0621
L49.1125 97.4573
" />
</g><text x="54.7212" y="92.5957"
textLength="2.7432" font-size="1.6933" lengthAdjust="spacingAndGlyphs"
text-anchor="middle" opacity="0">Q5</text>
<g class="stroked-text"><desc>Q5</desc>
<path d="M54.6002 92.6612
L54.4792 92.6007
" />
<path d="M54.4792 92.6007
L54.3583 92.4798
" />
<path d="M54.3583 92.4798
L54.1769 92.2983
" />
<path d="M54.1769 92.2983
L54.0559 92.2378
" />
<path d="M54.0559 92.2378
L53.9350 92.2378
" />
<path d="M53.9954 92.5402
L53.8745 92.4798
" />
<path d="M53.8745 92.4798
L53.7535 92.3588
" />
<path d="M53.7535 92.3588
L53.6931 92.1169
" />
<path d="M53.6931 92.1169
L53.6931 91.6936
" />
<path d="M53.6931 91.6936
L53.7535 91.4517
" />
<path d="M53.7535 91.4517
L53.8745 91.3307
" />
<path d="M53.8745 91.3307
L53.9954 91.2702
" />
<path d="M53.9954 91.2702
L54.2373 91.2702
" />
<path d="M54.2373 91.2702
L54.3583 91.3307
" />
<path d="M54.3583 91.3307
L54.4792 91.4517
" />
<path d="M54.4792 91.4517
L54.5397 91.6936
" />
<path d="M54.5397 91.6936
L54.5397 92.1169
" />
<path d="M54.5397 92.1169
L54.4792 92.3588
" />
<path d="M54.4792 92.3588
L54.3583 92.4798
" />
<path d="M54.3583 92.4798
L54.2373 92.5402
" />
<path d="M54.2373 92.5402
L53.9954 92.5402
" />
<path d="M55.6888 91.2702
L55.0840 91.2702
" />
<path d="M55.0840 91.2702
L55.0236 91.8750
" />
<path d="M55.0236 91.8750
L55.0840 91.8145
" />
<path d="M55.0840 91.8145
L55.2050 91.7540
" />
<path d="M55.2050 91.7540
L55.5074 91.7540
" />
<path d="M55.5074 91.7540
L55.6283 91.8145
" />
<path d="M55.6283 91.8145
L55.6888 91.8750
" />
<path d="M55.6888 91.8750
L55.7493 91.9959
" />
<path d="M55.7493 91.9959
L55.7493 92.2983
" />
<path d="M55.7493 92.2983
L55.6888 92.4193
" />
<path d="M55.6888 92.4193
L55.6283 92.4798
" />
<path d="M55.6283 92.4798
L55.5074 92.5402
" />
<path d="M55.5074 92.5402
L55.2050 92.5402
" />
<path d="M55.2050 92.5402
L55.0840 92.4798
" />
<path d="M55.0840 92.4798
L55.0236 92.4193
" />
</g><text x="63.1877" y="95.1357"
textLength="19.6763" font-size="1.6933" lengthAdjust="spacingAndGlyphs"
text-anchor="middle" opacity="0">NPN Phototransistor</text>
<g class="stroked-text"><desc>NPN Phototransistor</desc>
<path d="M53.7535 95.0802
L53.7535 93.8102
" />
<path d="M53.7535 93.8102
L54.4792 95.0802
" />
<path d="M54.4792 95.0802
L54.4792 93.8102
" />
<path d="M55.0840 95.0802
L55.0840 93.8102
" />
<path d="M55.0840 93.8102
L55.5678 93.8102
" />
<path d="M55.5678 93.8102
L55.6888 93.8707
" />
<path d="M55.6888 93.8707
L55.7493 93.9312
" />
<path d="M55.7493 93.9312
L55.8097 94.0521
" />
<path d="M55.8097 94.0521
L55.8097 94.2336
" />
<path d="M55.8097 94.2336
L55.7493 94.3545
" />
<path d="M55.7493 94.3545
L55.6888 94.4150
" />
<path d="M55.6888 94.4150
L55.5678 94.4755
" />
<path d="M55.5678 94.4755
L55.0840 94.4755
" />
<path d="M56.3540 95.0802
L56.3540 93.8102
" />
<path d="M56.3540 93.8102
L57.0797 95.0802
" />
<path d="M57.0797 95.0802
L57.0797 93.8102
" />
<path d="M58.6521 95.0802
L58.6521 93.8102
" />
<path d="M58.6521 93.8102
L59.1359 93.8102
" />
<path d="M59.1359 93.8102
L59.2569 93.8707
" />
<path d="M59.2569 93.8707
L59.3174 93.9312
" />
<path d="M59.3174 93.9312
L59.3778 94.0521
" />
<path d="M59.3778 94.0521
L59.3778 94.2336
" />
<path d="M59.3778 94.2336
L59.3174 94.3545
" />
<path d="M59.3174 94.3545
L59.2569 94.4150
" />
<path d="M59.2569 94.4150
L59.1359 94.4755
" />
<path d="M59.1359 94.4755
L58.6521 94.4755
" />
<path d="M59.9221 95.0802
L59.9221 93.8102
" />
<path d="M60.4664 95.0802
L60.4664 94.4150
" />
<path d="M60.4664 94.4150
L60.4059 94.2940
" />
<path d="M60.4059 94.2940
L60.2850 94.2336
" />
<path d="M60.2850 94.2336
L60.1036 94.2336
" />
<path d="M60.1036 94.2336
L59.9826 94.2940
" />
<path d="M59.9826 94.2940
L59.9221 94.3545
" />
<path d="M61.2526 95.0802
L61.1316 95.0198
" />
<path d="M61.1316 95.0198
L61.0711 94.9593
" />
<path d="M61.0711 94.9593
L61.0107 94.8383
" />
<path d="M61.0107 94.8383
L61.0107 94.4755
" />
<path d="M61.0107 94.4755
L61.0711 94.3545
" />
<path d="M61.0711 94.3545
L61.1316 94.2940
" />
<path d="M61.1316 94.2940
L61.2526 94.2336
" />
<path d="M61.2526 94.2336
L61.4340 94.2336
" />
<path d="M61.4340 94.2336
L61.5549 94.2940
" />
<path d="M61.5549 94.2940
L61.6154 94.3545
" />
<path d="M61.6154 94.3545
L61.6759 94.4755
" />
<path d="M61.6759 94.4755
L61.6759 94.8383
" />
<path d="M61.6759 94.8383
L61.6154 94.9593
" />
<path d="M61.6154 94.9593
L61.5549 95.0198
" />
<path d="M61.5549 95.0198
L61.4340 95.0802
" />
<path d="M61.4340 95.0802
L61.2526 95.0802
" />
<path d="M62.0387 94.2336
L62.5225 94.2336
" />
<path d="M62.2201 93.8102
L62.2201 94.8988
" />
<path d="M62.2201 94.8988
L62.2806 95.0198
" />
<path d="M62.2806 95.0198
L62.4016 95.0802
" />
<path d="M62.4016 95.0802
L62.5225 95.0802
" />
<path d="M63.1273 95.0802
L63.0063 95.0198
" />
<path d="M63.0063 95.0198
L62.9458 94.9593
" />
<path d="M62.9458 94.9593
L62.8854 94.8383
" />
<path d="M62.8854 94.8383
L62.8854 94.4755
" />
<path d="M62.8854 94.4755
L62.9458 94.3545
" />
<path d="M62.9458 94.3545
L63.0063 94.2940
" />
<path d="M63.0063 94.2940
L63.1273 94.2336
" />
<path d="M63.1273 94.2336
L63.3087 94.2336
" />
<path d="M63.3087 94.2336
L63.4296 94.2940
" />
<path d="M63.4296 94.2940
L63.4901 94.3545
" />
<path d="M63.4901 94.3545
L63.5506 94.4755
" />
<path d="M63.5506 94.4755
L63.5506 94.8383
" />
<path d="M63.5506 94.8383
L63.4901 94.9593
" />
<path d="M63.4901 94.9593
L63.4296 95.0198
" />
<path d="M63.4296 95.0198
L63.3087 95.0802
" />
<path d="M63.3087 95.0802
L63.1273 95.0802
" />
<path d="M63.9134 94.2336
L64.3972 94.2336
" />
<path d="M64.0948 93.8102
L64.0948 94.8988
" />
<path d="M64.0948 94.8988
L64.1553 95.0198
" />
<path d="M64.1553 95.0198
L64.2763 95.0802
" />
<path d="M64.2763 95.0802
L64.3972 95.0802
" />
<path d="M64.8205 95.0802
L64.8205 94.2336
" />
<path d="M64.8205 94.4755
L64.8810 94.3545
" />
<path d="M64.8810 94.3545
L64.9415 94.2940
" />
<path d="M64.9415 94.2940
L65.0624 94.2336
" />
<path d="M65.0624 94.2336
L65.1834 94.2336
" />
<path d="M66.1510 95.0802
L66.1510 94.4150
" />
<path d="M66.1510 94.4150
L66.0905 94.2940
" />
<path d="M66.0905 94.2940
L65.9696 94.2336
" />
<path d="M65.9696 94.2336
L65.7277 94.2336
" />
<path d="M65.7277 94.2336
L65.6067 94.2940
" />
<path d="M66.1510 95.0198
L66.0301 95.0802
" />
<path d="M66.0301 95.0802
L65.7277 95.0802
" />
<path d="M65.7277 95.0802
L65.6067 95.0198
" />
<path d="M65.6067 95.0198
L65.5463 94.8988
" />
<path d="M65.5463 94.8988
L65.5463 94.7778
" />
<path d="M65.5463 94.7778
L65.6067 94.6569
" />
<path d="M65.6067 94.6569
L65.7277 94.5964
" />
<path d="M65.7277 94.5964
L66.0301 94.5964
" />
<path d="M66.0301 94.5964
L66.1510 94.5359
" />
<path d="M66.7557 94.2336
L66.7557 95.0802
" />
<path d="M66.7557 94.3545
L66.8162 94.2940
" />
<path d="M66.8162 94.2940
L66.9372 94.2336
" />
<path d="M66.9372 94.2336
L67.1186 94.2336
" />
<path d="M67.1186 94.2336
L67.2395 94.2940
" />
<path d="M67.2395 94.2940
L67.3000 94.4150
" />
<path d="M67.3000 94.4150
L67.3000 95.0802
" />
<path d="M67.8443 95.0198
L67.9652 95.0802
" />
<path d="M67.9652 95.0802
L68.2071 95.0802
" />
<path d="M68.2071 95.0802
L68.3281 95.0198
" />
<path d="M68.3281 95.0198
L68.3885 94.8988
" />
<path d="M68.3885 94.8988
L68.3885 94.8383
" />
<path d="M68.3885 94.8383
L68.3281 94.7174
" />
<path d="M68.3281 94.7174
L68.2071 94.6569
" />
<path d="M68.2071 94.6569
L68.0257 94.6569
" />
<path d="M68.0257 94.6569
L67.9047 94.5964
" />
<path d="M67.9047 94.5964
L67.8443 94.4755
" />
<path d="M67.8443 94.4755
L67.8443 94.4150
" />
<path d="M67.8443 94.4150
L67.9047 94.2940
" />
<path d="M67.9047 94.2940
L68.0257 94.2336
" />
<path d="M68.0257 94.2336
L68.2071 94.2336
" />
<path d="M68.2071 94.2336
L68.3281 94.2940
" />
<path d="M68.9328 95.0802
L68.9328 94.2336
" />
<path d="M68.9328 93.8102
L68.8724 93.8707
" />
<path d="M68.8724 93.8707
L68.9328 93.9312
" />
<path d="M68.9328 93.9312
L68.9933 93.8707
" />
<path d="M68.9933 93.8707
L68.9328 93.8102
" />
<path d="M68.9328 93.8102
L68.9328 93.9312
" />
<path d="M69.4772 95.0198
L69.5981 95.0802
" />
<path d="M69.5981 95.0802
L69.8400 95.0802
" />
<path d="M69.8400 95.0802
L69.9610 95.0198
" />
<path d="M69.9610 95.0198
L70.0214 94.8988
" />
<path d="M70.0214 94.8988
L70.0214 94.8383
" />
<path d="M70.0214 94.8383
L69.9610 94.7174
" />
<path d="M69.9610 94.7174
L69.8400 94.6569
" />
<path d="M69.8400 94.6569
L69.6586 94.6569
" />
<path d="M69.6586 94.6569
L69.5376 94.5964
" />
<path d="M69.5376 94.5964
L69.4772 94.4755
" />
<path d="M69.4772 94.4755
L69.4772 94.4150
" />
<path d="M69.4772 94.4150
L69.5376 94.2940
" />
<path d="M69.5376 94.2940
L69.6586 94.2336
" />
<path d="M69.6586 94.2336
L69.8400 94.2336
" />
<path d="M69.8400 94.2336
L69.9610 94.2940
" />
<path d="M70.3843 94.2336
L70.8681 94.2336
" />
<path d="M70.5657 93.8102
L70.5657 94.8988
" />
<path d="M70.5657 94.8988
L70.6262 95.0198
" />
<path d="M70.6262 95.0198
L70.7472 95.0802
" />
<path d="M70.7472 95.0802
L70.8681 95.0802
" />
<path d="M71.4729 95.0802
L71.3519 95.0198
" />
<path d="M71.3519 95.0198
L71.2914 94.9593
" />
<path d="M71.2914 94.9593
L71.2310 94.8383
" />
<path d="M71.2310 94.8383
L71.2310 94.4755
" />
<path d="M71.2310 94.4755
L71.2914 94.3545
" />
<path d="M71.2914 94.3545
L71.3519 94.2940
" />
<path d="M71.3519 94.2940
L71.4729 94.2336
" />
<path d="M71.4729 94.2336
L71.6543 94.2336
" />
<path d="M71.6543 94.2336
L71.7752 94.2940
" />
<path d="M71.7752 94.2940
L71.8357 94.3545
" />
<path d="M71.8357 94.3545
L71.8962 94.4755
" />
<path d="M71.8962 94.4755
L71.8962 94.8383
" />
<path d="M71.8962 94.8383
L71.8357 94.9593
" />
<path d="M71.8357 94.9593
L71.7752 95.0198
" />
<path d="M71.7752 95.0198
L71.6543 95.0802
" />
<path d="M71.6543 95.0802
L71.4729 95.0802
" />
<path d="M72.4404 95.0802
L72.4404 94.2336
" />
<path d="M72.4404 94.4755
L72.5009 94.3545
" />
<path d="M72.5009 94.3545
L72.5614 94.2940
" />
<path d="M72.5614 94.2940
L72.6823 94.2336
" />
<path d="M72.6823 94.2336
L72.8033 94.2336
" />
</g></g>
</g>
<g style="fill:#006464; fill-opacity:0.0; 
stroke:#006464; stroke-width:0.1524; stroke-opacity:1; 
stroke-linecap:round; stroke-linejoin:round;">
<g >
</g>
<g style="fill:#840000; fill-opacity:0.0; 
stroke:#840000; stroke-width:0.1524; stroke-opacity:1; 
stroke-linecap:round; stroke-linejoin:round;">
<path style="fill:#840000; fill-opacity:0.0; 
stroke:#840000; stroke-width:0.1524; stroke-opacity:1; 
stroke-linecap:round; stroke-linejoin:round;fill:none"
d="M 83.1850,57.7850
85.0900,55.8800
" /> 
<path style="fill:#840000; fill-opacity:0.0; 
stroke:#840000; stroke-width:0.1524; stroke-opacity:1; 
stroke-linecap:round; stroke-linejoin:round;fill:none"
d="M 83.1850,59.0550
85.0900,60.9600
85.0900,60.9600
" /> 
<path style="fill:#840000; fill-opacity:0.0; 
stroke:#840000; stroke-width:0.1524; stroke-opacity:1; 
stroke-linecap:round; stroke-linejoin:round;fill:none"
d="M 83.1850,58.4200
85.0900,56.5150
85.0900,55.8800
" /> 
</g>
<g style="fill:#840000; fill-opacity:0.0; 
stroke:#840000; stroke-width:0.5080; stroke-opacity:1; 
stroke-linecap:round; stroke-linejoin:round;">
<path style="fill:#840000; fill-opacity:0.0; 
stroke:#840000; stroke-width:0.5080; stroke-opacity:1; 
stroke-linecap:round; stroke-linejoin:round;fill:none"
d="M 83.1850,56.5150
83.1850,60.3250
83.1850,60.3250
" /> 
</g>
<g style="fill:#840000; fill-opacity:1.0000; 
stroke:#840000; stroke-width:0.1524; stroke-opacity:1; 
stroke-linecap:round; stroke-linejoin:round;">
<path style="fill:#840000; fill-opacity:1.0000; 
stroke:#840000; stroke-width:0.1524; stroke-opacity:1; 
stroke-linecap:round; stroke-linejoin:round;fill-rule:evenodd;"
d="M 84.8360,60.1980
84.3280,60.7060
83.8200,59.6900
84.8360,60.1980
Z" /> 
</g>
<g style="fill:#840000; fill-opacity:0.0; 
stroke:#840000; stroke-width:0.2540; stroke-opacity:1; 
stroke-linecap:round; stroke-linejoin:round;">
<circle cx="83.8200" cy="58.4200" r="2.8194" /> 
</g>
<g style="fill:#840000; fill-opacity:0.0; 
stroke:#840000; stroke-width:0.1524; stroke-opacity:1; 
stroke-linecap:round; stroke-linejoin:round;">
<path d="M83.1850 58.4200
L77.4700 58.4200
" />
</g>
<g style="fill:#006464; fill-opacity:0.0; 
stroke:#006464; stroke-width:0.1524; stroke-opacity:1; 
stroke-linecap:round; stroke-linejoin:round;">
<text x="80.3275" y="58.1660"
textLength="1.4732" font-size="1.6933" lengthAdjust="spacingAndGlyphs"
text-anchor="middle" opacity="0">B</text>
<g class="stroked-text"><desc>B</desc>
<path d="M80.4182 57.3373
L80.5996 57.3978
" />
<path d="M80.5996 57.3978
L80.6601 57.4582
" />
<path d="M80.6601 57.4582
L80.7205 57.5792
" />
<path d="M80.7205 57.5792
L80.7205 57.7606
" />
<path d="M80.7205 57.7606
L80.6601 57.8816
" />
<path d="M80.6601 57.8816
L80.5996 57.9421
" />
<path d="M80.5996 57.9421
L80.4786 58.0025
" />
<path d="M80.4786 58.0025
L79.9948 58.0025
" />
<path d="M79.9948 58.0025
L79.9948 56.7325
" />
<path d="M79.9948 56.7325
L80.4182 56.7325
" />
<path d="M80.4182 56.7325
L80.5391 56.7930
" />
<path d="M80.5391 56.7930
L80.5996 56.8535
" />
<path d="M80.5996 56.8535
L80.6601 56.9744
" />
<path d="M80.6601 56.9744
L80.6601 57.0954
" />
<path d="M80.6601 57.0954
L80.5996 57.2163
" />
<path d="M80.5996 57.2163
L80.5391 57.2768
" />
<path d="M80.5391 57.2768
L80.4182 57.3373
" />
<path d="M80.4182 57.3373
L79.9948 57.3373
" />
</g></g>
<g style="fill:#840000; fill-opacity:0.0; 
stroke:#840000; stroke-width:0.1524; stroke-opacity:1; 
stroke-linecap:round; stroke-linejoin:round;">
<path d="M85.0900 55.8800
L85.0900 53.3400
" />
</g>
<g style="fill:#006464; fill-opacity:0.0; 
stroke:#006464; stroke-width:0.1524; stroke-opacity:1; 
stroke-linecap:round; stroke-linejoin:round;">
<g transform="rotate(-90.000000 84.8360 54.6100)">
<text x="84.8360" y="54.6100"
textLength="1.4732" font-size="1.6933" lengthAdjust="spacingAndGlyphs"
text-anchor="middle" opacity="0">C</text>
</g>
<g class="stroked-text"><desc>C</desc>
<path d="M84.5516 54.2169
L84.6121 54.2773
" />
<path d="M84.6121 54.2773
L84.6725 54.4588
" />
<path d="M84.6725 54.4588
L84.6725 54.5797
" />
<path d="M84.6725 54.5797
L84.6121 54.7611
" />
<path d="M84.6121 54.7611
L84.4911 54.8821
" />
<path d="M84.4911 54.8821
L84.3701 54.9426
" />
<path d="M84.3701 54.9426
L84.1282 55.0030
" />
<path d="M84.1282 55.0030
L83.9468 55.0030
" />
<path d="M83.9468 55.0030
L83.7049 54.9426
" />
<path d="M83.7049 54.9426
L83.5840 54.8821
" />
<path d="M83.5840 54.8821
L83.4630 54.7611
" />
<path d="M83.4630 54.7611
L83.4025 54.5797
" />
<path d="M83.4025 54.5797
L83.4025 54.4588
" />
<path d="M83.4025 54.4588
L83.4630 54.2773
" />
<path d="M83.4630 54.2773
L83.5235 54.2169
" />
</g></g>
<g style="fill:#840000; fill-opacity:0.0; 
stroke:#840000; stroke-width:0.1524; stroke-opacity:1; 
stroke-linecap:round; stroke-linejoin:round;">
<path d="M85.0900 60.9600
L85.0900 63.5000
" />
</g>
<g style="fill:#006464; fill-opacity:0.0; 
stroke:#006464; stroke-width:0.1524; stroke-opacity:1; 
stroke-linecap:round; stroke-linejoin:round;">
<g transform="rotate(-90.000000 84.8360 62.2300)">
<text x="84.8360" y="62.2300"
textLength="1.3522" font-size="1.6933" lengthAdjust="spacingAndGlyphs"
text-anchor="middle" opacity="0">E</text>
</g>
<g class="stroked-text"><desc>E</desc>
<path d="M84.0073 62.5021
L84.0073 62.0787
" />
<path d="M84.6725 61.8973
L84.6725 62.5021
" />
<path d="M84.6725 62.5021
L83.4025 62.5021
" />
<path d="M83.4025 62.5021
L83.4025 61.8973
" />
</g><text x="89.0112" y="57.7850"
textLength="2.7432" font-size="1.6933" lengthAdjust="spacingAndGlyphs"
text-anchor="middle" opacity="0">Q2</text>
<g class="stroked-text"><desc>Q2</desc>
<path d="M88.8902 57.8505
L88.7692 57.7900
" />
<path d="M88.7692 57.7900
L88.6483 57.6691
" />
<path d="M88.6483 57.6691
L88.4669 57.4876
" />
<path d="M88.4669 57.4876
L88.3459 57.4271
" />
<path d="M88.3459 57.4271
L88.2250 57.4271
" />
<path d="M88.2854 57.7295
L88.1645 57.6691
" />
<path d="M88.1645 57.6691
L88.0435 57.5481
" />
<path d="M88.0435 57.5481
L87.9831 57.3062
" />
<path d="M87.9831 57.3062
L87.9831 56.8829
" />
<path d="M87.9831 56.8829
L88.0435 56.6410
" />
<path d="M88.0435 56.6410
L88.1645 56.5200
" />
<path d="M88.1645 56.5200
L88.2854 56.4595
" />
<path d="M88.2854 56.4595
L88.5273 56.4595
" />
<path d="M88.5273 56.4595
L88.6483 56.5200
" />
<path d="M88.6483 56.5200
L88.7692 56.6410
" />
<path d="M88.7692 56.6410
L88.8297 56.8829
" />
<path d="M88.8297 56.8829
L88.8297 57.3062
" />
<path d="M88.8297 57.3062
L88.7692 57.5481
" />
<path d="M88.7692 57.5481
L88.6483 57.6691
" />
<path d="M88.6483 57.6691
L88.5273 57.7295
" />
<path d="M88.5273 57.7295
L88.2854 57.7295
" />
<path d="M89.3136 56.5805
L89.3740 56.5200
" />
<path d="M89.3740 56.5200
L89.4950 56.4595
" />
<path d="M89.4950 56.4595
L89.7974 56.4595
" />
<path d="M89.7974 56.4595
L89.9183 56.5200
" />
<path d="M89.9183 56.5200
L89.9788 56.5805
" />
<path d="M89.9788 56.5805
L90.0393 56.7014
" />
<path d="M90.0393 56.7014
L90.0393 56.8224
" />
<path d="M90.0393 56.8224
L89.9788 57.0038
" />
<path d="M89.9788 57.0038
L89.2531 57.7295
" />
<path d="M89.2531 57.7295
L90.0393 57.7295
" />
</g><text x="95.0587" y="60.3250"
textLength="14.8382" font-size="1.6933" lengthAdjust="spacingAndGlyphs"
text-anchor="middle" opacity="0">PNP Darlington</text>
<g class="stroked-text"><desc>PNP Darlington</desc>
<path d="M88.0435 60.2695
L88.0435 58.9995
" />
<path d="M88.0435 58.9995
L88.5273 58.9995
" />
<path d="M88.5273 58.9995
L88.6483 59.0600
" />
<path d="M88.6483 59.0600
L88.7088 59.1205
" />
<path d="M88.7088 59.1205
L88.7692 59.2414
" />
<path d="M88.7692 59.2414
L88.7692 59.4229
" />
<path d="M88.7692 59.4229
L88.7088 59.5438
" />
<path d="M88.7088 59.5438
L88.6483 59.6043
" />
<path d="M88.6483 59.6043
L88.5273 59.6648
" />
<path d="M88.5273 59.6648
L88.0435 59.6648
" />
<path d="M89.3135 60.2695
L89.3135 58.9995
" />
<path d="M89.3135 58.9995
L90.0392 60.2695
" />
<path d="M90.0392 60.2695
L90.0392 58.9995
" />
<path d="M90.6440 60.2695
L90.6440 58.9995
" />
<path d="M90.6440 58.9995
L91.1278 58.9995
" />
<path d="M91.1278 58.9995
L91.2488 59.0600
" />
<path d="M91.2488 59.0600
L91.3093 59.1205
" />
<path d="M91.3093 59.1205
L91.3697 59.2414
" />
<path d="M91.3697 59.2414
L91.3697 59.4229
" />
<path d="M91.3697 59.4229
L91.3093 59.5438
" />
<path d="M91.3093 59.5438
L91.2488 59.6043
" />
<path d="M91.2488 59.6043
L91.1278 59.6648
" />
<path d="M91.1278 59.6648
L90.6440 59.6648
" />
<path d="M92.8816 60.2695
L92.8816 58.9995
" />
<path d="M92.8816 58.9995
L93.1840 58.9995
" />
<path d="M93.1840 58.9995
L93.3654 59.0600
" />
<path d="M93.3654 59.0600
L93.4864 59.1810
" />
<path d="M93.4864 59.1810
L93.5469 59.3019
" />
<path d="M93.5469 59.3019
L93.6073 59.5438
" />
<path d="M93.6073 59.5438
L93.6073 59.7252
" />
<path d="M93.6073 59.7252
L93.5469 59.9671
" />
<path d="M93.5469 59.9671
L93.4864 60.0881
" />
<path d="M93.4864 60.0881
L93.3654 60.2091
" />
<path d="M93.3654 60.2091
L93.1840 60.2695
" />
<path d="M93.1840 60.2695
L92.8816 60.2695
" />
<path d="M94.6959 60.2695
L94.6959 59.6043
" />
<path d="M94.6959 59.6043
L94.6354 59.4833
" />
<path d="M94.6354 59.4833
L94.5145 59.4229
" />
<path d="M94.5145 59.4229
L94.2726 59.4229
" />
<path d="M94.2726 59.4229
L94.1516 59.4833
" />
<path d="M94.6959 60.2091
L94.5750 60.2695
" />
<path d="M94.5750 60.2695
L94.2726 60.2695
" />
<path d="M94.2726 60.2695
L94.1516 60.2091
" />
<path d="M94.1516 60.2091
L94.0912 60.0881
" />
<path d="M94.0912 60.0881
L94.0912 59.9671
" />
<path d="M94.0912 59.9671
L94.1516 59.8462
" />
<path d="M94.1516 59.8462
L94.2726 59.7857
" />
<path d="M94.2726 59.7857
L94.5750 59.7857
" />
<path d="M94.5750 59.7857
L94.6959 59.7252
" />
<path d="M95.3006 60.2695
L95.3006 59.4229
" />
<path d="M95.3006 59.6648
L95.3611 59.5438
" />
<path d="M95.3611 59.5438
L95.4216 59.4833
" />
<path d="M95.4216 59.4833
L95.5425 59.4229
" />
<path d="M95.5425 59.4229
L95.6635 59.4229
" />
<path d="M96.2683 60.2695
L96.1473 60.2091
" />
<path d="M96.1473 60.2091
L96.0868 60.0881
" />
<path d="M96.0868 60.0881
L96.0868 58.9995
" />
<path d="M96.7520 60.2695
L96.7520 59.4229
" />
<path d="M96.7520 58.9995
L96.6916 59.0600
" />
<path d="M96.6916 59.0600
L96.7520 59.1205
" />
<path d="M96.7520 59.1205
L96.8125 59.0600
" />
<path d="M96.8125 59.0600
L96.7520 58.9995
" />
<path d="M96.7520 58.9995
L96.7520 59.1205
" />
<path d="M97.3568 59.4229
L97.3568 60.2695
" />
<path d="M97.3568 59.5438
L97.4173 59.4833
" />
<path d="M97.4173 59.4833
L97.5383 59.4229
" />
<path d="M97.5383 59.4229
L97.7197 59.4229
" />
<path d="M97.7197 59.4229
L97.8406 59.4833
" />
<path d="M97.8406 59.4833
L97.9011 59.6043
" />
<path d="M97.9011 59.6043
L97.9011 60.2695
" />
<path d="M99.0501 59.4229
L99.0501 60.4510
" />
<path d="M99.0501 60.4510
L98.9896 60.5719
" />
<path d="M98.9896 60.5719
L98.9292 60.6324
" />
<path d="M98.9292 60.6324
L98.8082 60.6929
" />
<path d="M98.8082 60.6929
L98.6268 60.6929
" />
<path d="M98.6268 60.6929
L98.5058 60.6324
" />
<path d="M99.0501 60.2091
L98.9292 60.2695
" />
<path d="M98.9292 60.2695
L98.6873 60.2695
" />
<path d="M98.6873 60.2695
L98.5663 60.2091
" />
<path d="M98.5663 60.2091
L98.5058 60.1486
" />
<path d="M98.5058 60.1486
L98.4454 60.0276
" />
<path d="M98.4454 60.0276
L98.4454 59.6648
" />
<path d="M98.4454 59.6648
L98.5058 59.5438
" />
<path d="M98.5058 59.5438
L98.5663 59.4833
" />
<path d="M98.5663 59.4833
L98.6873 59.4229
" />
<path d="M98.6873 59.4229
L98.9292 59.4229
" />
<path d="M98.9292 59.4229
L99.0501 59.4833
" />
<path d="M99.4734 59.4229
L99.9572 59.4229
" />
<path d="M99.6548 58.9995
L99.6548 60.0881
" />
<path d="M99.6548 60.0881
L99.7153 60.2091
" />
<path d="M99.7153 60.2091
L99.8363 60.2695
" />
<path d="M99.8363 60.2695
L99.9572 60.2695
" />
<path d="M100.5620 60.2695
L100.4410 60.2091
" />
<path d="M100.4410 60.2091
L100.3805 60.1486
" />
<path d="M100.3805 60.1486
L100.3201 60.0276
" />
<path d="M100.3201 60.0276
L100.3201 59.6648
" />
<path d="M100.3201 59.6648
L100.3805 59.5438
" />
<path d="M100.3805 59.5438
L100.4410 59.4833
" />
<path d="M100.4410 59.4833
L100.5620 59.4229
" />
<path d="M100.5620 59.4229
L100.7434 59.4229
" />
<path d="M100.7434 59.4229
L100.8643 59.4833
" />
<path d="M100.8643 59.4833
L100.9248 59.5438
" />
<path d="M100.9248 59.5438
L100.9853 59.6648
" />
<path d="M100.9853 59.6648
L100.9853 60.0276
" />
<path d="M100.9853 60.0276
L100.9248 60.1486
" />
<path d="M100.9248 60.1486
L100.8643 60.2091
" />
<path d="M100.8643 60.2091
L100.7434 60.2695
" />
<path d="M100.7434 60.2695
L100.5620 60.2695
" />
<path d="M101.5295 59.4229
L101.5295 60.2695
" />
<path d="M101.5295 59.5438
L101.5900 59.4833
" />
<path d="M101.5900 59.4833
L101.7110 59.4229
" />
<path d="M101.7110 59.4229
L101.8924 59.4229
" />
<path d="M101.8924 59.4229
L102.0133 59.4833
" />
<path d="M102.0133 59.4833
L102.0738 59.6043
" />
<path d="M102.0738 59.6043
L102.0738 60.2695
" />
</g></g>
</g>
<g style="fill:#006464; fill-opacity:0.0; 
stroke:#006464; stroke-width:0.1524; stroke-opacity:1; 
stroke-linecap:round; stroke-linejoin:round;">
<g >
</g>
<g style="fill:#840000; fill-opacity:0.0; 
stroke:#840000; stroke-width:0.1524; stroke-opacity:1; 
stroke-linecap:round; stroke-linejoin:round;">
</g>
<g style="fill:#FFFFC2; fill-opacity:0.0; 
stroke:#FFFFC2; stroke-width:0.1524; stroke-opacity:1; 
stroke-linecap:round; stroke-linejoin:round;">
</g>
<g style="fill:#FFFFC2; fill-opacity:1.0000; 
stroke:#FFFFC2; stroke-width:0.0000; stroke-opacity:1; 
stroke-linecap:round; stroke-linejoin:round;">
<rect x="80.010000" y="91.440000" width="10.160000" height="7.620000" rx="0.000000" />
</g>
<g style="fill:#840000; fill-opacity:1.0000; 
stroke:#840000; stroke-width:0.0000; stroke-opacity:1; 
stroke-linecap:round; stroke-linejoin:round;">
</g>
<g style="fill:#840000; fill-opacity:0.0; 
stroke:#840000; stroke-width:0.2540; stroke-opacity:1; 
stroke-linecap:round; stroke-linejoin:round;">
<rect x="80.010000" y="91.440000" width="10.160000" height="7.620000" rx="0.000000" />
<path style="fill:#840000; fill-opacity:0.0; 
stroke:#840000; stroke-width:0.2540; stroke-opacity:1; 
stroke-linecap:round; stroke-linejoin:round;fill:none"
d="M 81.9150,95.8850
83.1850,95.8850
" /> 
</g>
<g style="fill:#840000; fill-opacity:0.0; 
stroke:#840000; stroke-width:0.1524; stroke-opacity:1; 
stroke-linecap:round; stroke-linejoin:round;">
<path style="fill:#840000; fill-opacity:0.0; 
stroke:#840000; stroke-width:0.1524; stroke-opacity:1; 
stroke-linecap:round; stroke-linejoin:round;fill:none"
d="M 87.6300,94.6150
89.5350,92.7100
" /> 
</g>
<g style="fill:#840000; fill-opacity:1.0000; 
stroke:#840000; stroke-width:0.1524; stroke-opacity:1; 
stroke-linecap:round; stroke-linejoin:round;">
<path style="fill:#840000; fill-opacity:1.0000; 
stroke:#840000; stroke-width:0.1524; stroke-opacity:1; 
stroke-linecap:round; stroke-linejoin:round;fill-rule:evenodd;"
d="M 89.5350,97.7900
87.6300,95.8850
" /> 
</g>
<g style="fill:#840000; fill-opacity:0.0; 
stroke:#840000; stroke-width:0.1524; stroke-opacity:1; 
stroke-linecap:round; stroke-linejoin:round;">
<path style="fill:#840000; fill-opacity:0.0; 
stroke:#840000; stroke-width:0.1524; stroke-opacity:1; 
stroke-linecap:round; stroke-linejoin:round;fill:none"
d="M 89.5350,97.7900
90.1700,97.7900
" /> 
<path style="fill:#840000; fill-opacity:0.0; 
stroke:#840000; stroke-width:0.1524; stroke-opacity:1; 
stroke-linecap:round; stroke-linejoin:round;fill:none"
d="M 89.5350,92.7100
90.1700,92.7100
" /> 
<path style="fill:#840000; fill-opacity:0.0; 
stroke:#840000; stroke-width:0.1524; stroke-opacity:1; 
stroke-linecap:round; stroke-linejoin:round;fill:none"
d="M 80.0100,92.7100
82.5500,92.7100
82.5500,95.8850
" /> 
<path style="fill:#840000; fill-opacity:0.0; 
stroke:#840000; stroke-width:0.1524; stroke-opacity:1; 
stroke-linecap:round; stroke-linejoin:round;fill:none"
d="M 82.5500,95.8850
82.5500,97.7900
80.0100,97.7900
" /> 
</g>
<g style="fill:#840000; fill-opacity:0.0; 
stroke:#840000; stroke-width:0.5080; stroke-opacity:1; 
stroke-linecap:round; stroke-linejoin:round;">
<path style="fill:#840000; fill-opacity:0.0; 
stroke:#840000; stroke-width:0.5080; stroke-opacity:1; 
stroke-linecap:round; stroke-linejoin:round;fill:none"
d="M 87.6300,93.3450
87.6300,97.1550
87.6300,97.1550
" /> 
</g>
<g style="fill:#840000; fill-opacity:0.0; 
stroke:#840000; stroke-width:0.2540; stroke-opacity:1; 
stroke-linecap:round; stroke-linejoin:round;">
<path style="fill:#840000; fill-opacity:0.0; 
stroke:#840000; stroke-width:0.2540; stroke-opacity:1; 
stroke-linecap:round; stroke-linejoin:round;fill:none"
d="M 82.5500,95.8850
81.9150,94.6150
83.1850,94.6150
Z" /> 
</g>
<g style="fill:#840000; fill-opacity:0.0; 
stroke:#840000; stroke-width:0.1524; stroke-opacity:1; 
stroke-linecap:round; stroke-linejoin:round;">
<path style="fill:#840000; fill-opacity:0.0; 
stroke:#840000; stroke-width:0.1524; stroke-opacity:1; 
stroke-linecap:round; stroke-linejoin:round;fill:none"
d="M 84.5820,95.7580
85.8520,95.7580
85.4710,95.8850
85.4710,95.6310
85.8520,95.7580
" /> 
<path style="fill:#840000; fill-opacity:0.0; 
stroke:#840000; stroke-width:0.1524; stroke-opacity:1; 
stroke-linecap:round; stroke-linejoin:round;fill:none"
d="M 84.5820,94.7420
85.8520,94.7420
85.4710,94.8690
85.4710,94.6150
85.8520,94.7420
" /> 
</g>
<g style="fill:#840000; fill-opacity:1.0000; 
stroke:#840000; stroke-width:0.1524; stroke-opacity:1; 
stroke-linecap:round; stroke-linejoin:round;">
<path style="fill:#840000; fill-opacity:1.0000; 
stroke:#840000; stroke-width:0.1524; stroke-opacity:1; 
stroke-linecap:round; stroke-linejoin:round;fill-rule:evenodd;"
d="M 88.1380,96.9010
88.6460,96.3930
89.1540,97.4090
88.1380,96.9010
Z" /> 
</g>
<g style="fill:#840000; fill-opacity:0.0; 
stroke:#840000; stroke-width:0.1524; stroke-opacity:1; 
stroke-linecap:round; stroke-linejoin:round;">
<path d="M80.0100 92.7100
L77.4700 92.7100
" />
<path d="M80.0100 97.7900
L77.4700 97.7900
" />
<path d="M90.1700 97.7900
L92.7100 97.7900
" />
</g>
<g style="fill:#006464; fill-opacity:0.0; 
stroke:#006464; stroke-width:0.1524; stroke-opacity:1; 
stroke-linecap:round; stroke-linejoin:round;">
<text x="89.6620" y="98.4250"
textLength="1.3522" font-size="1.6933" lengthAdjust="spacingAndGlyphs"
text-anchor="end" opacity="0">E</text>
<g class="stroked-text"><desc>E</desc>
<path d="M88.7151 97.7043
L89.1385 97.7043
" />
<path d="M89.3199 98.3695
L88.7151 98.3695
" />
<path d="M88.7151 98.3695
L88.7151 97.0995
" />
<path d="M88.7151 97.0995
L89.3199 97.0995
" />
</g></g>
<g style="fill:#840000; fill-opacity:0.0; 
stroke:#840000; stroke-width:0.1524; stroke-opacity:1; 
stroke-linecap:round; stroke-linejoin:round;">
<path d="M90.1700 92.7100
L92.7100 92.7100
" />
</g>
<g style="fill:#006464; fill-opacity:0.0; 
stroke:#006464; stroke-width:0.1524; stroke-opacity:1; 
stroke-linecap:round; stroke-linejoin:round;">
<text x="89.6620" y="93.3450"
textLength="1.4732" font-size="1.6933" lengthAdjust="spacingAndGlyphs"
text-anchor="end" opacity="0">C</text>
<g class="stroked-text"><desc>C</desc>
<path d="M89.3198 93.1686
L89.2594 93.2291
" />
<path d="M89.2594 93.2291
L89.0779 93.2895
" />
<path d="M89.0779 93.2895
L88.9570 93.2895
" />
<path d="M88.9570 93.2895
L88.7756 93.2291
" />
<path d="M88.7756 93.2291
L88.6546 93.1081
" />
<path d="M88.6546 93.1081
L88.5941 92.9871
" />
<path d="M88.5941 92.9871
L88.5337 92.7452
" />
<path d="M88.5337 92.7452
L88.5337 92.5638
" />
<path d="M88.5337 92.5638
L88.5941 92.3219
" />
<path d="M88.5941 92.3219
L88.6546 92.2010
" />
<path d="M88.6546 92.2010
L88.7756 92.0800
" />
<path d="M88.7756 92.0800
L88.9570 92.0195
" />
<path d="M88.9570 92.0195
L89.0779 92.0195
" />
<path d="M89.0779 92.0195
L89.2594 92.0800
" />
<path d="M89.2594 92.0800
L89.3198 92.1405
" />
</g><text x="85.0900" y="86.9950"
textLength="2.7432" font-size="1.6933" lengthAdjust="spacingAndGlyphs"
text-anchor="middle" opacity="0">Q6</text>
<g class="stroked-text"><desc>Q6</desc>
<path d="M84.9690 87.0605
L84.8480 87.0000
" />
<path d="M84.8480 87.0000
L84.7271 86.8791
" />
<path d="M84.7271 86.8791
L84.5457 86.6976
" />
<path d="M84.5457 86.6976
L84.4247 86.6371
" />
<path d="M84.4247 86.6371
L84.3038 86.6371
" />
<path d="M84.3642 86.9395
L84.2433 86.8791
" />
<path d="M84.2433 86.8791
L84.1223 86.7581
" />
<path d="M84.1223 86.7581
L84.0619 86.5162
" />
<path d="M84.0619 86.5162
L84.0619 86.0929
" />
<path d="M84.0619 86.0929
L84.1223 85.8510
" />
<path d="M84.1223 85.8510
L84.2433 85.7300
" />
<path d="M84.2433 85.7300
L84.3642 85.6695
" />
<path d="M84.3642 85.6695
L84.6061 85.6695
" />
<path d="M84.6061 85.6695
L84.7271 85.7300
" />
<path d="M84.7271 85.7300
L84.8480 85.8510
" />
<path d="M84.8480 85.8510
L84.9085 86.0929
" />
<path d="M84.9085 86.0929
L84.9085 86.5162
" />
<path d="M84.9085 86.5162
L84.8480 86.7581
" />
<path d="M84.8480 86.7581
L84.7271 86.8791
" />
<path d="M84.7271 86.8791
L84.6061 86.9395
" />
<path d="M84.6061 86.9395
L84.3642 86.9395
" />
<path d="M85.9971 85.6695
L85.7552 85.6695
" />
<path d="M85.7552 85.6695
L85.6343 85.7300
" />
<path d="M85.6343 85.7300
L85.5738 85.7905
" />
<path d="M85.5738 85.7905
L85.4528 85.9719
" />
<path d="M85.4528 85.9719
L85.3924 86.2138
" />
<path d="M85.3924 86.2138
L85.3924 86.6976
" />
<path d="M85.3924 86.6976
L85.4528 86.8186
" />
<path d="M85.4528 86.8186
L85.5133 86.8791
" />
<path d="M85.5133 86.8791
L85.6343 86.9395
" />
<path d="M85.6343 86.9395
L85.8762 86.9395
" />
<path d="M85.8762 86.9395
L85.9971 86.8791
" />
<path d="M85.9971 86.8791
L86.0576 86.8186
" />
<path d="M86.0576 86.8186
L86.1181 86.6976
" />
<path d="M86.1181 86.6976
L86.1181 86.3952
" />
<path d="M86.1181 86.3952
L86.0576 86.2743
" />
<path d="M86.0576 86.2743
L85.9971 86.2138
" />
<path d="M85.9971 86.2138
L85.8762 86.1533
" />
<path d="M85.8762 86.1533
L85.6343 86.1533
" />
<path d="M85.6343 86.1533
L85.5133 86.2138
" />
<path d="M85.5133 86.2138
L85.4528 86.2743
" />
<path d="M85.4528 86.2743
L85.3924 86.3952
" />
</g><text x="85.0900" y="89.5350"
textLength="11.6330" font-size="1.6933" lengthAdjust="spacingAndGlyphs"
text-anchor="middle" opacity="0">Optocoupler</text>
<g class="stroked-text"><desc>Optocoupler</desc>
<path d="M79.9193 88.2095
L80.1612 88.2095
" />
<path d="M80.1612 88.2095
L80.2822 88.2700
" />
<path d="M80.2822 88.2700
L80.4031 88.3910
" />
<path d="M80.4031 88.3910
L80.4636 88.6329
" />
<path d="M80.4636 88.6329
L80.4636 89.0562
" />
<path d="M80.4636 89.0562
L80.4031 89.2981
" />
<path d="M80.4031 89.2981
L80.2822 89.4191
" />
<path d="M80.2822 89.4191
L80.1612 89.4795
" />
<path d="M80.1612 89.4795
L79.9193 89.4795
" />
<path d="M79.9193 89.4795
L79.7984 89.4191
" />
<path d="M79.7984 89.4191
L79.6774 89.2981
" />
<path d="M79.6774 89.2981
L79.6170 89.0562
" />
<path d="M79.6170 89.0562
L79.6170 88.6329
" />
<path d="M79.6170 88.6329
L79.6774 88.3910
" />
<path d="M79.6774 88.3910
L79.7984 88.2700
" />
<path d="M79.7984 88.2700
L79.9193 88.2095
" />
<path d="M81.0079 88.6329
L81.0079 89.9029
" />
<path d="M81.0079 88.6933
L81.1289 88.6329
" />
<path d="M81.1289 88.6329
L81.3708 88.6329
" />
<path d="M81.3708 88.6329
L81.4917 88.6933
" />
<path d="M81.4917 88.6933
L81.5522 88.7538
" />
<path d="M81.5522 88.7538
L81.6127 88.8748
" />
<path d="M81.6127 88.8748
L81.6127 89.2376
" />
<path d="M81.6127 89.2376
L81.5522 89.3586
" />
<path d="M81.5522 89.3586
L81.4917 89.4191
" />
<path d="M81.4917 89.4191
L81.3708 89.4795
" />
<path d="M81.3708 89.4795
L81.1289 89.4795
" />
<path d="M81.1289 89.4795
L81.0079 89.4191
" />
<path d="M81.9755 88.6329
L82.4593 88.6329
" />
<path d="M82.1569 88.2095
L82.1569 89.2981
" />
<path d="M82.1569 89.2981
L82.2174 89.4191
" />
<path d="M82.2174 89.4191
L82.3384 89.4795
" />
<path d="M82.3384 89.4795
L82.4593 89.4795
" />
<path d="M83.0641 89.4795
L82.9431 89.4191
" />
<path d="M82.9431 89.4191
L82.8826 89.3586
" />
<path d="M82.8826 89.3586
L82.8222 89.2376
" />
<path d="M82.8222 89.2376
L82.8222 88.8748
" />
<path d="M82.8222 88.8748
L82.8826 88.7538
" />
<path d="M82.8826 88.7538
L82.9431 88.6933
" />
<path d="M82.9431 88.6933
L83.0641 88.6329
" />
<path d="M83.0641 88.6329
L83.2455 88.6329
" />
<path d="M83.2455 88.6329
L83.3664 88.6933
" />
<path d="M83.3664 88.6933
L83.4269 88.7538
" />
<path d="M83.4269 88.7538
L83.4874 88.8748
" />
<path d="M83.4874 88.8748
L83.4874 89.2376
" />
<path d="M83.4874 89.2376
L83.4269 89.3586
" />
<path d="M83.4269 89.3586
L83.3664 89.4191
" />
<path d="M83.3664 89.4191
L83.2455 89.4795
" />
<path d="M83.2455 89.4795
L83.0641 89.4795
" />
<path d="M84.5759 89.4191
L84.4550 89.4795
" />
<path d="M84.4550 89.4795
L84.2131 89.4795
" />
<path d="M84.2131 89.4795
L84.0921 89.4191
" />
<path d="M84.0921 89.4191
L84.0316 89.3586
" />
<path d="M84.0316 89.3586
L83.9712 89.2376
" />
<path d="M83.9712 89.2376
L83.9712 88.8748
" />
<path d="M83.9712 88.8748
L84.0316 88.7538
" />
<path d="M84.0316 88.7538
L84.0921 88.6933
" />
<path d="M84.0921 88.6933
L84.2131 88.6329
" />
<path d="M84.2131 88.6329
L84.4550 88.6329
" />
<path d="M84.4550 88.6329
L84.5759 88.6933
" />
<path d="M85.3017 89.4795
L85.1807 89.4191
" />
<path d="M85.1807 89.4191
L85.1202 89.3586
" />
<path d="M85.1202 89.3586
L85.0598 89.2376
" />
<path d="M85.0598 89.2376
L85.0598 88.8748
" />
<path d="M85.0598 88.8748
L85.1202 88.7538
" />
<path d="M85.1202 88.7538
L85.1807 88.6933
" />
<path d="M85.1807 88.6933
L85.3017 88.6329
" />
<path d="M85.3017 88.6329
L85.4831 88.6329
" />
<path d="M85.4831 88.6329
L85.6040 88.6933
" />
<path d="M85.6040 88.6933
L85.6645 88.7538
" />
<path d="M85.6645 88.7538
L85.7250 88.8748
" />
<path d="M85.7250 88.8748
L85.7250 89.2376
" />
<path d="M85.7250 89.2376
L85.6645 89.3586
" />
<path d="M85.6645 89.3586
L85.6040 89.4191
" />
<path d="M85.6040 89.4191
L85.4831 89.4795
" />
<path d="M85.4831 89.4795
L85.3017 89.4795
" />
<path d="M86.8135 88.6329
L86.8135 89.4795
" />
<path d="M86.2692 88.6329
L86.2692 89.2981
" />
<path d="M86.2692 89.2981
L86.3297 89.4191
" />
<path d="M86.3297 89.4191
L86.4507 89.4795
" />
<path d="M86.4507 89.4795
L86.6321 89.4795
" />
<path d="M86.6321 89.4795
L86.7530 89.4191
" />
<path d="M86.7530 89.4191
L86.8135 89.3586
" />
<path d="M87.4182 88.6329
L87.4182 89.9029
" />
<path d="M87.4182 88.6933
L87.5392 88.6329
" />
<path d="M87.5392 88.6329
L87.7811 88.6329
" />
<path d="M87.7811 88.6329
L87.9020 88.6933
" />
<path d="M87.9020 88.6933
L87.9625 88.7538
" />
<path d="M87.9625 88.7538
L88.0230 88.8748
" />
<path d="M88.0230 88.8748
L88.0230 89.2376
" />
<path d="M88.0230 89.2376
L87.9625 89.3586
" />
<path d="M87.9625 89.3586
L87.9020 89.4191
" />
<path d="M87.9020 89.4191
L87.7811 89.4795
" />
<path d="M87.7811 89.4795
L87.5392 89.4795
" />
<path d="M87.5392 89.4795
L87.4182 89.4191
" />
<path d="M88.7487 89.4795
L88.6277 89.4191
" />
<path d="M88.6277 89.4191
L88.5672 89.2981
" />
<path d="M88.5672 89.2981
L88.5672 88.2095
" />
<path d="M89.7162 89.4191
L89.5953 89.4795
" />
<path d="M89.5953 89.4795
L89.3534 89.4795
" />
<path d="M89.3534 89.4795
L89.2324 89.4191
" />
<path d="M89.2324 89.4191
L89.1720 89.2981
" />
<path d="M89.1720 89.2981
L89.1720 88.8143
" />
<path d="M89.1720 88.8143
L89.2324 88.6933
" />
<path d="M89.2324 88.6933
L89.3534 88.6329
" />
<path d="M89.3534 88.6329
L89.5953 88.6329
" />
<path d="M89.5953 88.6329
L89.7162 88.6933
" />
<path d="M89.7162 88.6933
L89.7767 88.8143
" />
<path d="M89.7767 88.8143
L89.7767 88.9352
" />
<path d="M89.7767 88.9352
L89.1720 89.0562
" />
<path d="M90.3210 89.4795
L90.3210 88.6329
" />
<path d="M90.3210 88.8748
L90.3815 88.7538
" />
<path d="M90.3815 88.7538
L90.4420 88.6933
" />
<path d="M90.4420 88.6933
L90.5629 88.6329
" />
<path d="M90.5629 88.6329
L90.6839 88.6329
" />
</g></g>
</g> 
</svg>
