<svg xmlns:svg="http://www.w3.org/2000/svg" xmlns="http://www.w3.org/2000/svg" xmlns:xlink="http://www.w3.org/1999/xlink" version="1.1" viewBox="37.39 46.59 52.48 26.43">
<title>SVG Image created as kicad1.svg date 2024/01/27 14:57:44 </title>
  <desc>Image generated by Eeschema-SVG </desc>
<g style="fill:#000000; fill-opacity:1.0000;stroke:#000000; stroke-opacity:1.0000; stroke-linecap:round; stroke-linejoin:round;" transform="translate(0 0) scale(1 1)">
</g>
<g style="fill:#000000; fill-opacity:0.0;  stroke:#000000; stroke-width:0.1524; stroke-opacity:1;  stroke-linecap:round; stroke-linejoin:round;">
<g>
</g>
<g style="fill:#840000; fill-opacity:0.0;  stroke:#840000; stroke-width:0.1524; stroke-opacity:1;  stroke-linecap:round; stroke-linejoin:round;">
<path style="fill:#840000; fill-opacity:0.0;  stroke:#840000; stroke-width:0.1524; stroke-opacity:1;  stroke-linecap:round; stroke-linejoin:round;fill:none" d="M 43.8150,51.4350 45.7200,49.5300 "/> 
<path style="fill:#840000; fill-opacity:0.0;  stroke:#840000; stroke-width:0.1524; stroke-opacity:1;  stroke-linecap:round; stroke-linejoin:round;fill:none" d="M 43.8150,52.7050 45.7200,54.6100 45.7200,54.6100 "/> 
</g>
<g style="fill:#840000; fill-opacity:0.0;  stroke:#840000; stroke-width:0.5080; stroke-opacity:1;  stroke-linecap:round; stroke-linejoin:round;">
<path style="fill:#840000; fill-opacity:0.0;  stroke:#840000; stroke-width:0.5080; stroke-opacity:1;  stroke-linecap:round; stroke-linejoin:round;fill:none" d="M 43.8150,50.1650 43.8150,53.9750 43.8150,53.9750 "/> 
</g>
<g style="fill:#840000; fill-opacity:1.0000;  stroke:#840000; stroke-width:0.1524; stroke-opacity:1;  stroke-linecap:round; stroke-linejoin:round;">
<path style="fill:#840000; fill-opacity:1.0000;  stroke:#840000; stroke-width:0.1524; stroke-opacity:1;  stroke-linecap:round; stroke-linejoin:round;fill-rule:evenodd;" d="M 44.4500,53.8480 44.9580,53.3400 45.4660,54.3560 44.4500,53.8480 Z"/> 
</g>
<g style="fill:#840000; fill-opacity:0.0;  stroke:#840000; stroke-width:0.2540; stroke-opacity:1;  stroke-linecap:round; stroke-linejoin:round;">
<circle cx="44.4500" cy="52.0700" r="2.8194"/> 
</g>
<g style="fill:#840000; fill-opacity:0.0;  stroke:#840000; stroke-width:0.1524; stroke-opacity:1;  stroke-linecap:round; stroke-linejoin:round;">
<path d="M45.7200 54.6100 L45.7200 57.1500 "/>
</g>
<g style="fill:#006464; fill-opacity:0.0;  stroke:#006464; stroke-width:0.1524; stroke-opacity:1;  stroke-linecap:round; stroke-linejoin:round;">
<g transform="rotate(-90.000000 45.4660 55.8800)">
<text x="45.4660" y="55.8800" textLength="1.3522" font-size="1.6933" lengthAdjust="spacingAndGlyphs" text-anchor="middle" opacity="0">E</text>
</g>
<g class="stroked-text"><desc>E</desc>
<path d="M44.6373 56.1521 L44.6373 55.7287 "/>
<path d="M45.3025 55.5473 L45.3025 56.1521 "/>
<path d="M45.3025 56.1521 L44.0325 56.1521 "/>
<path d="M44.0325 56.1521 L44.0325 55.5473 "/>
</g></g>
<g style="fill:#840000; fill-opacity:0.0;  stroke:#840000; stroke-width:0.1524; stroke-opacity:1;  stroke-linecap:round; stroke-linejoin:round;">
<path d="M43.8150 52.0700 L38.1000 52.0700 "/>
</g>
<g style="fill:#006464; fill-opacity:0.0;  stroke:#006464; stroke-width:0.1524; stroke-opacity:1;  stroke-linecap:round; stroke-linejoin:round;">
<text x="40.9575" y="51.8160" textLength="1.4732" font-size="1.6933" lengthAdjust="spacingAndGlyphs" text-anchor="middle" opacity="0">B</text>
<g class="stroked-text"><desc>B</desc>
<path d="M41.0482 50.9873 L41.2296 51.0478 "/>
<path d="M41.2296 51.0478 L41.2901 51.1082 "/>
<path d="M41.2901 51.1082 L41.3505 51.2292 "/>
<path d="M41.3505 51.2292 L41.3505 51.4106 "/>
<path d="M41.3505 51.4106 L41.2901 51.5316 "/>
<path d="M41.2901 51.5316 L41.2296 51.5921 "/>
<path d="M41.2296 51.5921 L41.1086 51.6525 "/>
<path d="M41.1086 51.6525 L40.6248 51.6525 "/>
<path d="M40.6248 51.6525 L40.6248 50.3825 "/>
<path d="M40.6248 50.3825 L41.0482 50.3825 "/>
<path d="M41.0482 50.3825 L41.1691 50.4430 "/>
<path d="M41.1691 50.4430 L41.2296 50.5035 "/>
<path d="M41.2296 50.5035 L41.2901 50.6244 "/>
<path d="M41.2901 50.6244 L41.2901 50.7454 "/>
<path d="M41.2901 50.7454 L41.2296 50.8663 "/>
<path d="M41.2296 50.8663 L41.1691 50.9268 "/>
<path d="M41.1691 50.9268 L41.0482 50.9873 "/>
<path d="M41.0482 50.9873 L40.6248 50.9873 "/>
</g></g>
<g style="fill:#840000; fill-opacity:0.0;  stroke:#840000; stroke-width:0.1524; stroke-opacity:1;  stroke-linecap:round; stroke-linejoin:round;">
<path d="M45.7200 49.5300 L45.7200 46.9900 "/>
</g>
<g style="fill:#006464; fill-opacity:0.0;  stroke:#006464; stroke-width:0.1524; stroke-opacity:1;  stroke-linecap:round; stroke-linejoin:round;">
<g transform="rotate(-90.000000 45.4660 48.2600)">
<text x="45.4660" y="48.2600" textLength="1.4732" font-size="1.6933" lengthAdjust="spacingAndGlyphs" text-anchor="middle" opacity="0">C</text>
</g>
<g class="stroked-text"><desc>C</desc>
<path d="M45.1816 47.8669 L45.2421 47.9273 "/>
<path d="M45.2421 47.9273 L45.3025 48.1088 "/>
<path d="M45.3025 48.1088 L45.3025 48.2297 "/>
<path d="M45.3025 48.2297 L45.2421 48.4111 "/>
<path d="M45.2421 48.4111 L45.1211 48.5321 "/>
<path d="M45.1211 48.5321 L45.0001 48.5926 "/>
<path d="M45.0001 48.5926 L44.7582 48.6530 "/>
<path d="M44.7582 48.6530 L44.5768 48.6530 "/>
<path d="M44.5768 48.6530 L44.3349 48.5926 "/>
<path d="M44.3349 48.5926 L44.2140 48.5321 "/>
<path d="M44.2140 48.5321 L44.0930 48.4111 "/>
<path d="M44.0930 48.4111 L44.0325 48.2297 "/>
<path d="M44.0325 48.2297 L44.0325 48.1088 "/>
<path d="M44.0325 48.1088 L44.0930 47.9273 "/>
<path d="M44.0930 47.9273 L44.1535 47.8669 "/>
</g><text x="49.6412" y="51.4350" textLength="2.7432" font-size="1.6933" lengthAdjust="spacingAndGlyphs" text-anchor="middle" opacity="0">Q1</text>
<g class="stroked-text"><desc>Q1</desc>
<path d="M49.5202 51.5005 L49.3992 51.4400 "/>
<path d="M49.3992 51.4400 L49.2783 51.3191 "/>
<path d="M49.2783 51.3191 L49.0969 51.1376 "/>
<path d="M49.0969 51.1376 L48.9759 51.0771 "/>
<path d="M48.9759 51.0771 L48.8550 51.0771 "/>
<path d="M48.9154 51.3795 L48.7945 51.3191 "/>
<path d="M48.7945 51.3191 L48.6735 51.1981 "/>
<path d="M48.6735 51.1981 L48.6131 50.9562 "/>
<path d="M48.6131 50.9562 L48.6131 50.5329 "/>
<path d="M48.6131 50.5329 L48.6735 50.2910 "/>
<path d="M48.6735 50.2910 L48.7945 50.1700 "/>
<path d="M48.7945 50.1700 L48.9154 50.1095 "/>
<path d="M48.9154 50.1095 L49.1573 50.1095 "/>
<path d="M49.1573 50.1095 L49.2783 50.1700 "/>
<path d="M49.2783 50.1700 L49.3992 50.2910 "/>
<path d="M49.3992 50.2910 L49.4597 50.5329 "/>
<path d="M49.4597 50.5329 L49.4597 50.9562 "/>
<path d="M49.4597 50.9562 L49.3992 51.1981 "/>
<path d="M49.3992 51.1981 L49.2783 51.3191 "/>
<path d="M49.2783 51.3191 L49.1573 51.3795 "/>
<path d="M49.1573 51.3795 L48.9154 51.3795 "/>
<path d="M50.6693 51.3795 L49.9436 51.3795 "/>
<path d="M50.3064 51.3795 L50.3064 50.1095 "/>
<path d="M50.3064 50.1095 L50.1855 50.2910 "/>
<path d="M50.1855 50.2910 L50.0645 50.4119 "/>
<path d="M50.0645 50.4119 L49.9436 50.4724 "/>
</g><text x="50.3367" y="53.9750" textLength="4.1342" font-size="1.6933" lengthAdjust="spacingAndGlyphs" text-anchor="middle" opacity="0">NPN</text>
<g class="stroked-text"><desc>NPN</desc>
<path d="M48.6735 53.9195 L48.6735 52.6495 "/>
<path d="M48.6735 52.6495 L49.3992 53.9195 "/>
<path d="M49.3992 53.9195 L49.3992 52.6495 "/>
<path d="M50.0040 53.9195 L50.0040 52.6495 "/>
<path d="M50.0040 52.6495 L50.4878 52.6495 "/>
<path d="M50.4878 52.6495 L50.6088 52.7100 "/>
<path d="M50.6088 52.7100 L50.6693 52.7705 "/>
<path d="M50.6693 52.7705 L50.7297 52.8914 "/>
<path d="M50.7297 52.8914 L50.7297 53.0729 "/>
<path d="M50.7297 53.0729 L50.6693 53.1938 "/>
<path d="M50.6693 53.1938 L50.6088 53.2543 "/>
<path d="M50.6088 53.2543 L50.4878 53.3148 "/>
<path d="M50.4878 53.3148 L50.0040 53.3148 "/>
<path d="M51.2740 53.9195 L51.2740 52.6495 "/>
<path d="M51.2740 52.6495 L51.9997 53.9195 "/>
<path d="M51.9997 53.9195 L51.9997 52.6495 "/>
</g></g>
</g>
<g style="fill:#006464; fill-opacity:0.0;  stroke:#006464; stroke-width:0.1524; stroke-opacity:1;  stroke-linecap:round; stroke-linejoin:round;">
<g>
</g>
<g style="fill:#840000; fill-opacity:0.0;  stroke:#840000; stroke-width:0.1524; stroke-opacity:1;  stroke-linecap:round; stroke-linejoin:round;">
<path style="fill:#840000; fill-opacity:0.0;  stroke:#840000; stroke-width:0.1524; stroke-opacity:1;  stroke-linecap:round; stroke-linejoin:round;fill:none" d="M 43.4340,67.3100 40.6400,67.3100 "/> 
</g>
<g style="fill:#840000; fill-opacity:0.0;  stroke:#840000; stroke-width:0.2540; stroke-opacity:1;  stroke-linecap:round; stroke-linejoin:round;">
<path style="fill:#840000; fill-opacity:0.0;  stroke:#840000; stroke-width:0.2540; stroke-opacity:1;  stroke-linecap:round; stroke-linejoin:round;fill:none" d="M 43.4340,65.4050 43.4340,69.2150 "/> 
<path style="fill:#840000; fill-opacity:0.0;  stroke:#840000; stroke-width:0.2540; stroke-opacity:1;  stroke-linecap:round; stroke-linejoin:round;fill:none" d="M 43.9420,68.5800 43.9420,69.5960 "/> 
<path style="fill:#840000; fill-opacity:0.0;  stroke:#840000; stroke-width:0.2540; stroke-opacity:1;  stroke-linecap:round; stroke-linejoin:round;fill:none" d="M 43.9420,66.8020 43.9420,67.8180 "/> 
<path style="fill:#840000; fill-opacity:0.0;  stroke:#840000; stroke-width:0.2540; stroke-opacity:1;  stroke-linecap:round; stroke-linejoin:round;fill:none" d="M 43.9420,65.0240 43.9420,66.0400 "/> 
</g>
<g style="fill:#840000; fill-opacity:0.0;  stroke:#840000; stroke-width:0.1524; stroke-opacity:1;  stroke-linecap:round; stroke-linejoin:round;">
<path style="fill:#840000; fill-opacity:0.0;  stroke:#840000; stroke-width:0.1524; stroke-opacity:1;  stroke-linecap:round; stroke-linejoin:round;fill:none" d="M 45.7200,64.7700 45.7200,65.5320 "/> 
<path style="fill:#840000; fill-opacity:0.0;  stroke:#840000; stroke-width:0.1524; stroke-opacity:1;  stroke-linecap:round; stroke-linejoin:round;fill:none" d="M 45.7200,69.8500 45.7200,67.3100 43.9420,67.3100 "/> 
<path style="fill:#840000; fill-opacity:0.0;  stroke:#840000; stroke-width:0.1524; stroke-opacity:1;  stroke-linecap:round; stroke-linejoin:round;fill:none" d="M 43.9420,69.0880 46.4820,69.0880 46.4820,65.5320 43.9420,65.5320 "/> 
</g>
<g style="fill:#840000; fill-opacity:1.0000;  stroke:#840000; stroke-width:0.1524; stroke-opacity:1;  stroke-linecap:round; stroke-linejoin:round;">
<path style="fill:#840000; fill-opacity:1.0000;  stroke:#840000; stroke-width:0.1524; stroke-opacity:1;  stroke-linecap:round; stroke-linejoin:round;fill-rule:evenodd;" d="M 44.1960,67.3100 45.2120,66.9290 45.2120,67.6910 Z"/> 
</g>
<g style="fill:#840000; fill-opacity:0.0;  stroke:#840000; stroke-width:0.1524; stroke-opacity:1;  stroke-linecap:round; stroke-linejoin:round;">
<path style="fill:#840000; fill-opacity:0.0;  stroke:#840000; stroke-width:0.1524; stroke-opacity:1;  stroke-linecap:round; stroke-linejoin:round;fill:none" d="M 45.9740,66.8020 46.1010,66.9290 46.8630,66.9290 46.9900,67.0560 "/> 
<path style="fill:#840000; fill-opacity:0.0;  stroke:#840000; stroke-width:0.1524; stroke-opacity:1;  stroke-linecap:round; stroke-linejoin:round;fill:none" d="M 46.4820,66.9290 46.1010,67.5640 46.8630,67.5640 Z"/> 
</g>
<g style="fill:#840000; fill-opacity:0.0;  stroke:#840000; stroke-width:0.2540; stroke-opacity:1;  stroke-linecap:round; stroke-linejoin:round;">
<circle cx="44.8310" cy="67.3100" r="2.7940"/> 
</g>
<g style="fill:#840000; fill-opacity:1.0000;  stroke:#840000; stroke-width:0.1524; stroke-opacity:1;  stroke-linecap:round; stroke-linejoin:round;">
<circle cx="45.7200" cy="69.0880" r="0.2540"/> 
<circle cx="45.7200" cy="65.5320" r="0.2540"/> 
</g>
<g style="fill:#840000; fill-opacity:0.0;  stroke:#840000; stroke-width:0.1524; stroke-opacity:1;  stroke-linecap:round; stroke-linejoin:round;">
<path d="M45.7200 64.7700 L45.7200 62.2300 "/>
</g>
<g style="fill:#006464; fill-opacity:0.0;  stroke:#006464; stroke-width:0.1524; stroke-opacity:1;  stroke-linecap:round; stroke-linejoin:round;">
<g transform="rotate(-90.000000 45.4660 63.5000)">
<text x="45.4660" y="63.5000" textLength="1.4732" font-size="1.6933" lengthAdjust="spacingAndGlyphs" text-anchor="middle" opacity="0">D</text>
</g>
<g class="stroked-text"><desc>D</desc>
<path d="M45.3025 63.8326 L44.0325 63.8326 "/>
<path d="M44.0325 63.8326 L44.0325 63.5302 "/>
<path d="M44.0325 63.5302 L44.0930 63.3488 "/>
<path d="M44.0930 63.3488 L44.2140 63.2278 "/>
<path d="M44.2140 63.2278 L44.3349 63.1673 "/>
<path d="M44.3349 63.1673 L44.5768 63.1069 "/>
<path d="M44.5768 63.1069 L44.7582 63.1069 "/>
<path d="M44.7582 63.1069 L45.0001 63.1673 "/>
<path d="M45.0001 63.1673 L45.1211 63.2278 "/>
<path d="M45.1211 63.2278 L45.2421 63.3488 "/>
<path d="M45.2421 63.3488 L45.3025 63.5302 "/>
<path d="M45.3025 63.5302 L45.3025 63.8326 "/>
</g></g>
<g style="fill:#840000; fill-opacity:0.0;  stroke:#840000; stroke-width:0.1524; stroke-opacity:1;  stroke-linecap:round; stroke-linejoin:round;">
<path d="M40.6400 67.3100 L38.1000 67.3100 "/>
</g>
<g style="fill:#006464; fill-opacity:0.0;  stroke:#006464; stroke-width:0.1524; stroke-opacity:1;  stroke-linecap:round; stroke-linejoin:round;">
<text x="39.3700" y="67.0560" textLength="1.4732" font-size="1.6933" lengthAdjust="spacingAndGlyphs" text-anchor="middle" opacity="0">G</text>
<g class="stroked-text"><desc>G</desc>
<path d="M39.7026 65.6830 L39.5816 65.6225 "/>
<path d="M39.5816 65.6225 L39.4002 65.6225 "/>
<path d="M39.4002 65.6225 L39.2188 65.6830 "/>
<path d="M39.2188 65.6830 L39.0978 65.8040 "/>
<path d="M39.0978 65.8040 L39.0373 65.9249 "/>
<path d="M39.0373 65.9249 L38.9769 66.1668 "/>
<path d="M38.9769 66.1668 L38.9769 66.3482 "/>
<path d="M38.9769 66.3482 L39.0373 66.5901 "/>
<path d="M39.0373 66.5901 L39.0978 66.7111 "/>
<path d="M39.0978 66.7111 L39.2188 66.8321 "/>
<path d="M39.2188 66.8321 L39.4002 66.8925 "/>
<path d="M39.4002 66.8925 L39.5211 66.8925 "/>
<path d="M39.5211 66.8925 L39.7026 66.8321 "/>
<path d="M39.7026 66.8321 L39.7630 66.7716 "/>
<path d="M39.7630 66.7716 L39.7630 66.3482 "/>
<path d="M39.7630 66.3482 L39.5211 66.3482 "/>
</g></g>
<g style="fill:#840000; fill-opacity:0.0;  stroke:#840000; stroke-width:0.1524; stroke-opacity:1;  stroke-linecap:round; stroke-linejoin:round;">
<path d="M45.7200 69.8500 L45.7200 72.3900 "/>
</g>
<g style="fill:#006464; fill-opacity:0.0;  stroke:#006464; stroke-width:0.1524; stroke-opacity:1;  stroke-linecap:round; stroke-linejoin:round;">
<g transform="rotate(-90.000000 45.4660 71.1200)">
<text x="45.4660" y="71.1200" textLength="1.4127" font-size="1.6933" lengthAdjust="spacingAndGlyphs" text-anchor="middle" opacity="0">S</text>
</g>
<g class="stroked-text"><desc>S</desc>
<path d="M45.2421 71.4827 L45.3025 71.3013 "/>
<path d="M45.3025 71.3013 L45.3025 70.9989 "/>
<path d="M45.3025 70.9989 L45.2421 70.8780 "/>
<path d="M45.2421 70.8780 L45.1816 70.8175 "/>
<path d="M45.1816 70.8175 L45.0606 70.7570 "/>
<path d="M45.0606 70.7570 L44.9397 70.7570 "/>
<path d="M44.9397 70.7570 L44.8187 70.8175 "/>
<path d="M44.8187 70.8175 L44.7582 70.8780 "/>
<path d="M44.7582 70.8780 L44.6978 70.9989 "/>
<path d="M44.6978 70.9989 L44.6373 71.2408 "/>
<path d="M44.6373 71.2408 L44.5768 71.3618 "/>
<path d="M44.5768 71.3618 L44.5163 71.4223 "/>
<path d="M44.5163 71.4223 L44.3954 71.4827 "/>
<path d="M44.3954 71.4827 L44.2744 71.4827 "/>
<path d="M44.2744 71.4827 L44.1535 71.4223 "/>
<path d="M44.1535 71.4223 L44.0930 71.3618 "/>
<path d="M44.0930 71.3618 L44.0325 71.2408 "/>
<path d="M44.0325 71.2408 L44.0325 70.9385 "/>
<path d="M44.0325 70.9385 L44.0930 70.7570 "/>
</g><text x="50.9112" y="66.6750" textLength="2.7432" font-size="1.6933" lengthAdjust="spacingAndGlyphs" text-anchor="middle" opacity="0">Q3</text>
<g class="stroked-text"><desc>Q3</desc>
<path d="M50.7902 66.7405 L50.6692 66.6800 "/>
<path d="M50.6692 66.6800 L50.5483 66.5591 "/>
<path d="M50.5483 66.5591 L50.3669 66.3776 "/>
<path d="M50.3669 66.3776 L50.2459 66.3171 "/>
<path d="M50.2459 66.3171 L50.1250 66.3171 "/>
<path d="M50.1854 66.6195 L50.0645 66.5591 "/>
<path d="M50.0645 66.5591 L49.9435 66.4381 "/>
<path d="M49.9435 66.4381 L49.8831 66.1962 "/>
<path d="M49.8831 66.1962 L49.8831 65.7729 "/>
<path d="M49.8831 65.7729 L49.9435 65.5310 "/>
<path d="M49.9435 65.5310 L50.0645 65.4100 "/>
<path d="M50.0645 65.4100 L50.1854 65.3495 "/>
<path d="M50.1854 65.3495 L50.4273 65.3495 "/>
<path d="M50.4273 65.3495 L50.5483 65.4100 "/>
<path d="M50.5483 65.4100 L50.6692 65.5310 "/>
<path d="M50.6692 65.5310 L50.7297 65.7729 "/>
<path d="M50.7297 65.7729 L50.7297 66.1962 "/>
<path d="M50.7297 66.1962 L50.6692 66.4381 "/>
<path d="M50.6692 66.4381 L50.5483 66.5591 "/>
<path d="M50.5483 66.5591 L50.4273 66.6195 "/>
<path d="M50.4273 66.6195 L50.1854 66.6195 "/>
<path d="M51.1531 65.3495 L51.9393 65.3495 "/>
<path d="M51.9393 65.3495 L51.5159 65.8333 "/>
<path d="M51.5159 65.8333 L51.6974 65.8333 "/>
<path d="M51.6974 65.8333 L51.8183 65.8938 "/>
<path d="M51.8183 65.8938 L51.8788 65.9543 "/>
<path d="M51.8788 65.9543 L51.9393 66.0752 "/>
<path d="M51.9393 66.0752 L51.9393 66.3776 "/>
<path d="M51.9393 66.3776 L51.8788 66.4986 "/>
<path d="M51.8788 66.4986 L51.8183 66.5591 "/>
<path d="M51.8183 66.5591 L51.6974 66.6195 "/>
<path d="M51.6974 66.6195 L51.3345 66.6195 "/>
<path d="M51.3345 66.6195 L51.2136 66.5591 "/>
<path d="M51.2136 66.5591 L51.1531 66.4986 "/>
</g><text x="55.3562" y="69.2150" textLength="11.6333" font-size="1.6933" lengthAdjust="spacingAndGlyphs" text-anchor="middle" opacity="0">N-CHANNEL</text>
<g class="stroked-text"><desc>N-CHANNEL</desc>
<path d="M49.9435 69.1595 L49.9435 67.8895 "/>
<path d="M49.9435 67.8895 L50.6692 69.1595 "/>
<path d="M50.6692 69.1595 L50.6692 67.8895 "/>
<path d="M51.2740 68.6757 L52.2417 68.6757 "/>
<path d="M53.5721 69.0386 L53.5117 69.0991 "/>
<path d="M53.5117 69.0991 L53.3302 69.1595 "/>
<path d="M53.3302 69.1595 L53.2093 69.1595 "/>
<path d="M53.2093 69.1595 L53.0279 69.0991 "/>
<path d="M53.0279 69.0991 L52.9069 68.9781 "/>
<path d="M52.9069 68.9781 L52.8464 68.8571 "/>
<path d="M52.8464 68.8571 L52.7860 68.6152 "/>
<path d="M52.7860 68.6152 L52.7860 68.4338 "/>
<path d="M52.7860 68.4338 L52.8464 68.1919 "/>
<path d="M52.8464 68.1919 L52.9069 68.0710 "/>
<path d="M52.9069 68.0710 L53.0279 67.9500 "/>
<path d="M53.0279 67.9500 L53.2093 67.8895 "/>
<path d="M53.2093 67.8895 L53.3302 67.8895 "/>
<path d="M53.3302 67.8895 L53.5117 67.9500 "/>
<path d="M53.5117 67.9500 L53.5721 68.0105 "/>
<path d="M54.1164 69.1595 L54.1164 67.8895 "/>
<path d="M54.1164 68.4943 L54.8421 68.4943 "/>
<path d="M54.8421 69.1595 L54.8421 67.8895 "/>
<path d="M55.3865 68.7967 L55.9912 68.7967 "/>
<path d="M55.2655 69.1595 L55.6888 67.8895 "/>
<path d="M55.6888 67.8895 L56.1122 69.1595 "/>
<path d="M56.5355 69.1595 L56.5355 67.8895 "/>
<path d="M56.5355 67.8895 L57.2612 69.1595 "/>
<path d="M57.2612 69.1595 L57.2612 67.8895 "/>
<path d="M57.8660 69.1595 L57.8660 67.8895 "/>
<path d="M57.8660 67.8895 L58.5917 69.1595 "/>
<path d="M58.5917 69.1595 L58.5917 67.8895 "/>
<path d="M59.1965 68.4943 L59.6199 68.4943 "/>
<path d="M59.8013 69.1595 L59.1965 69.1595 "/>
<path d="M59.1965 69.1595 L59.1965 67.8895 "/>
<path d="M59.1965 67.8895 L59.8013 67.8895 "/>
<path d="M60.9503 69.1595 L60.3455 69.1595 "/>
<path d="M60.3455 69.1595 L60.3455 67.8895 "/>
</g></g>
</g>
<g style="fill:#006464; fill-opacity:0.0;  stroke:#006464; stroke-width:0.1524; stroke-opacity:1;  stroke-linecap:round; stroke-linejoin:round;">
<g>
</g>
<g style="fill:#840000; fill-opacity:0.0;  stroke:#840000; stroke-width:0.1524; stroke-opacity:1;  stroke-linecap:round; stroke-linejoin:round;">
<path style="fill:#840000; fill-opacity:0.0;  stroke:#840000; stroke-width:0.1524; stroke-opacity:1;  stroke-linecap:round; stroke-linejoin:round;fill:none" d="M 71.7550,51.4350 73.6600,49.5300 "/> 
<path style="fill:#840000; fill-opacity:0.0;  stroke:#840000; stroke-width:0.1524; stroke-opacity:1;  stroke-linecap:round; stroke-linejoin:round;fill:none" d="M 71.7550,52.7050 73.6600,54.6100 73.6600,54.6100 "/> 
</g>
<g style="fill:#840000; fill-opacity:0.0;  stroke:#840000; stroke-width:0.5080; stroke-opacity:1;  stroke-linecap:round; stroke-linejoin:round;">
<path style="fill:#840000; fill-opacity:0.0;  stroke:#840000; stroke-width:0.5080; stroke-opacity:1;  stroke-linecap:round; stroke-linejoin:round;fill:none" d="M 71.7550,50.1650 71.7550,53.9750 71.7550,53.9750 "/> 
</g>
<g style="fill:#840000; fill-opacity:1.0000;  stroke:#840000; stroke-width:0.1524; stroke-opacity:1;  stroke-linecap:round; stroke-linejoin:round;">
<path style="fill:#840000; fill-opacity:1.0000;  stroke:#840000; stroke-width:0.1524; stroke-opacity:1;  stroke-linecap:round; stroke-linejoin:round;fill-rule:evenodd;" d="M 73.4060,53.8480 72.8980,54.3560 72.3900,53.3400 73.4060,53.8480 Z"/> 
</g>
<g style="fill:#840000; fill-opacity:0.0;  stroke:#840000; stroke-width:0.2540; stroke-opacity:1;  stroke-linecap:round; stroke-linejoin:round;">
<circle cx="72.3900" cy="52.0700" r="2.8194"/> 
</g>
<g style="fill:#840000; fill-opacity:0.0;  stroke:#840000; stroke-width:0.1524; stroke-opacity:1;  stroke-linecap:round; stroke-linejoin:round;">
<path d="M73.6600 54.6100 L73.6600 57.1500 "/>
</g>
<g style="fill:#006464; fill-opacity:0.0;  stroke:#006464; stroke-width:0.1524; stroke-opacity:1;  stroke-linecap:round; stroke-linejoin:round;">
<g transform="rotate(-90.000000 73.4060 55.8800)">
<text x="73.4060" y="55.8800" textLength="1.3522" font-size="1.6933" lengthAdjust="spacingAndGlyphs" text-anchor="middle" opacity="0">E</text>
</g>
<g class="stroked-text"><desc>E</desc>
<path d="M72.5773 56.1521 L72.5773 55.7287 "/>
<path d="M73.2425 55.5473 L73.2425 56.1521 "/>
<path d="M73.2425 56.1521 L71.9725 56.1521 "/>
<path d="M71.9725 56.1521 L71.9725 55.5473 "/>
</g></g>
<g style="fill:#840000; fill-opacity:0.0;  stroke:#840000; stroke-width:0.1524; stroke-opacity:1;  stroke-linecap:round; stroke-linejoin:round;">
<path d="M71.7550 52.0700 L66.0400 52.0700 "/>
</g>
<g style="fill:#006464; fill-opacity:0.0;  stroke:#006464; stroke-width:0.1524; stroke-opacity:1;  stroke-linecap:round; stroke-linejoin:round;">
<text x="68.8975" y="51.8160" textLength="1.4732" font-size="1.6933" lengthAdjust="spacingAndGlyphs" text-anchor="middle" opacity="0">B</text>
<g class="stroked-text"><desc>B</desc>
<path d="M68.9882 50.9873 L69.1696 51.0478 "/>
<path d="M69.1696 51.0478 L69.2301 51.1082 "/>
<path d="M69.2301 51.1082 L69.2905 51.2292 "/>
<path d="M69.2905 51.2292 L69.2905 51.4106 "/>
<path d="M69.2905 51.4106 L69.2301 51.5316 "/>
<path d="M69.2301 51.5316 L69.1696 51.5921 "/>
<path d="M69.1696 51.5921 L69.0486 51.6525 "/>
<path d="M69.0486 51.6525 L68.5648 51.6525 "/>
<path d="M68.5648 51.6525 L68.5648 50.3825 "/>
<path d="M68.5648 50.3825 L68.9882 50.3825 "/>
<path d="M68.9882 50.3825 L69.1091 50.4430 "/>
<path d="M69.1091 50.4430 L69.1696 50.5035 "/>
<path d="M69.1696 50.5035 L69.2301 50.6244 "/>
<path d="M69.2301 50.6244 L69.2301 50.7454 "/>
<path d="M69.2301 50.7454 L69.1696 50.8663 "/>
<path d="M69.1696 50.8663 L69.1091 50.9268 "/>
<path d="M69.1091 50.9268 L68.9882 50.9873 "/>
<path d="M68.9882 50.9873 L68.5648 50.9873 "/>
</g></g>
<g style="fill:#840000; fill-opacity:0.0;  stroke:#840000; stroke-width:0.1524; stroke-opacity:1;  stroke-linecap:round; stroke-linejoin:round;">
<path d="M73.6600 49.5300 L73.6600 46.9900 "/>
</g>
<g style="fill:#006464; fill-opacity:0.0;  stroke:#006464; stroke-width:0.1524; stroke-opacity:1;  stroke-linecap:round; stroke-linejoin:round;">
<g transform="rotate(-90.000000 73.4060 48.2600)">
<text x="73.4060" y="48.2600" textLength="1.4732" font-size="1.6933" lengthAdjust="spacingAndGlyphs" text-anchor="middle" opacity="0">C</text>
</g>
<g class="stroked-text"><desc>C</desc>
<path d="M73.1216 47.8669 L73.1821 47.9273 "/>
<path d="M73.1821 47.9273 L73.2425 48.1088 "/>
<path d="M73.2425 48.1088 L73.2425 48.2297 "/>
<path d="M73.2425 48.2297 L73.1821 48.4111 "/>
<path d="M73.1821 48.4111 L73.0611 48.5321 "/>
<path d="M73.0611 48.5321 L72.9401 48.5926 "/>
<path d="M72.9401 48.5926 L72.6982 48.6530 "/>
<path d="M72.6982 48.6530 L72.5168 48.6530 "/>
<path d="M72.5168 48.6530 L72.2749 48.5926 "/>
<path d="M72.2749 48.5926 L72.1540 48.5321 "/>
<path d="M72.1540 48.5321 L72.0330 48.4111 "/>
<path d="M72.0330 48.4111 L71.9725 48.2297 "/>
<path d="M71.9725 48.2297 L71.9725 48.1088 "/>
<path d="M71.9725 48.1088 L72.0330 47.9273 "/>
<path d="M72.0330 47.9273 L72.0935 47.8669 "/>
</g><text x="77.5812" y="51.4350" textLength="2.7432" font-size="1.6933" lengthAdjust="spacingAndGlyphs" text-anchor="middle" opacity="0">Q2</text>
<g class="stroked-text"><desc>Q2</desc>
<path d="M77.4602 51.5005 L77.3392 51.4400 "/>
<path d="M77.3392 51.4400 L77.2183 51.3191 "/>
<path d="M77.2183 51.3191 L77.0369 51.1376 "/>
<path d="M77.0369 51.1376 L76.9159 51.0771 "/>
<path d="M76.9159 51.0771 L76.7950 51.0771 "/>
<path d="M76.8554 51.3795 L76.7345 51.3191 "/>
<path d="M76.7345 51.3191 L76.6135 51.1981 "/>
<path d="M76.6135 51.1981 L76.5531 50.9562 "/>
<path d="M76.5531 50.9562 L76.5531 50.5329 "/>
<path d="M76.5531 50.5329 L76.6135 50.2910 "/>
<path d="M76.6135 50.2910 L76.7345 50.1700 "/>
<path d="M76.7345 50.1700 L76.8554 50.1095 "/>
<path d="M76.8554 50.1095 L77.0973 50.1095 "/>
<path d="M77.0973 50.1095 L77.2183 50.1700 "/>
<path d="M77.2183 50.1700 L77.3392 50.2910 "/>
<path d="M77.3392 50.2910 L77.3997 50.5329 "/>
<path d="M77.3997 50.5329 L77.3997 50.9562 "/>
<path d="M77.3997 50.9562 L77.3392 51.1981 "/>
<path d="M77.3392 51.1981 L77.2183 51.3191 "/>
<path d="M77.2183 51.3191 L77.0973 51.3795 "/>
<path d="M77.0973 51.3795 L76.8554 51.3795 "/>
<path d="M77.8836 50.2305 L77.9440 50.1700 "/>
<path d="M77.9440 50.1700 L78.0650 50.1095 "/>
<path d="M78.0650 50.1095 L78.3674 50.1095 "/>
<path d="M78.3674 50.1095 L78.4883 50.1700 "/>
<path d="M78.4883 50.1700 L78.5488 50.2305 "/>
<path d="M78.5488 50.2305 L78.6093 50.3514 "/>
<path d="M78.6093 50.3514 L78.6093 50.4724 "/>
<path d="M78.6093 50.4724 L78.5488 50.6538 "/>
<path d="M78.5488 50.6538 L77.8231 51.3795 "/>
<path d="M77.8231 51.3795 L78.6093 51.3795 "/>
</g><text x="78.2464" y="53.9750" textLength="4.0737" font-size="1.6933" lengthAdjust="spacingAndGlyphs" text-anchor="middle" opacity="0">PNP</text>
<g class="stroked-text"><desc>PNP</desc>
<path d="M76.6135 53.9195 L76.6135 52.6495 "/>
<path d="M76.6135 52.6495 L77.0973 52.6495 "/>
<path d="M77.0973 52.6495 L77.2183 52.7100 "/>
<path d="M77.2183 52.7100 L77.2788 52.7705 "/>
<path d="M77.2788 52.7705 L77.3392 52.8914 "/>
<path d="M77.3392 52.8914 L77.3392 53.0729 "/>
<path d="M77.3392 53.0729 L77.2788 53.1938 "/>
<path d="M77.2788 53.1938 L77.2183 53.2543 "/>
<path d="M77.2183 53.2543 L77.0973 53.3148 "/>
<path d="M77.0973 53.3148 L76.6135 53.3148 "/>
<path d="M77.8835 53.9195 L77.8835 52.6495 "/>
<path d="M77.8835 52.6495 L78.6092 53.9195 "/>
<path d="M78.6092 53.9195 L78.6092 52.6495 "/>
<path d="M79.2140 53.9195 L79.2140 52.6495 "/>
<path d="M79.2140 52.6495 L79.6978 52.6495 "/>
<path d="M79.6978 52.6495 L79.8188 52.7100 "/>
<path d="M79.8188 52.7100 L79.8793 52.7705 "/>
<path d="M79.8793 52.7705 L79.9397 52.8914 "/>
<path d="M79.9397 52.8914 L79.9397 53.0729 "/>
<path d="M79.9397 53.0729 L79.8793 53.1938 "/>
<path d="M79.8793 53.1938 L79.8188 53.2543 "/>
<path d="M79.8188 53.2543 L79.6978 53.3148 "/>
<path d="M79.6978 53.3148 L79.2140 53.3148 "/>
</g></g>
</g>
<g style="fill:#006464; fill-opacity:0.0;  stroke:#006464; stroke-width:0.1524; stroke-opacity:1;  stroke-linecap:round; stroke-linejoin:round;">
<g>
</g>
<g style="fill:#840000; fill-opacity:0.0;  stroke:#840000; stroke-width:0.1524; stroke-opacity:1;  stroke-linecap:round; stroke-linejoin:round;">
<path style="fill:#840000; fill-opacity:0.0;  stroke:#840000; stroke-width:0.1524; stroke-opacity:1;  stroke-linecap:round; stroke-linejoin:round;fill:none" d="M 71.3740,67.3100 68.5800,67.3100 "/> 
</g>
<g style="fill:#840000; fill-opacity:0.0;  stroke:#840000; stroke-width:0.2540; stroke-opacity:1;  stroke-linecap:round; stroke-linejoin:round;">
<path style="fill:#840000; fill-opacity:0.0;  stroke:#840000; stroke-width:0.2540; stroke-opacity:1;  stroke-linecap:round; stroke-linejoin:round;fill:none" d="M 71.3740,65.4050 71.3740,69.2150 "/> 
<path style="fill:#840000; fill-opacity:0.0;  stroke:#840000; stroke-width:0.2540; stroke-opacity:1;  stroke-linecap:round; stroke-linejoin:round;fill:none" d="M 71.8820,68.5800 71.8820,69.5960 "/> 
<path style="fill:#840000; fill-opacity:0.0;  stroke:#840000; stroke-width:0.2540; stroke-opacity:1;  stroke-linecap:round; stroke-linejoin:round;fill:none" d="M 71.8820,66.8020 71.8820,67.8180 "/> 
<path style="fill:#840000; fill-opacity:0.0;  stroke:#840000; stroke-width:0.2540; stroke-opacity:1;  stroke-linecap:round; stroke-linejoin:round;fill:none" d="M 71.8820,65.0240 71.8820,66.0400 "/> 
</g>
<g style="fill:#840000; fill-opacity:0.0;  stroke:#840000; stroke-width:0.1524; stroke-opacity:1;  stroke-linecap:round; stroke-linejoin:round;">
<path style="fill:#840000; fill-opacity:0.0;  stroke:#840000; stroke-width:0.1524; stroke-opacity:1;  stroke-linecap:round; stroke-linejoin:round;fill:none" d="M 73.6600,64.7700 73.6600,65.5320 "/> 
<path style="fill:#840000; fill-opacity:0.0;  stroke:#840000; stroke-width:0.1524; stroke-opacity:1;  stroke-linecap:round; stroke-linejoin:round;fill:none" d="M 73.6600,69.8500 73.6600,67.3100 71.8820,67.3100 "/> 
<path style="fill:#840000; fill-opacity:0.0;  stroke:#840000; stroke-width:0.1524; stroke-opacity:1;  stroke-linecap:round; stroke-linejoin:round;fill:none" d="M 71.8820,65.5320 74.4220,65.5320 74.4220,69.0880 71.8820,69.0880 "/> 
</g>
<g style="fill:#840000; fill-opacity:1.0000;  stroke:#840000; stroke-width:0.1524; stroke-opacity:1;  stroke-linecap:round; stroke-linejoin:round;">
<path style="fill:#840000; fill-opacity:1.0000;  stroke:#840000; stroke-width:0.1524; stroke-opacity:1;  stroke-linecap:round; stroke-linejoin:round;fill-rule:evenodd;" d="M 73.4060,67.3100 72.3900,66.9290 72.3900,67.6910 Z"/> 
</g>
<g style="fill:#840000; fill-opacity:0.0;  stroke:#840000; stroke-width:0.1524; stroke-opacity:1;  stroke-linecap:round; stroke-linejoin:round;">
<path style="fill:#840000; fill-opacity:0.0;  stroke:#840000; stroke-width:0.1524; stroke-opacity:1;  stroke-linecap:round; stroke-linejoin:round;fill:none" d="M 73.9140,67.8180 74.0410,67.6910 74.8030,67.6910 74.9300,67.5640 "/> 
<path style="fill:#840000; fill-opacity:0.0;  stroke:#840000; stroke-width:0.1524; stroke-opacity:1;  stroke-linecap:round; stroke-linejoin:round;fill:none" d="M 74.4220,67.6910 74.0410,67.0560 74.8030,67.0560 Z"/> 
</g>
<g style="fill:#840000; fill-opacity:0.0;  stroke:#840000; stroke-width:0.2540; stroke-opacity:1;  stroke-linecap:round; stroke-linejoin:round;">
<circle cx="72.7710" cy="67.3100" r="2.7940"/> 
</g>
<g style="fill:#840000; fill-opacity:1.0000;  stroke:#840000; stroke-width:0.1524; stroke-opacity:1;  stroke-linecap:round; stroke-linejoin:round;">
<circle cx="73.6600" cy="69.0880" r="0.2540"/> 
<circle cx="73.6600" cy="65.5320" r="0.2540"/> 
</g>
<g style="fill:#840000; fill-opacity:0.0;  stroke:#840000; stroke-width:0.1524; stroke-opacity:1;  stroke-linecap:round; stroke-linejoin:round;">
<path d="M73.6600 64.7700 L73.6600 62.2300 "/>
</g>
<g style="fill:#006464; fill-opacity:0.0;  stroke:#006464; stroke-width:0.1524; stroke-opacity:1;  stroke-linecap:round; stroke-linejoin:round;">
<g transform="rotate(-90.000000 73.4060 63.5000)">
<text x="73.4060" y="63.5000" textLength="1.4732" font-size="1.6933" lengthAdjust="spacingAndGlyphs" text-anchor="middle" opacity="0">D</text>
</g>
<g class="stroked-text"><desc>D</desc>
<path d="M73.2425 63.8326 L71.9725 63.8326 "/>
<path d="M71.9725 63.8326 L71.9725 63.5302 "/>
<path d="M71.9725 63.5302 L72.0330 63.3488 "/>
<path d="M72.0330 63.3488 L72.1540 63.2278 "/>
<path d="M72.1540 63.2278 L72.2749 63.1673 "/>
<path d="M72.2749 63.1673 L72.5168 63.1069 "/>
<path d="M72.5168 63.1069 L72.6982 63.1069 "/>
<path d="M72.6982 63.1069 L72.9401 63.1673 "/>
<path d="M72.9401 63.1673 L73.0611 63.2278 "/>
<path d="M73.0611 63.2278 L73.1821 63.3488 "/>
<path d="M73.1821 63.3488 L73.2425 63.5302 "/>
<path d="M73.2425 63.5302 L73.2425 63.8326 "/>
</g></g>
<g style="fill:#840000; fill-opacity:0.0;  stroke:#840000; stroke-width:0.1524; stroke-opacity:1;  stroke-linecap:round; stroke-linejoin:round;">
<path d="M68.5800 67.3100 L66.0400 67.3100 "/>
</g>
<g style="fill:#006464; fill-opacity:0.0;  stroke:#006464; stroke-width:0.1524; stroke-opacity:1;  stroke-linecap:round; stroke-linejoin:round;">
<text x="67.3100" y="67.0560" textLength="1.4732" font-size="1.6933" lengthAdjust="spacingAndGlyphs" text-anchor="middle" opacity="0">G</text>
<g class="stroked-text"><desc>G</desc>
<path d="M67.6426 65.6830 L67.5216 65.6225 "/>
<path d="M67.5216 65.6225 L67.3402 65.6225 "/>
<path d="M67.3402 65.6225 L67.1588 65.6830 "/>
<path d="M67.1588 65.6830 L67.0378 65.8040 "/>
<path d="M67.0378 65.8040 L66.9773 65.9249 "/>
<path d="M66.9773 65.9249 L66.9169 66.1668 "/>
<path d="M66.9169 66.1668 L66.9169 66.3482 "/>
<path d="M66.9169 66.3482 L66.9773 66.5901 "/>
<path d="M66.9773 66.5901 L67.0378 66.7111 "/>
<path d="M67.0378 66.7111 L67.1588 66.8321 "/>
<path d="M67.1588 66.8321 L67.3402 66.8925 "/>
<path d="M67.3402 66.8925 L67.4611 66.8925 "/>
<path d="M67.4611 66.8925 L67.6426 66.8321 "/>
<path d="M67.6426 66.8321 L67.7030 66.7716 "/>
<path d="M67.7030 66.7716 L67.7030 66.3482 "/>
<path d="M67.7030 66.3482 L67.4611 66.3482 "/>
</g></g>
<g style="fill:#840000; fill-opacity:0.0;  stroke:#840000; stroke-width:0.1524; stroke-opacity:1;  stroke-linecap:round; stroke-linejoin:round;">
<path d="M73.6600 69.8500 L73.6600 72.3900 "/>
</g>
<g style="fill:#006464; fill-opacity:0.0;  stroke:#006464; stroke-width:0.1524; stroke-opacity:1;  stroke-linecap:round; stroke-linejoin:round;">
<g transform="rotate(-90.000000 73.4060 71.1200)">
<text x="73.4060" y="71.1200" textLength="1.4127" font-size="1.6933" lengthAdjust="spacingAndGlyphs" text-anchor="middle" opacity="0">S</text>
</g>
<g class="stroked-text"><desc>S</desc>
<path d="M73.1821 71.4827 L73.2425 71.3013 "/>
<path d="M73.2425 71.3013 L73.2425 70.9989 "/>
<path d="M73.2425 70.9989 L73.1821 70.8780 "/>
<path d="M73.1821 70.8780 L73.1216 70.8175 "/>
<path d="M73.1216 70.8175 L73.0006 70.7570 "/>
<path d="M73.0006 70.7570 L72.8797 70.7570 "/>
<path d="M72.8797 70.7570 L72.7587 70.8175 "/>
<path d="M72.7587 70.8175 L72.6982 70.8780 "/>
<path d="M72.6982 70.8780 L72.6378 70.9989 "/>
<path d="M72.6378 70.9989 L72.5773 71.2408 "/>
<path d="M72.5773 71.2408 L72.5168 71.3618 "/>
<path d="M72.5168 71.3618 L72.4563 71.4223 "/>
<path d="M72.4563 71.4223 L72.3354 71.4827 "/>
<path d="M72.3354 71.4827 L72.2144 71.4827 "/>
<path d="M72.2144 71.4827 L72.0935 71.4223 "/>
<path d="M72.0935 71.4223 L72.0330 71.3618 "/>
<path d="M72.0330 71.3618 L71.9725 71.2408 "/>
<path d="M71.9725 71.2408 L71.9725 70.9385 "/>
<path d="M71.9725 70.9385 L72.0330 70.7570 "/>
</g><text x="78.8512" y="66.6750" textLength="2.7432" font-size="1.6933" lengthAdjust="spacingAndGlyphs" text-anchor="middle" opacity="0">Q4</text>
<g class="stroked-text"><desc>Q4</desc>
<path d="M78.7302 66.7405 L78.6092 66.6800 "/>
<path d="M78.6092 66.6800 L78.4883 66.5591 "/>
<path d="M78.4883 66.5591 L78.3069 66.3776 "/>
<path d="M78.3069 66.3776 L78.1859 66.3171 "/>
<path d="M78.1859 66.3171 L78.0650 66.3171 "/>
<path d="M78.1254 66.6195 L78.0045 66.5591 "/>
<path d="M78.0045 66.5591 L77.8835 66.4381 "/>
<path d="M77.8835 66.4381 L77.8231 66.1962 "/>
<path d="M77.8231 66.1962 L77.8231 65.7729 "/>
<path d="M77.8231 65.7729 L77.8835 65.5310 "/>
<path d="M77.8835 65.5310 L78.0045 65.4100 "/>
<path d="M78.0045 65.4100 L78.1254 65.3495 "/>
<path d="M78.1254 65.3495 L78.3673 65.3495 "/>
<path d="M78.3673 65.3495 L78.4883 65.4100 "/>
<path d="M78.4883 65.4100 L78.6092 65.5310 "/>
<path d="M78.6092 65.5310 L78.6697 65.7729 "/>
<path d="M78.6697 65.7729 L78.6697 66.1962 "/>
<path d="M78.6697 66.1962 L78.6092 66.4381 "/>
<path d="M78.6092 66.4381 L78.4883 66.5591 "/>
<path d="M78.4883 66.5591 L78.3673 66.6195 "/>
<path d="M78.3673 66.6195 L78.1254 66.6195 "/>
<path d="M79.7583 65.7729 L79.7583 66.6195 "/>
<path d="M79.4559 65.2891 L79.1536 66.1962 "/>
<path d="M79.1536 66.1962 L79.9397 66.1962 "/>
</g><text x="83.2660" y="69.2150" textLength="11.5728" font-size="1.6933" lengthAdjust="spacingAndGlyphs" text-anchor="middle" opacity="0">P-CHANNEL</text>
<g class="stroked-text"><desc>P-CHANNEL</desc>
<path d="M77.8835 69.1595 L77.8835 67.8895 "/>
<path d="M77.8835 67.8895 L78.3673 67.8895 "/>
<path d="M78.3673 67.8895 L78.4883 67.9500 "/>
<path d="M78.4883 67.9500 L78.5488 68.0105 "/>
<path d="M78.5488 68.0105 L78.6092 68.1314 "/>
<path d="M78.6092 68.1314 L78.6092 68.3129 "/>
<path d="M78.6092 68.3129 L78.5488 68.4338 "/>
<path d="M78.5488 68.4338 L78.4883 68.4943 "/>
<path d="M78.4883 68.4943 L78.3673 68.5548 "/>
<path d="M78.3673 68.5548 L77.8835 68.5548 "/>
<path d="M79.1535 68.6757 L80.1212 68.6757 "/>
<path d="M81.4516 69.0386 L81.3912 69.0991 "/>
<path d="M81.3912 69.0991 L81.2097 69.1595 "/>
<path d="M81.2097 69.1595 L81.0888 69.1595 "/>
<path d="M81.0888 69.1595 L80.9074 69.0991 "/>
<path d="M80.9074 69.0991 L80.7864 68.9781 "/>
<path d="M80.7864 68.9781 L80.7259 68.8571 "/>
<path d="M80.7259 68.8571 L80.6655 68.6152 "/>
<path d="M80.6655 68.6152 L80.6655 68.4338 "/>
<path d="M80.6655 68.4338 L80.7259 68.1919 "/>
<path d="M80.7259 68.1919 L80.7864 68.0710 "/>
<path d="M80.7864 68.0710 L80.9074 67.9500 "/>
<path d="M80.9074 67.9500 L81.0888 67.8895 "/>
<path d="M81.0888 67.8895 L81.2097 67.8895 "/>
<path d="M81.2097 67.8895 L81.3912 67.9500 "/>
<path d="M81.3912 67.9500 L81.4516 68.0105 "/>
<path d="M81.9959 69.1595 L81.9959 67.8895 "/>
<path d="M81.9959 68.4943 L82.7216 68.4943 "/>
<path d="M82.7216 69.1595 L82.7216 67.8895 "/>
<path d="M83.2660 68.7967 L83.8707 68.7967 "/>
<path d="M83.1450 69.1595 L83.5683 67.8895 "/>
<path d="M83.5683 67.8895 L83.9917 69.1595 "/>
<path d="M84.4150 69.1595 L84.4150 67.8895 "/>
<path d="M84.4150 67.8895 L85.1407 69.1595 "/>
<path d="M85.1407 69.1595 L85.1407 67.8895 "/>
<path d="M85.7455 69.1595 L85.7455 67.8895 "/>
<path d="M85.7455 67.8895 L86.4712 69.1595 "/>
<path d="M86.4712 69.1595 L86.4712 67.8895 "/>
<path d="M87.0760 68.4943 L87.4994 68.4943 "/>
<path d="M87.6808 69.1595 L87.0760 69.1595 "/>
<path d="M87.0760 69.1595 L87.0760 67.8895 "/>
<path d="M87.0760 67.8895 L87.6808 67.8895 "/>
<path d="M88.8298 69.1595 L88.2250 69.1595 "/>
<path d="M88.2250 69.1595 L88.2250 67.8895 "/>
</g></g>
</g> 
</svg>