<svg xmlns:svg="http://www.w3.org/2000/svg" xmlns="http://www.w3.org/2000/svg" xmlns:xlink="http://www.w3.org/1999/xlink" version="1.1" width="10cm" height="11.31145861298133cm" viewBox="105.5696029663086 37.56829833984375 51.75080108642578 58.53770446777344"><rect x="105.5696029663086" y="37.56829833984375" height="58.53770446777344" width="51.75080108642578" fill="White"></rect>
<title>INA226</title>
  <desc></desc>
<g style="fill:#000000; fill-opacity:1.0000;stroke:#000000; stroke-opacity:1.0000;
stroke-linecap:round; stroke-linejoin:round;" transform="translate(0 0) scale(1 1)">
</g>
<g style="fill:#000000; fill-opacity:0.0; 
stroke:#000000; stroke-width:0.1524; stroke-opacity:1; 
stroke-linecap:round; stroke-linejoin:round;">
</g>
<g style="fill:#000000; fill-opacity:0.0; 
stroke:#000000; stroke-width:0.1588; stroke-opacity:1; 
stroke-linecap:round; stroke-linejoin:round;">
</g>
<g style="fill:#000000; fill-opacity:0.0; 
stroke:#000000; stroke-width:0.1524; stroke-opacity:1; 
stroke-linecap:round; stroke-linejoin:round;">
</g>
<g style="fill:#000000; fill-opacity:0.0; 
stroke:#000000; stroke-width:0.1588; stroke-opacity:1; 
stroke-linecap:round; stroke-linejoin:round;">
</g>
<g style="fill:#000000; fill-opacity:0.0; 
stroke:#000000; stroke-width:0.1524; stroke-opacity:1; 
stroke-linecap:round; stroke-linejoin:round;">
</g>
<g style="fill:#000000; fill-opacity:0.0; 
stroke:#000000; stroke-width:0.1588; stroke-opacity:1; 
stroke-linecap:round; stroke-linejoin:round;">
</g>
<g style="fill:#000000; fill-opacity:0.0; 
stroke:#000000; stroke-width:0.1524; stroke-opacity:1; 
stroke-linecap:round; stroke-linejoin:round;">
</g>
<g style="fill:#000000; fill-opacity:0.0; 
stroke:#000000; stroke-width:0.1588; stroke-opacity:1; 
stroke-linecap:round; stroke-linejoin:round;">
</g>
<g style="fill:#000000; fill-opacity:0.0; 
stroke:#000000; stroke-width:0.1524; stroke-opacity:1; 
stroke-linecap:round; stroke-linejoin:round;">
<g>
</g>
<g style="fill:#840000; fill-opacity:0.0; 
stroke:#840000; stroke-width:0.1524; stroke-opacity:1; 
stroke-linecap:round; stroke-linejoin:round;">
</g>
<g style="fill:#840000; fill-opacity:1.0000; 
stroke:#840000; stroke-width:0.1524; stroke-opacity:1; 
stroke-linecap:round; stroke-linejoin:round;">
<rect x="131.572000" y="81.534000" width="0.254000" height="4.572000" rx="0.000000"></rect>
<rect x="132.334000" y="82.296000" width="0.508000" height="3.048000" rx="0.000000"></rect>
</g>
<g style="fill:#840000; fill-opacity:0.0; 
stroke:#840000; stroke-width:0.1524; stroke-opacity:1; 
stroke-linecap:round; stroke-linejoin:round;">
<path style="fill:#840000; fill-opacity:0.0; 
stroke:#840000; stroke-width:0.1524; stroke-opacity:1; 
stroke-linecap:round; stroke-linejoin:round;fill:none" d="M 132.5880,83.8200
133.3500,83.8200
"></path> 
<path style="fill:#840000; fill-opacity:0.0; 
stroke:#840000; stroke-width:0.1524; stroke-opacity:1; 
stroke-linecap:round; stroke-linejoin:round;fill:none" d="M 131.5720,83.8200
130.8100,83.8200
"></path> 
</g>
<g style="fill:#840000; fill-opacity:0.0; 
stroke:#840000; stroke-width:0.2540; stroke-opacity:1; 
stroke-linecap:round; stroke-linejoin:round;">
<path style="fill:#840000; fill-opacity:0.0; 
stroke:#840000; stroke-width:0.2540; stroke-opacity:1; 
stroke-linecap:round; stroke-linejoin:round;fill:none" d="M 130.3020,83.0580
130.3020,82.0420
"></path> 
<path style="fill:#840000; fill-opacity:0.0; 
stroke:#840000; stroke-width:0.2540; stroke-opacity:1; 
stroke-linecap:round; stroke-linejoin:round;fill:none" d="M 129.7940,82.5500
130.8100,82.5500
"></path> 
</g>
<g style="fill:#840000; fill-opacity:0.0; 
stroke:#840000; stroke-width:0.1524; stroke-opacity:1; 
stroke-linecap:round; stroke-linejoin:round;">
<path d="M130.8100 83.8200
L128.2700 83.8200
"></path>
<path d="M133.3500 83.8200
L135.8900 83.8200
"></path>
</g>
<g style="fill:#006464; fill-opacity:0.0; 
stroke:#006464; stroke-width:0.1524; stroke-opacity:1; 
stroke-linecap:round; stroke-linejoin:round;">
<text x="131.5084" y="76.8350" textLength="3.6503" font-size="1.6933" lengthAdjust="spacingAndGlyphs" text-anchor="middle" opacity="0">BT2</text>
<g class="stroked-text"><desc>BT2</desc>
<path d="M130.5106 76.1143
L130.6920 76.1748
"></path>
<path d="M130.6920 76.1748
L130.7525 76.2352
"></path>
<path d="M130.7525 76.2352
L130.8129 76.3562
"></path>
<path d="M130.8129 76.3562
L130.8129 76.5376
"></path>
<path d="M130.8129 76.5376
L130.7525 76.6586
"></path>
<path d="M130.7525 76.6586
L130.6920 76.7191
"></path>
<path d="M130.6920 76.7191
L130.5710 76.7795
"></path>
<path d="M130.5710 76.7795
L130.0872 76.7795
"></path>
<path d="M130.0872 76.7795
L130.0872 75.5095
"></path>
<path d="M130.0872 75.5095
L130.5106 75.5095
"></path>
<path d="M130.5106 75.5095
L130.6315 75.5700
"></path>
<path d="M130.6315 75.5700
L130.6920 75.6305
"></path>
<path d="M130.6920 75.6305
L130.7525 75.7514
"></path>
<path d="M130.7525 75.7514
L130.7525 75.8724
"></path>
<path d="M130.7525 75.8724
L130.6920 75.9933
"></path>
<path d="M130.6920 75.9933
L130.6315 76.0538
"></path>
<path d="M130.6315 76.0538
L130.5106 76.1143
"></path>
<path d="M130.5106 76.1143
L130.0872 76.1143
"></path>
<path d="M131.1758 75.5095
L131.9015 75.5095
"></path>
<path d="M131.5387 76.7795
L131.5387 75.5095
"></path>
<path d="M132.2644 75.6305
L132.3248 75.5700
"></path>
<path d="M132.3248 75.5700
L132.4458 75.5095
"></path>
<path d="M132.4458 75.5095
L132.7482 75.5095
"></path>
<path d="M132.7482 75.5095
L132.8691 75.5700
"></path>
<path d="M132.8691 75.5700
L132.9296 75.6305
"></path>
<path d="M132.9296 75.6305
L132.9901 75.7514
"></path>
<path d="M132.9901 75.7514
L132.9901 75.8724
"></path>
<path d="M132.9901 75.8724
L132.9296 76.0538
"></path>
<path d="M132.9296 76.0538
L132.2039 76.7795
"></path>
<path d="M132.2039 76.7795
L132.9901 76.7795
"></path>
</g><text x="131.5084" y="79.3750" textLength="5.8275" font-size="1.6933" lengthAdjust="spacingAndGlyphs" text-anchor="middle" opacity="0">Power</text>
<g class="stroked-text"><desc>Power</desc>
<path d="M128.9986 79.3195
L128.9986 78.0495
"></path>
<path d="M128.9986 78.0495
L129.4824 78.0495
"></path>
<path d="M129.4824 78.0495
L129.6034 78.1100
"></path>
<path d="M129.6034 78.1100
L129.6639 78.1705
"></path>
<path d="M129.6639 78.1705
L129.7243 78.2914
"></path>
<path d="M129.7243 78.2914
L129.7243 78.4729
"></path>
<path d="M129.7243 78.4729
L129.6639 78.5938
"></path>
<path d="M129.6639 78.5938
L129.6034 78.6543
"></path>
<path d="M129.6034 78.6543
L129.4824 78.7148
"></path>
<path d="M129.4824 78.7148
L128.9986 78.7148
"></path>
<path d="M130.4501 79.3195
L130.3291 79.2591
"></path>
<path d="M130.3291 79.2591
L130.2686 79.1986
"></path>
<path d="M130.2686 79.1986
L130.2082 79.0776
"></path>
<path d="M130.2082 79.0776
L130.2082 78.7148
"></path>
<path d="M130.2082 78.7148
L130.2686 78.5938
"></path>
<path d="M130.2686 78.5938
L130.3291 78.5333
"></path>
<path d="M130.3291 78.5333
L130.4501 78.4729
"></path>
<path d="M130.4501 78.4729
L130.6315 78.4729
"></path>
<path d="M130.6315 78.4729
L130.7524 78.5333
"></path>
<path d="M130.7524 78.5333
L130.8129 78.5938
"></path>
<path d="M130.8129 78.5938
L130.8734 78.7148
"></path>
<path d="M130.8734 78.7148
L130.8734 79.0776
"></path>
<path d="M130.8734 79.0776
L130.8129 79.1986
"></path>
<path d="M130.8129 79.1986
L130.7524 79.2591
"></path>
<path d="M130.7524 79.2591
L130.6315 79.3195
"></path>
<path d="M130.6315 79.3195
L130.4501 79.3195
"></path>
<path d="M131.2967 78.4729
L131.5386 79.3195
"></path>
<path d="M131.5386 79.3195
L131.7805 78.7148
"></path>
<path d="M131.7805 78.7148
L132.0224 79.3195
"></path>
<path d="M132.0224 79.3195
L132.2643 78.4729
"></path>
<path d="M133.2319 79.2591
L133.1110 79.3195
"></path>
<path d="M133.1110 79.3195
L132.8691 79.3195
"></path>
<path d="M132.8691 79.3195
L132.7481 79.2591
"></path>
<path d="M132.7481 79.2591
L132.6877 79.1381
"></path>
<path d="M132.6877 79.1381
L132.6877 78.6543
"></path>
<path d="M132.6877 78.6543
L132.7481 78.5333
"></path>
<path d="M132.7481 78.5333
L132.8691 78.4729
"></path>
<path d="M132.8691 78.4729
L133.1110 78.4729
"></path>
<path d="M133.1110 78.4729
L133.2319 78.5333
"></path>
<path d="M133.2319 78.5333
L133.2924 78.6543
"></path>
<path d="M133.2924 78.6543
L133.2924 78.7752
"></path>
<path d="M133.2924 78.7752
L132.6877 78.8962
"></path>
<path d="M133.8367 79.3195
L133.8367 78.4729
"></path>
<path d="M133.8367 78.7148
L133.8972 78.5938
"></path>
<path d="M133.8972 78.5938
L133.9577 78.5333
"></path>
<path d="M133.9577 78.5333
L134.0786 78.4729
"></path>
<path d="M134.0786 78.4729
L134.1996 78.4729
"></path>
</g></g>
</g>
<g style="fill:#006464; fill-opacity:0.0; 
stroke:#006464; stroke-width:0.1524; stroke-opacity:1; 
stroke-linecap:round; stroke-linejoin:round;">
<g>
</g>
<g style="fill:#840000; fill-opacity:0.0; 
stroke:#840000; stroke-width:0.1524; stroke-opacity:1; 
stroke-linecap:round; stroke-linejoin:round;">
</g>
<g style="fill:#840000; fill-opacity:0.0; 
stroke:#840000; stroke-width:0.2540; stroke-opacity:1; 
stroke-linecap:round; stroke-linejoin:round;">
<rect x="120.650000" y="68.834000" width="5.080000" height="2.032000" rx="0.000000"></rect>
</g>
<g style="fill:#840000; fill-opacity:0.0; 
stroke:#840000; stroke-width:0.1524; stroke-opacity:1; 
stroke-linecap:round; stroke-linejoin:round;">
<path d="M125.7300 69.8500
L127.0000 69.8500
"></path>
<path d="M120.6500 69.8500
L119.3800 69.8500
"></path>
</g>
<g style="fill:#006464; fill-opacity:0.0; 
stroke:#006464; stroke-width:0.1524; stroke-opacity:1; 
stroke-linecap:round; stroke-linejoin:round;">
<text x="123.1900" y="64.1350" textLength="2.6827" font-size="1.6933" lengthAdjust="spacingAndGlyphs" text-anchor="middle" opacity="0">R2</text>
<g class="stroked-text"><desc>R2</desc>
<path d="M122.9783 64.0795
L122.5550 63.4748
"></path>
<path d="M122.2526 64.0795
L122.2526 62.8095
"></path>
<path d="M122.2526 62.8095
L122.7364 62.8095
"></path>
<path d="M122.7364 62.8095
L122.8574 62.8700
"></path>
<path d="M122.8574 62.8700
L122.9179 62.9305
"></path>
<path d="M122.9179 62.9305
L122.9783 63.0514
"></path>
<path d="M122.9783 63.0514
L122.9783 63.2329
"></path>
<path d="M122.9783 63.2329
L122.9179 63.3538
"></path>
<path d="M122.9179 63.3538
L122.8574 63.4143
"></path>
<path d="M122.8574 63.4143
L122.7364 63.4748
"></path>
<path d="M122.7364 63.4748
L122.2526 63.4748
"></path>
<path d="M123.4622 62.9305
L123.5226 62.8700
"></path>
<path d="M123.5226 62.8700
L123.6436 62.8095
"></path>
<path d="M123.6436 62.8095
L123.9460 62.8095
"></path>
<path d="M123.9460 62.8095
L124.0669 62.8700
"></path>
<path d="M124.0669 62.8700
L124.1274 62.9305
"></path>
<path d="M124.1274 62.9305
L124.1879 63.0514
"></path>
<path d="M124.1879 63.0514
L124.1879 63.1724
"></path>
<path d="M124.1879 63.1724
L124.1274 63.3538
"></path>
<path d="M124.1274 63.3538
L123.4017 64.0795
"></path>
<path d="M123.4017 64.0795
L124.1879 64.0795
"></path>
</g><text x="123.1900" y="66.6750" textLength="5.5854" font-size="1.6933" lengthAdjust="spacingAndGlyphs" text-anchor="middle" opacity="0">Shunt</text>
<g class="stroked-text"><desc>Shunt</desc>
<path d="M120.7408 66.5591
L120.9222 66.6195
"></path>
<path d="M120.9222 66.6195
L121.2246 66.6195
"></path>
<path d="M121.2246 66.6195
L121.3455 66.5591
"></path>
<path d="M121.3455 66.5591
L121.4060 66.4986
"></path>
<path d="M121.4060 66.4986
L121.4665 66.3776
"></path>
<path d="M121.4665 66.3776
L121.4665 66.2567
"></path>
<path d="M121.4665 66.2567
L121.4060 66.1357
"></path>
<path d="M121.4060 66.1357
L121.3455 66.0752
"></path>
<path d="M121.3455 66.0752
L121.2246 66.0148
"></path>
<path d="M121.2246 66.0148
L120.9827 65.9543
"></path>
<path d="M120.9827 65.9543
L120.8617 65.8938
"></path>
<path d="M120.8617 65.8938
L120.8012 65.8333
"></path>
<path d="M120.8012 65.8333
L120.7408 65.7124
"></path>
<path d="M120.7408 65.7124
L120.7408 65.5914
"></path>
<path d="M120.7408 65.5914
L120.8012 65.4705
"></path>
<path d="M120.8012 65.4705
L120.8617 65.4100
"></path>
<path d="M120.8617 65.4100
L120.9827 65.3495
"></path>
<path d="M120.9827 65.3495
L121.2850 65.3495
"></path>
<path d="M121.2850 65.3495
L121.4665 65.4100
"></path>
<path d="M122.0107 66.6195
L122.0107 65.3495
"></path>
<path d="M122.5550 66.6195
L122.5550 65.9543
"></path>
<path d="M122.5550 65.9543
L122.4945 65.8333
"></path>
<path d="M122.4945 65.8333
L122.3736 65.7729
"></path>
<path d="M122.3736 65.7729
L122.1922 65.7729
"></path>
<path d="M122.1922 65.7729
L122.0712 65.8333
"></path>
<path d="M122.0712 65.8333
L122.0107 65.8938
"></path>
<path d="M123.7040 65.7729
L123.7040 66.6195
"></path>
<path d="M123.1597 65.7729
L123.1597 66.4381
"></path>
<path d="M123.1597 66.4381
L123.2202 66.5591
"></path>
<path d="M123.2202 66.5591
L123.3412 66.6195
"></path>
<path d="M123.3412 66.6195
L123.5226 66.6195
"></path>
<path d="M123.5226 66.6195
L123.6435 66.5591
"></path>
<path d="M123.6435 66.5591
L123.7040 66.4986
"></path>
<path d="M124.3087 65.7729
L124.3087 66.6195
"></path>
<path d="M124.3087 65.8938
L124.3692 65.8333
"></path>
<path d="M124.3692 65.8333
L124.4902 65.7729
"></path>
<path d="M124.4902 65.7729
L124.6716 65.7729
"></path>
<path d="M124.6716 65.7729
L124.7925 65.8333
"></path>
<path d="M124.7925 65.8333
L124.8530 65.9543
"></path>
<path d="M124.8530 65.9543
L124.8530 66.6195
"></path>
<path d="M125.2763 65.7729
L125.7601 65.7729
"></path>
<path d="M125.4577 65.3495
L125.4577 66.4381
"></path>
<path d="M125.4577 66.4381
L125.5182 66.5591
"></path>
<path d="M125.5182 66.5591
L125.6392 66.6195
"></path>
<path d="M125.6392 66.6195
L125.7601 66.6195
"></path>
</g></g>
</g>
<g style="fill:#006464; fill-opacity:0.0; 
stroke:#006464; stroke-width:0.1524; stroke-opacity:1; 
stroke-linecap:round; stroke-linejoin:round;">
<g>
</g>
<g style="fill:#840000; fill-opacity:0.0; 
stroke:#840000; stroke-width:0.1524; stroke-opacity:1; 
stroke-linecap:round; stroke-linejoin:round;">
</g>
<g style="fill:#840000; fill-opacity:0.0; 
stroke:#840000; stroke-width:0.2540; stroke-opacity:1; 
stroke-linecap:round; stroke-linejoin:round;">
<rect x="137.160000" y="68.834000" width="5.080000" height="2.032000" rx="0.000000"></rect>
</g>
<g style="fill:#840000; fill-opacity:0.0; 
stroke:#840000; stroke-width:0.1524; stroke-opacity:1; 
stroke-linecap:round; stroke-linejoin:round;">
<path d="M142.2400 69.8500
L143.5100 69.8500
"></path>
<path d="M137.1600 69.8500
L135.8900 69.8500
"></path>
</g>
<g style="fill:#006464; fill-opacity:0.0; 
stroke:#006464; stroke-width:0.1524; stroke-opacity:1; 
stroke-linecap:round; stroke-linejoin:round;">
<text x="139.7000" y="64.1350" textLength="2.6827" font-size="1.6933" lengthAdjust="spacingAndGlyphs" text-anchor="middle" opacity="0">R3</text>
<g class="stroked-text"><desc>R3</desc>
<path d="M139.4883 64.0795
L139.0650 63.4748
"></path>
<path d="M138.7626 64.0795
L138.7626 62.8095
"></path>
<path d="M138.7626 62.8095
L139.2464 62.8095
"></path>
<path d="M139.2464 62.8095
L139.3674 62.8700
"></path>
<path d="M139.3674 62.8700
L139.4279 62.9305
"></path>
<path d="M139.4279 62.9305
L139.4883 63.0514
"></path>
<path d="M139.4883 63.0514
L139.4883 63.2329
"></path>
<path d="M139.4883 63.2329
L139.4279 63.3538
"></path>
<path d="M139.4279 63.3538
L139.3674 63.4143
"></path>
<path d="M139.3674 63.4143
L139.2464 63.4748
"></path>
<path d="M139.2464 63.4748
L138.7626 63.4748
"></path>
<path d="M139.9117 62.8095
L140.6979 62.8095
"></path>
<path d="M140.6979 62.8095
L140.2745 63.2933
"></path>
<path d="M140.2745 63.2933
L140.4560 63.2933
"></path>
<path d="M140.4560 63.2933
L140.5769 63.3538
"></path>
<path d="M140.5769 63.3538
L140.6374 63.4143
"></path>
<path d="M140.6374 63.4143
L140.6979 63.5352
"></path>
<path d="M140.6979 63.5352
L140.6979 63.8376
"></path>
<path d="M140.6979 63.8376
L140.6374 63.9586
"></path>
<path d="M140.6374 63.9586
L140.5769 64.0191
"></path>
<path d="M140.5769 64.0191
L140.4560 64.0795
"></path>
<path d="M140.4560 64.0795
L140.0931 64.0795
"></path>
<path d="M140.0931 64.0795
L139.9722 64.0191
"></path>
<path d="M139.9722 64.0191
L139.9117 63.9586
"></path>
</g><text x="139.7000" y="66.6750" textLength="4.6783" font-size="1.6933" lengthAdjust="spacingAndGlyphs" text-anchor="middle" opacity="0">Load</text>
<g class="stroked-text"><desc>Load</desc>
<path d="M138.3696 66.6195
L137.7648 66.6195
"></path>
<path d="M137.7648 66.6195
L137.7648 65.3495
"></path>
<path d="M138.9744 66.6195
L138.8534 66.5591
"></path>
<path d="M138.8534 66.5591
L138.7929 66.4986
"></path>
<path d="M138.7929 66.4986
L138.7325 66.3776
"></path>
<path d="M138.7325 66.3776
L138.7325 66.0148
"></path>
<path d="M138.7325 66.0148
L138.7929 65.8938
"></path>
<path d="M138.7929 65.8938
L138.8534 65.8333
"></path>
<path d="M138.8534 65.8333
L138.9744 65.7729
"></path>
<path d="M138.9744 65.7729
L139.1558 65.7729
"></path>
<path d="M139.1558 65.7729
L139.2767 65.8333
"></path>
<path d="M139.2767 65.8333
L139.3372 65.8938
"></path>
<path d="M139.3372 65.8938
L139.3977 66.0148
"></path>
<path d="M139.3977 66.0148
L139.3977 66.3776
"></path>
<path d="M139.3977 66.3776
L139.3372 66.4986
"></path>
<path d="M139.3372 66.4986
L139.2767 66.5591
"></path>
<path d="M139.2767 66.5591
L139.1558 66.6195
"></path>
<path d="M139.1558 66.6195
L138.9744 66.6195
"></path>
<path d="M140.4862 66.6195
L140.4862 65.9543
"></path>
<path d="M140.4862 65.9543
L140.4257 65.8333
"></path>
<path d="M140.4257 65.8333
L140.3048 65.7729
"></path>
<path d="M140.3048 65.7729
L140.0629 65.7729
"></path>
<path d="M140.0629 65.7729
L139.9419 65.8333
"></path>
<path d="M140.4862 66.5591
L140.3653 66.6195
"></path>
<path d="M140.3653 66.6195
L140.0629 66.6195
"></path>
<path d="M140.0629 66.6195
L139.9419 66.5591
"></path>
<path d="M139.9419 66.5591
L139.8815 66.4381
"></path>
<path d="M139.8815 66.4381
L139.8815 66.3171
"></path>
<path d="M139.8815 66.3171
L139.9419 66.1962
"></path>
<path d="M139.9419 66.1962
L140.0629 66.1357
"></path>
<path d="M140.0629 66.1357
L140.3653 66.1357
"></path>
<path d="M140.3653 66.1357
L140.4862 66.0752
"></path>
<path d="M141.6352 66.6195
L141.6352 65.3495
"></path>
<path d="M141.6352 66.5591
L141.5143 66.6195
"></path>
<path d="M141.5143 66.6195
L141.2724 66.6195
"></path>
<path d="M141.2724 66.6195
L141.1514 66.5591
"></path>
<path d="M141.1514 66.5591
L141.0909 66.4986
"></path>
<path d="M141.0909 66.4986
L141.0305 66.3776
"></path>
<path d="M141.0305 66.3776
L141.0305 66.0148
"></path>
<path d="M141.0305 66.0148
L141.0909 65.8938
"></path>
<path d="M141.0909 65.8938
L141.1514 65.8333
"></path>
<path d="M141.1514 65.8333
L141.2724 65.7729
"></path>
<path d="M141.2724 65.7729
L141.5143 65.7729
"></path>
<path d="M141.5143 65.7729
L141.6352 65.8333
"></path>
</g></g>
</g>
<g style="fill:#006464; fill-opacity:0.0; 
stroke:#006464; stroke-width:0.1588; stroke-opacity:1; 
stroke-linecap:round; stroke-linejoin:round;">
</g>
<g style="fill:#006464; fill-opacity:0.0; 
stroke:#006464; stroke-width:0.1524; stroke-opacity:1; 
stroke-linecap:round; stroke-linejoin:round;">
</g>
<g style="fill:#840000; fill-opacity:0.0; 
stroke:#840000; stroke-width:0.1524; stroke-opacity:1; 
stroke-linecap:round; stroke-linejoin:round;">
<g transform="rotate(-90.000000 129.6308 53.1812)">
<text x="129.6308" y="53.8162" textLength="4.7995" font-size="1.6933" lengthAdjust="spacingAndGlyphs" text-anchor="start" opacity="0">VIN-</text>
</g>
<g class="stroked-text"><desc>VIN-</desc>
<path d="M128.9403 52.9600
L130.2103 52.5367
"></path>
<path d="M130.2103 52.5367
L128.9403 52.1133
"></path>
<path d="M130.2103 51.6900
L128.9403 51.6900
"></path>
<path d="M130.2103 51.0852
L128.9403 51.0852
"></path>
<path d="M128.9403 51.0852
L130.2103 50.3595
"></path>
<path d="M130.2103 50.3595
L128.9403 50.3595
"></path>
<path d="M129.7265 49.7547
L129.7265 48.7871
"></path>
</g><path style="fill:#840000; fill-opacity:0.0; 
stroke:#840000; stroke-width:0.1524; stroke-opacity:1; 
stroke-linecap:round; stroke-linejoin:round;fill:none" d="M 129.5400,54.6100
130.8104,53.4987
130.8104,47.5683
129.5400,47.5683
128.2696,47.5683
128.2696,53.4987
Z"></path> 
</g>
<g style="fill:#840000; fill-opacity:0.0; 
stroke:#840000; stroke-width:0.1588; stroke-opacity:1; 
stroke-linecap:round; stroke-linejoin:round;">
</g>
<g style="fill:#840000; fill-opacity:0.0; 
stroke:#840000; stroke-width:0.1524; stroke-opacity:1; 
stroke-linecap:round; stroke-linejoin:round;">
<g transform="rotate(-90.000000 116.9308 53.1812)">
<text x="116.9308" y="53.8162" textLength="4.7995" font-size="1.6933" lengthAdjust="spacingAndGlyphs" text-anchor="start" opacity="0">VIN+</text>
</g>
<g class="stroked-text"><desc>VIN+</desc>
<path d="M116.2403 52.9600
L117.5103 52.5367
"></path>
<path d="M117.5103 52.5367
L116.2403 52.1133
"></path>
<path d="M117.5103 51.6900
L116.2403 51.6900
"></path>
<path d="M117.5103 51.0852
L116.2403 51.0852
"></path>
<path d="M116.2403 51.0852
L117.5103 50.3595
"></path>
<path d="M117.5103 50.3595
L116.2403 50.3595
"></path>
<path d="M117.0265 49.7547
L117.0265 48.7871
"></path>
<path d="M117.5103 49.2709
L116.5427 49.2709
"></path>
</g><path style="fill:#840000; fill-opacity:0.0; 
stroke:#840000; stroke-width:0.1524; stroke-opacity:1; 
stroke-linecap:round; stroke-linejoin:round;fill:none" d="M 116.8400,54.6100
118.1104,53.4987
118.1104,47.5683
116.8400,47.5683
115.5696,47.5683
115.5696,53.4987
Z"></path> 
</g>
<g style="fill:#840000; fill-opacity:0.0; 
stroke:#840000; stroke-width:0.1588; stroke-opacity:1; 
stroke-linecap:round; stroke-linejoin:round;">
</g>
<g style="fill:#840000; fill-opacity:0.0; 
stroke:#840000; stroke-width:0.1524; stroke-opacity:1; 
stroke-linecap:round; stroke-linejoin:round;">
<g transform="rotate(-90.000000 134.7108 53.1812)">
<text x="134.7108" y="53.8162" textLength="3.7713" font-size="1.6933" lengthAdjust="spacingAndGlyphs" text-anchor="start" opacity="0">VBS</text>
</g>
<g class="stroked-text"><desc>VBS</desc>
<path d="M134.0203 52.9600
L135.2903 52.5367
"></path>
<path d="M135.2903 52.5367
L134.0203 52.1133
"></path>
<path d="M134.6251 51.2666
L134.6856 51.0852
"></path>
<path d="M134.6856 51.0852
L134.7460 51.0247
"></path>
<path d="M134.7460 51.0247
L134.8670 50.9643
"></path>
<path d="M134.8670 50.9643
L135.0484 50.9643
"></path>
<path d="M135.0484 50.9643
L135.1694 51.0247
"></path>
<path d="M135.1694 51.0247
L135.2299 51.0852
"></path>
<path d="M135.2299 51.0852
L135.2903 51.2062
"></path>
<path d="M135.2903 51.2062
L135.2903 51.6900
"></path>
<path d="M135.2903 51.6900
L134.0203 51.6900
"></path>
<path d="M134.0203 51.6900
L134.0203 51.2666
"></path>
<path d="M134.0203 51.2666
L134.0808 51.1457
"></path>
<path d="M134.0808 51.1457
L134.1413 51.0852
"></path>
<path d="M134.1413 51.0852
L134.2622 51.0247
"></path>
<path d="M134.2622 51.0247
L134.3832 51.0247
"></path>
<path d="M134.3832 51.0247
L134.5041 51.0852
"></path>
<path d="M134.5041 51.0852
L134.5646 51.1457
"></path>
<path d="M134.5646 51.1457
L134.6251 51.2666
"></path>
<path d="M134.6251 51.2666
L134.6251 51.6900
"></path>
<path d="M135.2299 50.4804
L135.2903 50.2990
"></path>
<path d="M135.2903 50.2990
L135.2903 49.9966
"></path>
<path d="M135.2903 49.9966
L135.2299 49.8757
"></path>
<path d="M135.2299 49.8757
L135.1694 49.8152
"></path>
<path d="M135.1694 49.8152
L135.0484 49.7547
"></path>
<path d="M135.0484 49.7547
L134.9275 49.7547
"></path>
<path d="M134.9275 49.7547
L134.8065 49.8152
"></path>
<path d="M134.8065 49.8152
L134.7460 49.8757
"></path>
<path d="M134.7460 49.8757
L134.6856 49.9966
"></path>
<path d="M134.6856 49.9966
L134.6251 50.2385
"></path>
<path d="M134.6251 50.2385
L134.5646 50.3595
"></path>
<path d="M134.5646 50.3595
L134.5041 50.4200
"></path>
<path d="M134.5041 50.4200
L134.3832 50.4804
"></path>
<path d="M134.3832 50.4804
L134.2622 50.4804
"></path>
<path d="M134.2622 50.4804
L134.1413 50.4200
"></path>
<path d="M134.1413 50.4200
L134.0808 50.3595
"></path>
<path d="M134.0808 50.3595
L134.0203 50.2385
"></path>
<path d="M134.0203 50.2385
L134.0203 49.9362
"></path>
<path d="M134.0203 49.9362
L134.0808 49.7547
"></path>
</g><path style="fill:#840000; fill-opacity:0.0; 
stroke:#840000; stroke-width:0.1524; stroke-opacity:1; 
stroke-linecap:round; stroke-linejoin:round;fill:none" d="M 134.6200,54.6100
135.8904,53.4987
135.8904,48.5965
134.6200,48.5965
133.3496,48.5965
133.3496,53.4987
Z"></path> 
</g>
<g style="fill:#840000; fill-opacity:0.0; 
stroke:#840000; stroke-width:0.1588; stroke-opacity:1; 
stroke-linecap:round; stroke-linejoin:round;">
</g>
<g style="fill:#840000; fill-opacity:0.0; 
stroke:#840000; stroke-width:0.1524; stroke-opacity:1; 
stroke-linecap:round; stroke-linejoin:round;">
<g transform="rotate(-90.000000 146.1408 53.1812)">
<text x="146.1408" y="53.8162" textLength="4.0737" font-size="1.6933" lengthAdjust="spacingAndGlyphs" text-anchor="start" opacity="0">GND</text>
</g>
<g class="stroked-text"><desc>GND</desc>
<path d="M145.5108 52.1133
L145.4503 52.2343
"></path>
<path d="M145.4503 52.2343
L145.4503 52.4157
"></path>
<path d="M145.4503 52.4157
L145.5108 52.5971
"></path>
<path d="M145.5108 52.5971
L145.6318 52.7181
"></path>
<path d="M145.6318 52.7181
L145.7527 52.7786
"></path>
<path d="M145.7527 52.7786
L145.9946 52.8390
"></path>
<path d="M145.9946 52.8390
L146.1760 52.8390
"></path>
<path d="M146.1760 52.8390
L146.4179 52.7786
"></path>
<path d="M146.4179 52.7786
L146.5389 52.7181
"></path>
<path d="M146.5389 52.7181
L146.6599 52.5971
"></path>
<path d="M146.6599 52.5971
L146.7203 52.4157
"></path>
<path d="M146.7203 52.4157
L146.7203 52.2948
"></path>
<path d="M146.7203 52.2948
L146.6599 52.1133
"></path>
<path d="M146.6599 52.1133
L146.5994 52.0529
"></path>
<path d="M146.5994 52.0529
L146.1760 52.0529
"></path>
<path d="M146.1760 52.0529
L146.1760 52.2948
"></path>
<path d="M146.7203 51.5086
L145.4503 51.5086
"></path>
<path d="M145.4503 51.5086
L146.7203 50.7829
"></path>
<path d="M146.7203 50.7829
L145.4503 50.7829
"></path>
<path d="M146.7203 50.1781
L145.4503 50.1781
"></path>
<path d="M145.4503 50.1781
L145.4503 49.8757
"></path>
<path d="M145.4503 49.8757
L145.5108 49.6943
"></path>
<path d="M145.5108 49.6943
L145.6318 49.5733
"></path>
<path d="M145.6318 49.5733
L145.7527 49.5128
"></path>
<path d="M145.7527 49.5128
L145.9946 49.4524
"></path>
<path d="M145.9946 49.4524
L146.1760 49.4524
"></path>
<path d="M146.1760 49.4524
L146.4179 49.5128
"></path>
<path d="M146.4179 49.5128
L146.5389 49.5733
"></path>
<path d="M146.5389 49.5733
L146.6599 49.6943
"></path>
<path d="M146.6599 49.6943
L146.7203 49.8757
"></path>
<path d="M146.7203 49.8757
L146.7203 50.1781
"></path>
</g><path style="fill:#840000; fill-opacity:0.0; 
stroke:#840000; stroke-width:0.1524; stroke-opacity:1; 
stroke-linecap:round; stroke-linejoin:round;fill:none" d="M 146.0500,54.6100
147.3204,53.4987
147.3204,48.2941
146.0500,48.2941
144.7796,48.2941
144.7796,53.4987
Z"></path> 
</g>
<g style="fill:#009600; fill-opacity:0.0; 
stroke:#009600; stroke-width:0.1524; stroke-opacity:1; 
stroke-linecap:round; stroke-linejoin:round;">
<path d="M116.8400 69.8500
L119.3800 69.8500
"></path>
<path d="M129.5400 69.8500
L134.6200 69.8500
"></path>
<path d="M116.8400 83.8200
L128.2700 83.8200
"></path>
<path d="M116.8400 69.8500
L116.8400 83.8200
"></path>
<path d="M146.0500 69.8500
L146.0500 83.8200
"></path>
<path d="M146.0500 83.8200
L135.8900 83.8200
"></path>
<path d="M146.0500 69.8500
L143.5100 69.8500
"></path>
<path d="M134.6200 69.8500
L135.8900 69.8500
"></path>
<path d="M116.8400 69.8500
L116.8400 54.6100
"></path>
<path d="M127.0000 69.8500
L129.5400 69.8500
"></path>
<path d="M129.5400 54.6100
L129.5400 69.8500
"></path>
<path d="M146.0500 54.6100
L146.0500 69.8500
"></path>
<path d="M134.6200 54.6100
L134.6200 69.8500
"></path>
</g>
<g style="fill:#009600; fill-opacity:1.0000; 
stroke:#009600; stroke-width:0.1524; stroke-opacity:1; 
stroke-linecap:round; stroke-linejoin:round;">
<circle cx="129.5400" cy="69.8500" r="0.4572"></circle> 
<circle cx="134.6200" cy="69.8500" r="0.4572"></circle> 
<circle cx="146.0500" cy="69.8500" r="0.4572"></circle> 
<circle cx="116.8400" cy="69.8500" r="0.4572"></circle> 
</g> 
</svg>